<?xml version="1.0" standalone="no"?>
<!DOCTYPE svg PUBLIC "-//W3C//DTD SVG 1.1//EN" "http://www.w3.org/Graphics/SVG/1.1/DTD/svg11.dtd" >
<svg>
<metadata>
Created by FontForge 20090622 at Sat Aug 24 06:01:31 2019
 By deploy user
Copyright (c) 2019 by MadeType. All rights reserved.
</metadata>
<defs>
<font id="MADECoachella-Black" horiz-adv-x="371" >
  <font-face 
    font-family="MADE Coachella"
    font-weight="900"
    font-stretch="normal"
    units-per-em="1000"
    panose-1="2 0 5 3 0 0 0 2 0 4"
    ascent="800"
    descent="-200"
    x-height="527"
    cap-height="700"
    bbox="-20 -388 1275 956"
    underline-thickness="50"
    underline-position="-50"
    unicode-range="U+0020-U+F6C3"
  />
<missing-glyph horiz-adv-x="350" 
 />
    <glyph glyph-name=".notdef" horiz-adv-x="350" 
 />
    <glyph glyph-name=".null" horiz-adv-x="0" 
 />
    <glyph glyph-name="nonmarkingreturn" horiz-adv-x="333" 
 />
    <glyph glyph-name="space" unicode=" " horiz-adv-x="350" 
 />
    <glyph glyph-name="exclam" unicode="!" horiz-adv-x="260" 
d="M130 210q45 0 77 -32t32 -76q0 -45 -32 -77t-77 -32t-76.5 32t-31.5 77q0 44 31.5 76t76.5 32zM127 264l-13.5 14t-30 40t-37 64.5t-27 86t-8.5 106.5q4 61 36.5 94.5t82.5 33.5t82.5 -33.5t36.5 -94.5q3 -54 -7.5 -105.5t-28 -87t-35.5 -63.5t-31 -41l-13 -14h-7z" />
    <glyph glyph-name="quotedbl" unicode="&#x22;" horiz-adv-x="283" 
d="M70 703q60 0 60 -75q0 -29 -14 -67.5t-28 -62.5l-13 -23h-10q-55 87 -55 153q0 75 60 75zM214 703q59 0 59 -75q0 -29 -13.5 -67.5t-27.5 -62.5l-13 -23h-10q-55 87 -55 153q0 75 60 75z" />
    <glyph glyph-name="numbersign" unicode="#" horiz-adv-x="678" 
d="M652 445h-123l-53 -204h124l-16 -65h-124l-46 -176h-65l45 176h-196l-46 -176h-65l46 176h-123l17 65h122l53 204h-132l17 65h132l49 190h66l-50 -190h197l49 190h65l-49 -190h122zM411 241l53 204h-197l-53 -204h197z" />
    <glyph glyph-name="dollar" unicode="$" horiz-adv-x="603" 
d="M305 484q15 -7 46 -20l50.5 -21.5t48.5 -24t47.5 -29t39 -34t32 -42t18.5 -50.5t5 -62q-6 -99 -79.5 -151t-207.5 -56v-76h-22v75h-1q-63 0 -139.5 12t-129.5 32v231h14q135 -260 245 -260q2 0 6 0.5t5 0.5v197q-17 9 -49.5 24t-54.5 26.5t-51.5 28.5t-48.5 36.5
t-37 44.5t-25.5 58t-5.5 72q5 95 69.5 147.5t202.5 58.5v80h22v-79h12q100 0 218 -44v-214h-14l-25 44l-24 42l-22 37t-23 34.5l-21.5 28t-23 25t-23.5 17t-26.5 12t-27.5 3.5v-204zM204 577q2 -44 79 -83v192q-39 -6 -61 -33.5t-18 -75.5zM371 88q8 61 -66 105v-181
q58 13 66 76z" />
    <glyph glyph-name="percent" unicode="%" horiz-adv-x="824" 
d="M400 531q0 -76 -54 -124.5t-141 -48.5t-141 48.5t-54 124.5t54 124t141 48t141 -48t54 -124zM158 531q0 -161 47 -161t47 161t-47 161t-47 -161zM619 338q87 0 141 -48t54 -124t-54 -124.5t-141 -48.5t-141 48.5t-54 124.5t54 124t141 48zM619 4q47 0 47 162
q0 161 -47 161t-47 -161q0 -162 47 -162zM665 700h22l-536 -700h-22z" />
    <glyph glyph-name="ampersand" unicode="&#x26;" horiz-adv-x="710" 
d="M664 13h51v-13h-220l-43 45q-67 -49 -154 -52q-82 -4 -146.5 14.5t-103.5 62.5t-37 108q3 70 48.5 111.5t122.5 49.5q-58 69 -82.5 113.5t-26.5 89.5q-4 81 47.5 121t149.5 40q103 0 155.5 -45t50.5 -109q-2 -56 -44.5 -100t-111.5 -48q71 -87 212 -243q17 31 24 59
q39 142 -82 160v10h222v-10q-43 -10 -67 -41.5t-59 -121.5q-12 -31 -30 -65zM270 687q-55 -1 -63.5 -54t29.5 -112q34 -54 69 -102q25 51 33 102t0 86.5t-26 57.5t-42 22zM307 23q75 -11 136 30l-138.5 150l-106.5 117q-21 -23 -29 -68.5t0 -93t44 -87t94 -48.5z" />
    <glyph glyph-name="quotesingle" unicode="'" horiz-adv-x="139" 
d="M69 703q60 0 60 -75q0 -29 -13.5 -67.5t-27.5 -62.5l-14 -23h-9q-55 87 -55 153q0 75 59 75z" />
    <glyph glyph-name="parenleft" unicode="(" horiz-adv-x="401" 
d="M391 768q-85 -55 -127 -183.5t-42 -286.5t42 -286.5t127 -183.5v-18q-171 43 -276 172t-105 316t105 316t276 172v-18z" />
    <glyph glyph-name="parenright" unicode=")" horiz-adv-x="401" 
d="M10 786q171 -43 276 -172t105 -316t-105 -316t-276 -172v18q85 55 127 183.5t42 286.5t-42 286.5t-127 183.5v18z" />
    <glyph glyph-name="asterisk" unicode="*" horiz-adv-x="339" 
d="M329 590l-14 -5l-142 -3l113 -86l9 -12l-70 -50l-8 11l-47 135l-48 -135l-8 -11l-69 50l8 12l113 86l-142 3l-14 5l27 81l13 -4l118 -81l-41 136v15h85v-15l-40 -136l117 81l14 4z" />
    <glyph glyph-name="plus" unicode="+" horiz-adv-x="374" 
d="M364 361v-65h-144v-144h-66v144h-144v65h144v144h66v-144h144z" />
    <glyph glyph-name="comma" unicode="," horiz-adv-x="236" 
d="M226 102q0 -73 -53.5 -143.5t-106.5 -103.5l-7 12q31 23 61.5 66t41.5 70q-22 -10 -44 -10q-45 0 -76.5 32t-31.5 77q0 44 31.5 76t76.5 32t76.5 -32t31.5 -76z" />
    <glyph glyph-name="hyphen" unicode="-" horiz-adv-x="374" 
d="M10 361h354v-65h-354v65z" />
    <glyph glyph-name="period" unicode="." horiz-adv-x="236" 
d="M118 210q45 0 76.5 -32t31.5 -76q0 -45 -31.5 -77t-76.5 -32t-76.5 32t-31.5 77q0 44 31.5 76t76.5 32z" />
    <glyph glyph-name="slash" unicode="/" horiz-adv-x="332" 
d="M257 700h65l-247 -779h-65z" />
    <glyph glyph-name="zero" unicode="0" horiz-adv-x="646" 
d="M323 703q146 0 229.5 -93.5t83.5 -261.5q0 -167 -83.5 -261t-229.5 -94t-229.5 94t-83.5 261q0 168 83.5 261.5t229.5 93.5zM323 8q45 0 63.5 79.5t18.5 260.5q0 182 -18.5 260.5t-63.5 78.5t-63.5 -78.5t-18.5 -260.5q0 -181 18.5 -260.5t63.5 -79.5z" />
    <glyph glyph-name="one" unicode="1" horiz-adv-x="388" 
d="M313 13h65v-13h-368v13h65v567h-65v13l284 107h19v-687z" />
    <glyph glyph-name="two" unicode="2" horiz-adv-x="555" 
d="M534 244h11v-244h-535v13q156 218 221 339.5t78 216.5q16 118 -43 118q-13 0 -26 -6t-28 -22t-26 -29.5t-29 -42.5l-28 -46l-32 -55.5l-32 -56.5h-14v230q134 44 212 44q155 0 220 -47.5t60 -146.5q-2 -37 -16.5 -72t-33.5 -60.5t-53 -52t-58 -42t-66 -35t-61 -27
l-57 -22.5q-16 -6 -23 -9h359v55z" />
    <glyph glyph-name="three" unicode="3" horiz-adv-x="554" 
d="M293 373q122 7 187 -45.5t63 -131.5q-6 -203 -312 -203q-38 0 -103.5 12.5t-117.5 29.5v232h15q134 -259 209 -259q66 0 58 181q-3 88 -26 128t-75 47v16q45 6 69 40.5t31 117.5q7 82 -2.5 115.5t-42.5 33.5q-35 0 -76 -57.5t-112 -184.5h-15v217q127 41 202 41
q270 0 267 -158q-2 -71 -60 -116.5t-159 -51.5v-4z" />
    <glyph glyph-name="four" unicode="4" horiz-adv-x="621" 
d="M626 180h-89v-167h64v-13h-367v13h64v167h-303v13q62 52 103 146.5t45 185t-25 162.5v13h282q8 -84 -10 -161t-51 -132t-78 -100.5t-85.5 -72t-77.5 -41.5h200v108l226 242h13v-350h89v-13z" />
    <glyph glyph-name="five" unicode="5" horiz-adv-x="530" 
d="M56 376q158 64 262 50.5t154 -70t47 -138.5q-5 -105 -76.5 -165t-220.5 -60q-82 0 -212 42v232h15q67 -130 111.5 -194.5t82.5 -64.5q65 0 59 181q-2 102 -53.5 147.5t-180.5 26.5l24 337h389v55h11v-244h-402z" />
    <glyph glyph-name="six" unicode="6" horiz-adv-x="615" 
d="M390 441q101 -7 158 -65t57 -147q0 -116 -81.5 -176t-206.5 -60q-138 0 -222.5 82.5t-84.5 232.5q0 198 92 296.5t249 98.5q70 0 196 -39v-202h-15q-64 113 -108 169t-76 56q-20 0 -35.5 -10.5t-30.5 -38.5t-24.5 -86.5t-12.5 -145.5q23 17 64 27.5t81 7.5zM317 8
q42 0 54 54t12 167q0 27 -1 46t-4 40t-9 35t-16.5 26t-25 17.5t-35.5 5.5t-48 -7q-1 -26 -1 -84q0 -64 2.5 -109.5t9.5 -93t22.5 -72.5t39.5 -25z" />
    <glyph glyph-name="seven" unicode="7" horiz-adv-x="514" 
d="M10 700h494v-13q-62 -135 -104.5 -329.5t-42.5 -357.5h-252q0 163 90 298t232 213h-406v-55h-11v244z" />
    <glyph glyph-name="eight" unicode="8" horiz-adv-x="614" 
d="M378 373q116 -1 171.5 -51.5t53.5 -135.5q-3 -193 -296 -193t-296 193q-2 85 53.5 135.5t171.5 51.5v4q-88 5 -137 47t-49 113q0 81 66.5 123.5t190.5 42.5t190.5 -42.5t66.5 -123.5q0 -70 -49 -112.5t-137 -47.5v-4zM307 687q-32 0 -46.5 -35t-14.5 -114
q0 -87 14 -122.5t47 -35.5t47 35.5t14 122.5q0 79 -14.5 114t-46.5 35zM307 8q70 0 70 181q0 93 -14.5 134t-55.5 41t-55.5 -41t-14.5 -134q0 -181 70 -181z" />
    <glyph glyph-name="nine" unicode="9" horiz-adv-x="616" 
d="M298 703q139 0 223.5 -82t84.5 -232q0 -198 -92 -297t-250 -99q-73 0 -195 40v202h14q65 -114 109 -170.5t76 -56.5q27 0 46 18.5t35.5 84t21.5 179.5q-25 -16 -65.5 -27t-79.5 -8q-102 7 -159 65t-57 147q0 116 81.5 176t206.5 60zM233 467q0 -27 1 -46t4 -40t9 -35
t16.5 -26t24.5 -17.5t35 -5.5t48 7q2 52 2 85q0 64 -2.5 109t-9.5 92.5t-23 72t-40 24.5q-42 0 -53.5 -53.5t-11.5 -166.5z" />
    <glyph glyph-name="colon" unicode=":" horiz-adv-x="237" 
d="M118 210q45 0 77 -32t32 -76q0 -45 -32 -77t-77 -32t-76.5 32t-31.5 77q0 44 31.5 76t76.5 32zM118 380q-45 0 -76.5 31.5t-31.5 76.5t31.5 76.5t76.5 31.5t77 -31.5t32 -76.5t-32 -76.5t-77 -31.5z" />
    <glyph glyph-name="semicolon" unicode=";" horiz-adv-x="237" 
d="M119 380q-45 0 -77 31.5t-32 76.5t32 76.5t77 31.5t76.5 -31.5t31.5 -76.5t-31.5 -76.5t-76.5 -31.5zM119 210q45 0 76.5 -32t31.5 -76q0 -73 -54 -143.5t-107 -103.5l-6 12q31 23 61.5 66t41.5 70q-22 -10 -44 -10q-45 0 -77 32t-32 77q0 44 32 76t77 32z" />
    <glyph glyph-name="less" unicode="&#x3c;" horiz-adv-x="374" 
d="M364 505v-65l-271 -102l271 -101v-65l-354 132v69z" />
    <glyph glyph-name="equal" unicode="=" horiz-adv-x="373" 
d="M363 356h-353v65h353v-65zM363 236h-353v65h353v-65z" />
    <glyph glyph-name="greater" unicode="&#x3e;" horiz-adv-x="374" 
d="M10 505l354 -132v-69l-354 -132v65l271 101l-271 102v65z" />
    <glyph glyph-name="question" unicode="?" horiz-adv-x="503" 
d="M492 533q4 -97 -68.5 -154.5t-212.5 -68.5v-46h-13v58q40 20 51.5 70.5t11.5 129.5q0 84 -16.5 127t-55.5 38q-21 -3 -51.5 -49t-95.5 -162q-11 -20 -17 -30h-15v221q124 36 204 36q126 0 200 -43.5t78 -126.5zM217 210q44 0 76 -32t32 -76q0 -45 -32 -77t-76 -32
q-45 0 -77 32t-32 77q0 44 32 76t77 32z" />
    <glyph glyph-name="at" unicode="@" horiz-adv-x="1021" 
d="M748 -7q-74 0 -116 26.5t-64 81.5v1v0q-23 -48 -65 -78.5t-100 -30.5q-95 0 -162.5 71.5t-67.5 201.5q0 131 67.5 202.5t162.5 71.5q57 0 99.5 -31t65.5 -78v96h295v-13h-57v-372q0 -48 19.5 -65t45.5 -15q44 2 84 63t40 186q0 191 -123 307.5t-335 116.5
q-246 0 -378 -128.5t-132 -350.5q0 -104 44 -203.5t124 -150.5q117 -75 295.5 -85.5t312.5 46.5l6 -15q-121 -46 -254 -47t-224 25t-146 63q-82 56 -128.5 158t-46.5 209q0 41 5 82t20 91.5t39 94.5t65 87t94.5 73.5t131.5 49t172 18.5q221 0 347.5 -121.5t126.5 -319.5
q0 -318 -263 -318zM518 85q30 5 50 44v273v2q-20 39 -50 44q-52 7 -76 -46t-24 -136t24 -135.5t76 -45.5z" />
    <glyph glyph-name="A" unicode="A" horiz-adv-x="797" 
d="M737 13h65v-13h-401v13h57l-101 205h-202l-24 -60q-21 -56 -1.5 -96t65.5 -49v-13h-200v13q31 9 65.5 49t57.5 97l217 541h47zM160 231h191l-106 214z" />
    <glyph glyph-name="B" unicode="B" horiz-adv-x="743" 
d="M452 372q122 6 201.5 -40.5t79.5 -142.5q0 -57 -23.5 -96t-68 -58.5t-94.5 -27t-118 -7.5h-419v13h65v674h-65v13h361q67 0 118 -7.5t95 -26t67.5 -53.5t23.5 -86q0 -47 -34.5 -82t-83.5 -51t-105 -18v-4zM336 679h-7v-306h7q31 0 51 13t29.5 37.5t12.5 48t3 55.5
q0 152 -96 152zM377 22q104 0 104 167q0 171 -104 171h-48v-338h48z" />
    <glyph glyph-name="C" unicode="C" horiz-adv-x="728" 
d="M704 159l14 -12q-37 -61 -111.5 -107.5t-184.5 -46.5q-65 0 -124 12.5t-112 40t-92 68t-61.5 100.5t-22.5 134q0 91 37 161.5t99 111.5t135 61.5t153 20.5q117 0 269 -57v-267h-17l-49 93.5l-41 73t-40 63.5t-34 40.5t-37 30t-35 7.5q-77 0 -126.5 -96.5t-35.5 -242.5
q11 -118 78.5 -192t155.5 -76q115 -2 182 79z" />
    <glyph glyph-name="D" unicode="D" horiz-adv-x="817" 
d="M807 350q0 -350 -466 -350h-331v13h65v674h-65v13h331q466 0 466 -350zM361 22q97 0 133.5 82t36.5 246t-36.5 246.5t-133.5 82.5h-32v-657h32z" />
    <glyph glyph-name="E" unicode="E" horiz-adv-x="651" 
d="M621 300h15v-300h-626v13h65v674h-65v13h609v-300h-15q-7 54 -24 101t-46.5 88.5t-76.5 65.5t-107 24h-20v-322h11q74 0 109 32t48 99h13v-274h-13q-13 67 -48 98.5t-109 31.5h-11v-322h37q60 0 107 24t76.5 65.5t46.5 88.5t24 100z" />
    <glyph glyph-name="F" unicode="F" horiz-adv-x="634" 
d="M10 700h609v-300h-15q-6 43 -17 81t-32 75t-48.5 63.5t-67.5 43t-89 16.5h-20v-330h11q74 0 109 31.5t48 98.5h13v-273h-13q-13 67 -48 98.5t-109 31.5h-11v-323h97v-13h-417v13h65v674h-65v13z" />
    <glyph glyph-name="G" unicode="G" horiz-adv-x="769" 
d="M774 321v-13h-64v-308h-14v50q-132 -57 -243 -57q-124 0 -222 37t-159.5 119t-61.5 199q0 113 59.5 194.5t158 121t225.5 39.5q98 0 219 -42v-240h-17q-24 51 -36.5 75.5l-32.5 62t-33 55.5t-30.5 38t-34.5 27.5t-35 7.5q-79 0 -123.5 -87.5t-44.5 -251.5
q0 -316 168 -332q17 -1 35 3v289h-73v13h359z" />
    <glyph glyph-name="H" unicode="H" horiz-adv-x="830" 
d="M820 687h-64v-674h64v-13h-384v13h65v323h-172v-323h65v-13h-384v13h65v674h-65v13h384v-13h-65v-330h172v330h-65v13h384v-13z" />
    <glyph glyph-name="I" unicode="I" horiz-adv-x="404" 
d="M394 687h-64v-674h64v-13h-384v13h65v674h-65v13h384v-13z" />
    <glyph glyph-name="J" unicode="J" horiz-adv-x="611" 
d="M601 700v-13h-65v-406q0 -163 -75.5 -225.5t-248.5 -62.5q-97 0 -202 41v258h14l33 -66l31 -62l26.5 -50.5t26.5 -45.5t23.5 -31t24.5 -22.5t23 -6.5q38 0 53.5 43.5t15.5 138.5v497h-97v13h417z" />
    <glyph glyph-name="K" unicode="K" horiz-adv-x="889" 
d="M822 13h72v-13h-417v13h57l-179 296l-26 -26v-270h65v-13h-384v13h65v674h-65v13h384v-13h-65v-382l187 189q40 41 54 77t3.5 60t-35 39t-58.5 17v13h326v-13q-64 -16 -125.5 -63t-142.5 -129l-9 -9z" />
    <glyph glyph-name="L" unicode="L" horiz-adv-x="665" 
d="M634 300h16v-300h-640v13h64v674h-64v13h384v-13h-65v-665h52q60 0 107 24t76 65.5t46 88.5t24 100z" />
    <glyph glyph-name="M" unicode="M" horiz-adv-x="975" 
d="M965 687h-65v-674h65v-13h-384v13h64v633l-201 -646h-31l-259 602v-349q0 -84 35.5 -156.5t94.5 -83.5v-13h-274v13q60 11 95.5 83.5t35.5 156.5v379l-24 55h-70v13h342l144 -361l112 361h320v-13z" />
    <glyph glyph-name="N" unicode="N" horiz-adv-x="828" 
d="M528 700h290v-13q-59 -11 -94.5 -83t-35.5 -156v-448h-93l-442 559v-306q0 -81 43 -154.5t104 -85.5v-13h-290v13q59 11 94.5 83.5t35.5 156.5v322l-88 112h-34v13h340l317 -399v147q0 80 -43 153.5t-104 85.5v13z" />
    <glyph glyph-name="O" unicode="O" horiz-adv-x="823" 
d="M412 703q177 0 289 -95t112 -260q0 -164 -112 -259.5t-289 -95.5t-289.5 95.5t-112.5 259.5q0 165 112.5 260t289.5 95zM412 5q68 0 97.5 82.5t29.5 262.5t-29.5 261t-97.5 81t-97.5 -81t-29.5 -261q0 -181 29.5 -263t97.5 -82z" />
    <glyph glyph-name="P" unicode="P" horiz-adv-x="701" 
d="M395 256h-66v-243h98v-13h-417v13h64v674h-64v13h385q296 0 296 -222t-296 -222zM329 679v-410h15q110 0 110 209q0 201 -110 201h-15z" />
    <glyph glyph-name="Q" unicode="Q" horiz-adv-x="823" 
d="M813 348q0 -164 -112 -259.5t-289 -95.5l350 -141v-15l-276 -136l-150 270v6q5 2 14 5q33 12 51.5 20t48.5 34t46.5 61.5t29.5 100t13 150.5q0 182 -29.5 263t-97.5 81t-97.5 -81t-29.5 -263q0 -157 24.5 -232t93.5 -85v-10q-180 0 -286.5 82.5t-106.5 244.5
q0 165 112.5 260t289.5 95t289 -95t112 -260z" />
    <glyph glyph-name="R" unicode="R" horiz-adv-x="774" 
d="M707 179v-41q0 -43 36 -43q34 0 34 53h12q0 -155 -154 -155q-79 0 -124.5 37.5t-45.5 116.5v64q0 127 -110 127h-26v-325h65v-13h-384v13h64v674h-64v13h377q68 0 118 -7.5t94.5 -27t68 -58.5t23.5 -96q0 -146 -228 -159v-3q134 0 189 -40t55 -130zM344 351
q107 0 107 160q0 168 -107 168h-15v-328h15z" />
    <glyph glyph-name="S" unicode="S" horiz-adv-x="613" 
d="M214 577q2 -26 25 -47.5t58.5 -37.5t78 -33t83.5 -39.5t74.5 -50.5t52.5 -71t16 -97q-6 -103 -85.5 -155.5t-224.5 -52.5q-63 0 -139.5 12t-129.5 32v231h14q135 -260 245 -260q90 0 99 80q4 34 -14 60.5t-51 45t-73 36.5t-80.5 40.5t-73.5 50.5t-52 73t-16 102
q5 102 77.5 154.5t228.5 52.5q100 0 218 -44v-213h-14l-25 43.5l-24 42l-22 37t-23 34.5l-22 27.5t-23 24.5t-23.5 16.5t-26.5 12t-28 3.5q-49 0 -76.5 -27.5t-23.5 -82.5z" />
    <glyph glyph-name="T" unicode="T" horiz-adv-x="720" 
d="M10 700h700v-300h-13q-5 41 -16.5 81t-34 87t-63.5 77.5t-95 32.5v-665h64v-13h-384v13h65v665q-54 -2 -95.5 -32.5t-64 -78t-33.5 -86.5t-17 -81h-13v300z" />
    <glyph glyph-name="U" unicode="U" horiz-adv-x="780" 
d="M596 700h174v-13q-80 -22 -80 -157v-231q0 -140 -73.5 -223t-215.5 -83q-149 0 -238 80t-89 226v388h-64v13h384v-13h-65v-388q0 -112 45.5 -168t129.5 -56q77 0 125 59t48 165v231q0 74 -20.5 110.5t-60.5 46.5v13z" />
    <glyph glyph-name="V" unicode="V" horiz-adv-x="796" 
d="M602 700h199v-13q-31 -9 -65.5 -48.5t-57.5 -97.5l-216 -541h-47l-356 687h-64v13h400v-13h-57l213 -431l114 286q21 56 2 96t-65 49v13z" />
    <glyph glyph-name="W" unicode="W" horiz-adv-x="1151" 
d="M888 700h268v-13q-46 -13 -89.5 -65t-71.5 -135l-166 -487h-97l-177 452l-143 -452h-97l-259 687h-61v13h408v-13h-60l142 -405l133 418h129l158 -437l75 220q27 79 -0.5 136.5t-91.5 67.5v13z" />
    <glyph glyph-name="X" unicode="X" horiz-adv-x="824" 
d="M750 13h64v-13h-392v13h65l-160 261l-66 -94q-48 -69 -39.5 -114.5t72.5 -52.5v-13h-265v13q51 15 111.5 57.5t107.5 109.5l73 105l-247 402h-64v13h392v-13h-65l146 -238l50 71q48 69 40 114.5t-72 52.5v13h265v-13q-51 -15 -112.5 -58t-108.5 -111l-55 -80z" />
    <glyph glyph-name="Y" unicode="Y" horiz-adv-x="770" 
d="M509 700h266v-13q-96 -28 -163 -176l-97 -215v-283h64v-13h-384v13h65v285l-202 389h-63v13h401v-13h-67l178 -369l88 191q33 77 6.5 125t-92.5 53v13z" />
    <glyph glyph-name="Z" unicode="Z" horiz-adv-x="671" 
d="M661 700v-13l-376 -665h101q205 0 238 262h18v-284h-632v13l368 666h-68q-61 0 -108 -22t-77 -60t-47 -82.5t-24 -97.5h-17v283h624z" />
    <glyph glyph-name="bracketleft" unicode="[" horiz-adv-x="185" 
d="M175 687h-100v-753h100v-13h-165v779h165v-13z" />
    <glyph glyph-name="backslash" unicode="\" horiz-adv-x="333" 
d="M75 700l248 -779h-65l-248 779h65z" />
    <glyph glyph-name="bracketright" unicode="]" horiz-adv-x="185" 
d="M10 700h165v-779h-165v13h100v753h-100v13z" />
    <glyph glyph-name="asciicircum" unicode="^" horiz-adv-x="325" 
d="M176 700l139 -190l-6 -7l-147 83l-147 -83l-5 7l138 190h28z" />
    <glyph glyph-name="underscore" unicode="_" horiz-adv-x="374" 
d="M10 0h354v-65h-354v65z" />
    <glyph glyph-name="grave" unicode="`" horiz-adv-x="203" 
d="M123 703q21 -21 38.5 -57.5t24.5 -63.5l7 -26l-7 -7q-100 22 -147 70q-54 52 -11 95q42 42 95 -11z" />
    <glyph glyph-name="a" unicode="a" horiz-adv-x="630" 
d="M637 89l13 -11q-17 -31 -58.5 -58t-98.5 -27q-133 0 -152 79q-54 -79 -145 -79q-77 0 -131.5 39.5t-54.5 118.5q0 28 6.5 51.5t16 40.5t26.5 30.5t32 22.5t39 15.5t41 9.5t44.5 5.5t42.5 3t42.5 1t37.5 0.5v96q0 19 -0.5 29t-2.5 25.5t-6 24t-12 15t-20 6.5
q-25 0 -72 -48t-129 -156h-12v181q119 36 224 36q52 0 96.5 -8.5t85 -27.5t63.5 -55t23 -86v-221q0 -49 6.5 -64t21.5 -15q13 0 33 26zM231 181q0 -66 29.5 -96t77.5 3v14v217q-60 3 -83.5 -29.5t-23.5 -108.5z" />
    <glyph glyph-name="b" unicode="b" horiz-adv-x="710" 
d="M472 540q93 4 160.5 -62t67.5 -201q0 -136 -70 -210t-166 -74t-168 40l-214 -33h-16v687h-56v13h294v-285q20 52 63.5 86.5t104.5 38.5zM371 27q88 0 88 224q0 65 -6.5 107t-28 68.5t-57.5 23.5q-42 -3 -63 -62v-341q36 -20 67 -20z" />
    <glyph glyph-name="c" unicode="c" horiz-adv-x="581" 
d="M558 122l13 -11q-29 -47 -85 -82.5t-139 -35.5q-64 0 -122 15.5t-107 47t-78.5 86t-29.5 124.5t28.5 124t77.5 85.5t108.5 47.5t127.5 16q92 0 208 -44v-205h-15q-81 153 -107 187q-37 50 -73 50q-50 0 -77.5 -76t-19.5 -185q7 -92 52.5 -148.5t112.5 -58.5q74 -1 125 63
z" />
    <glyph glyph-name="d" unicode="d" horiz-adv-x="710" 
d="M700 13v-13h-294v102q-24 -47 -66.5 -78t-99.5 -31q-94 0 -162 71.5t-68 202.5q0 130 68 201.5t162 71.5q58 0 100 -30.5t66 -78.5v256h-57v13h295v-687h56zM355 85q31 4 51 44v275q-20 40 -51 44q-51 7 -75 -46t-24 -135q0 -83 24 -136t75 -46z" />
    <glyph glyph-name="e" unicode="e" horiz-adv-x="592" 
d="M321 539q128 0 197.5 -68t62.5 -205h-315q8 -95 49.5 -150t114.5 -57q69 -1 121 63l13 -11q-28 -47 -85 -82.5t-144 -35.5q-86 0 -157 27.5t-119.5 91t-48.5 154.5q0 68 27 122t72.5 86t99.5 48.5t112 16.5zM368 288q4 114 -5.5 176.5t-41.5 62.5q-31 0 -47 -68t-9 -171
h103z" />
    <glyph glyph-name="f" unicode="f" horiz-adv-x="440" 
d="M313 716q-3 0 -4.5 -3t-2.5 -17t-1 -36.5v-68.5v-64h155v-13h-155v-501h97v-13h-392v13h57v501h-57v13h57v9q0 55 20.5 94t57.5 60t79 30t94 9q44 0 142 -19v-161h-15l-57 77q-42 57 -56 74.5t-19 15.5z" />
    <glyph glyph-name="g" unicode="g" horiz-adv-x="644" 
d="M369 177q133 0 199 -33t66 -123q0 -91 -84.5 -153.5t-238.5 -62.5q-155 0 -228 18t-73 70q0 64 127 91q-127 32 -115 142q8 71 107 120q-77 43 -77 128q0 83 71.5 124.5t188.5 41.5q62 0 113 -12l189 172h15v-192h-146q90 -44 90 -134q0 -83 -72 -124.5t-189 -41.5
q-88 0 -152 24q-5 -13 -2 -25q5 -21 43.5 -25.5t167.5 -4.5zM312 525q-32 0 -42.5 -38.5t-10.5 -112.5t10.5 -112.5t42.5 -38.5t42.5 38.5t10.5 112.5t-10.5 112.5t-42.5 38.5zM312 -176q138 0 138 81q0 31 -31.5 46.5t-106.5 15.5q-63 0 -103 4q-49 -27 -49 -74
q0 -73 152 -73z" />
    <glyph glyph-name="h" unicode="h" horiz-adv-x="751" 
d="M741 13v-13h-351v13h57v354q0 48 -14 70.5t-48 19.5q-35 -3 -57.5 -46t-22.5 -87v-311h56v-13h-351v13h57v674h-57v13h295v-317q47 157 193 157q93 0 140 -51.5t47 -130.5v-345h56z" />
    <glyph glyph-name="i" unicode="i" 
d="M304 13h57v-13h-351v13h56v501h-56v13h294v-514zM185 564q-47 0 -79.5 33t-32.5 80t33 80t79 33q47 0 80 -33t33 -80t-33 -80t-80 -33z" />
    <glyph glyph-name="j" unicode="j" horiz-adv-x="370" 
d="M-11 527h316v-378q0 -180 -73.5 -254.5t-251.5 -74.5v15q87 0 87 198v481h-78v13zM186 564q-47 0 -80 33t-33 80t33.5 80t79.5 33t79.5 -33t33.5 -80t-33 -80t-80 -33z" />
    <glyph glyph-name="k" unicode="k" horiz-adv-x="727" 
d="M686 13h61v-13h-367v13h52l-113 216l-15 -16v-200h57v-13h-351v13h56v674h-56v13h294v-471l128 136q52 57 48 100t-54 49v13h246v-13q-99 -25 -200 -124z" />
    <glyph glyph-name="l" unicode="l" 
d="M305 13h56v-13h-351v13h57v674h-57v13h295v-687z" />
    <glyph glyph-name="m" unicode="m" horiz-adv-x="1131" 
d="M1121 13v-13h-351v13h57v354q0 48 -14 70.5t-48 19.5q-35 -3 -57.5 -46t-22.5 -87v-311h56v-13h-351v13h57v354q0 48 -14 70.5t-48 19.5q-35 -3 -57.5 -46t-22.5 -87v-311h56v-13h-351v13h57v501h-57v13h295v-144q47 157 193 157q87 0 133.5 -45t52.5 -116v1q1 2 1 3
q47 157 193 157q93 0 140 -51.5t47 -130.5v-345h56z" />
    <glyph glyph-name="n" unicode="n" horiz-adv-x="751" 
d="M741 13v-13h-351v13h56v354q0 48 -13.5 70.5t-47.5 19.5q-36 -3 -58.5 -46t-22.5 -87v-311h57v-13h-351v13h56v501h-56v13h294v-144q47 157 194 157q93 0 139.5 -51.5t46.5 -130.5v-345h57z" />
    <glyph glyph-name="o" unicode="o" horiz-adv-x="655" 
d="M328 540q63 0 118.5 -16t100.5 -48t71.5 -86t26.5 -124t-26.5 -123.5t-71.5 -85.5t-100.5 -48t-118.5 -16q-64 0 -119.5 16t-100.5 48t-71.5 85.5t-26.5 123.5t26.5 124t71.5 86t101 48t119 16zM328 5q44 0 59 67.5t15 193.5q0 127 -15 194t-59 67q-45 0 -60 -67
t-15 -194q0 -126 15 -193.5t60 -67.5z" />
    <glyph glyph-name="p" unicode="p" horiz-adv-x="710" 
d="M470 540q94 0 162 -71.5t68 -202.5q0 -130 -68 -201.5t-162 -71.5q-58 0 -100 30.5t-66 78.5v-256h73v-13h-367v13h56v667h-56v14h294v-96q24 47 66.5 78t99.5 31zM355 85q51 -7 75 46t24 135q0 83 -24 136t-75 46q-29 -4 -51 -44v-275q21 -40 51 -44z" />
    <glyph glyph-name="q" unicode="q" horiz-adv-x="710" 
d="M644 -154h56v-13h-367v13h73v272q-21 -54 -63.5 -89.5t-104.5 -35.5q-44 0 -83 14.5t-72.5 44t-53 82t-19.5 122.5q0 136 70.5 210t165.5 74q96 0 168 -40l214 27h16v-681zM343 82q42 4 63 63v341q-36 20 -66 20q-89 0 -89 -225q0 -99 20 -151t72 -48z" />
    <glyph glyph-name="r" unicode="r" horiz-adv-x="581" 
d="M468 540q28 0 59.5 -13.5t43.5 -29.5l-92 -166h-17q-18 35 -56 61t-68 10q-34 -19 -34 -78v-311h90v-13h-384v13h56v501h-56v13h294v-143q26 80 62 118t102 38z" />
    <glyph glyph-name="s" unicode="s" horiz-adv-x="504" 
d="M191 449q1 -13 9.5 -24t25 -21t30 -16l39.5 -17l40 -17q47 -21 70.5 -34.5t49.5 -37t33.5 -55t2.5 -74.5q-5 -37 -20 -65t-38.5 -45t-47.5 -27.5t-55.5 -15t-51.5 -6t-47 -1.5q-96 0 -221 34v199h16q132 -212 204 -221q32 -5 50.5 12.5t17.5 53.5q0 40 -62 73
q-13 7 -67 32q-35 15 -57 28t-46 34.5t-36 51.5t-12 69q0 47 17 81.5t41.5 53t58.5 29.5t59.5 14t53.5 3q79 0 207 -35v-182h-17q-67 110 -111 157t-80 47q-29 0 -44.5 -21.5t-11.5 -56.5z" />
    <glyph glyph-name="t" unicode="t" horiz-adv-x="419" 
d="M412 92l12 -11q-27 -39 -77 -63.5t-115 -24.5q-79 0 -124.5 41.5t-45.5 116.5v363h-57v13h57l222 160h16v-160h106v-13h-106v-379q0 -48 14 -64.5t38 -16.5q28 0 60 38z" />
    <glyph glyph-name="u" unicode="u" horiz-adv-x="746" 
d="M679 13h57v-13h-295v145q-45 -152 -193 -152q-94 0 -140.5 49t-46.5 127v345h-56v13h294v-367q0 -48 14 -70t48 -20q35 3 57.5 46t22.5 87v311h-56v13h294v-514z" />
    <glyph glyph-name="v" unicode="v" horiz-adv-x="674" 
d="M428 527h251v-13q-87 -26 -160 -194l-140 -320h-89l-233 514h-62v13h384v-13h-68l137 -327l58 133q33 80 10 132t-88 62v13z" />
    <glyph glyph-name="w" unicode="w" horiz-adv-x="987" 
d="M741 527h251v-13q-84 -25 -154 -194l-130 -320h-89l-141 332l-114 -332h-90l-217 514h-62v13h393v-13h-68l107 -290l105 303h111l131 -332l51 124q31 81 6 133t-90 62v13z" />
    <glyph glyph-name="x" unicode="x" horiz-adv-x="702" 
d="M628 13h64v-13h-368v13h59l-115 180l-39 -58q-34 -50 -26 -82t56 -40v-13h-216v13q114 34 172 122l46 69l-198 310h-63v13h367v-13h-59l109 -170l33 49q34 52 24.5 84t-56.5 37v13h217v-13q-112 -34 -174 -125l-38 -56z" />
    <glyph glyph-name="y" unicode="y" horiz-adv-x="683" 
d="M436 527h252v-13q-86 -26 -161 -196l-137 -311l-161 -331l-161 157v13l258 101l-268 567h-63v13h384v-13h-68l141 -337q62 141 62 142q33 81 10 133t-88 62v13z" />
    <glyph glyph-name="z" unicode="z" horiz-adv-x="547" 
d="M537 527v-13l-278 -492h60q88 0 133.5 54t56.5 140h13v-216h-512v13l272 492h-36q-89 0 -140 -55.5t-62 -138.5h-13v216h506z" />
    <glyph glyph-name="braceleft" unicode="{" horiz-adv-x="254" 
d="M244 699q-69 -18 -61 -89q2 -21 7 -50.5t8.5 -53.5t3.5 -49q2 -50 -32.5 -79.5t-106.5 -39.5q72 -10 106.5 -39.5t32.5 -79.5q0 -25 -3.5 -49t-8.5 -53.5t-7 -50.5q-8 -71 61 -89v-10q-33 0 -58 3.5t-50 13t-40.5 27t-25.5 44t-8 67t16 92.5q13 50 -7.5 79.5t-60.5 38.5
v12q40 9 60.5 38.5t7.5 79.5q-14 52 -16 92.5t8 67t25.5 44t40.5 27t50 13t58 3.5v-10z" />
    <glyph glyph-name="bar" unicode="|" horiz-adv-x="85" 
d="M10 700h65v-779h-65v779z" />
    <glyph glyph-name="braceright" unicode="}" horiz-adv-x="254" 
d="M176 462q-13 -50 7.5 -79.5t60.5 -38.5v-12q-40 -9 -60.5 -38.5t-7.5 -79.5q13 -52 15 -92.5t-7.5 -67t-25 -44t-40.5 -27t-50 -13t-58 -3.5v10q68 17 61 89q-2 15 -10.5 67.5t-9.5 85.5q-1 50 33.5 79.5t106.5 39.5q-72 10 -106.5 39.5t-33.5 79.5q1 33 9.5 85.5
t10.5 67.5q7 72 -61 89v10q33 0 58 -3.5t50 -13t40.5 -27t25 -44t7.5 -67t-15 -92.5z" />
    <glyph glyph-name="asciitilde" unicode="~" horiz-adv-x="396" 
d="M273 256q-13 0 -26 2.5t-21.5 4.5t-24.5 10t-19.5 10l-23 13.5t-21.5 12.5q-49 24 -78 11t-38 -52h-11q4 97 34.5 138.5t89.5 37.5q34 -2 90.5 -33t62.5 -33q71 -27 89 42h10q-6 -164 -113 -164z" />
    <glyph glyph-name="exclamdown" unicode="&#xa1;" horiz-adv-x="260" 
d="M130 112q-45 0 -76.5 31.5t-31.5 76.5t31.5 77t76.5 32t77 -32t32 -77t-32 -76.5t-77 -31.5zM134 58l13.5 -14t30 -40t37 -64.5t26.5 -86t8 -106.5q-4 -61 -36.5 -92.5t-82.5 -31.5t-82.5 31.5t-36.5 92.5q-3 54 8 105.5t28.5 87t35.5 63.5t31 41l13 14h7z" />
    <glyph glyph-name="cent" unicode="&#xa2;" horiz-adv-x="581" 
d="M571 112q-68 -113 -213 -119v-76h-21v76q-63 1 -119.5 17t-104 48t-75.5 85.5t-28 123.5q0 90 47.5 152.5t119 90t160.5 30.5v77h21v-77q88 -1 202 -44v-206h-15q-81 155 -109 192q-36 46 -71 46q-1 0 -3.5 -0.5t-3.5 -0.5v-443q33 -22 75 -24q75 -1 126 62zM268 267
q9 -111 69 -166v419q-38 -21 -57 -91t-12 -162z" />
    <glyph glyph-name="sterling" unicode="&#xa3;" horiz-adv-x="631" 
d="M608 244h13v-244h-551v13l225 176q-79 32 -130 64t-81 78h-74v21h61q-25 52 -25 117q0 116 86 175t239 59q91 0 231 -46v-228h-14l-31 57.5l-29.5 55t-26.5 46.5t-28 42t-27.5 29.5t-31.5 21t-33 6.5q-50 0 -75.5 -43.5t-26.5 -157.5q-1 -68 2 -134h218v-21h-216
q6 -68 24 -142h301v55z" />
    <glyph glyph-name="currency" unicode="&#xa4;" horiz-adv-x="530" 
d="M502 263q0 -93 -69 -153l87 -86l-15 -15l-89 88q-62 -43 -151 -43t-151 43l-89 -88l-15 15l87 86q-69 60 -69 153q0 94 69 154l-87 86l15 15l89 -88q62 43 151 43t151 -43l89 88l15 -15l-87 -86q69 -60 69 -154zM265 68q57 0 57 195q0 196 -57 196t-57 -196
q0 -195 57 -195z" />
    <glyph glyph-name="yen" unicode="&#xa5;" horiz-adv-x="769" 
d="M508 700h266v-13q-96 -28 -163 -176l-96 -213h90v-22h-91v-52h91v-22h-91v-189h64v-13h-383v13h64v189h-93v22h93v52h-93v22h93l-201 389h-63v13h400v-13h-67l178 -369q88 191 89 191q32 77 5.5 125t-92.5 53v13z" />
    <glyph glyph-name="brokenbar" unicode="&#xa6;" horiz-adv-x="85" 
d="M10 700h65v-285h-65v285zM10 -79v284h65v-284h-65z" />
    <glyph glyph-name="section" unicode="&#xa7;" horiz-adv-x="594" 
d="M255 626q2 -30 38 -53.5t85 -43t97.5 -44.5t80 -70.5t27.5 -107.5q-8 -123 -135 -159q50 -53 46 -131q-5 -86 -66 -130.5t-193 -44.5q-85 0 -184 37v181h12q8 -13 21.5 -37l20.5 -36l18.5 -31.5t19 -29l18.5 -23.5t19.5 -21t19.5 -14t22.5 -10t23.5 -3q41 0 64.5 23.5
t20.5 69.5q-2 30 -37.5 53.5t-83 43t-94.5 44.5t-78 70.5t-27 107.5q7 113 128 156q-51 54 -47 134q5 86 66 130.5t193 44.5q85 0 184 -37v-181h-12l-21 37.5l-20.5 36l-18.5 30.5t-19.5 29.5l-18 23.5t-20 21l-19.5 14t-22.5 10.5t-23.5 2.5q-41 0 -64.5 -23.5t-20.5 -69.5
zM403 205q8 26 -1.5 46.5t-34 36.5t-51 28.5l-64.5 31t-63 34.5q-5 -11 -8 -20q-8 -26 1 -46t34 -35.5t52 -28l65 -30t64 -33.5q4 10 6 16z" />
    <glyph glyph-name="dieresis" unicode="&#xa8;" horiz-adv-x="414" 
d="M103 735q39 0 66 -27.5t27 -65.5t-27 -65.5t-66 -27.5q-38 0 -65.5 27.5t-27.5 65.5t27.5 65.5t65.5 27.5zM311 735q39 0 66 -27.5t27 -65.5t-27 -65.5t-66 -27.5q-38 0 -65.5 27.5t-27.5 65.5t27.5 65.5t65.5 27.5z" />
    <glyph glyph-name="copyright" unicode="&#xa9;" horiz-adv-x="810" 
d="M589 195l8 -7q-22 -36 -66.5 -63.5t-109.5 -27.5q-104 0 -174.5 52.5t-70.5 158.5q0 105 74.5 158.5t177.5 53.5q69 0 160 -35v-159h-10q-30 58 -43 81t-32.5 53t-34 40t-30.5 10q-45 0 -75 -57.5t-22 -144.5q7 -70 47 -114.5t92 -45.5q69 -1 109 47zM405 -88
q-163 0 -279 116t-116 279t116 279t279 116t279 -116t116 -279t-116 -279t-279 -116zM405 685q-157 0 -267.5 -110.5t-110.5 -267.5t110.5 -267.5t267.5 -110.5t267.5 110.5t110.5 267.5t-110.5 267.5t-267.5 110.5z" />
    <glyph glyph-name="guillemotleft" unicode="&#xab;" horiz-adv-x="357" 
d="M191 470l-66 -147l66 -147l-7 -6l-174 139v28l174 138zM347 470l-65 -147l65 -147l-6 -6l-174 139v28l174 138z" />
    <glyph glyph-name="registered" unicode="&#xae;" horiz-adv-x="810" 
d="M405 -88q-163 0 -279 116t-116 279t116 279t279 116t279 -116t116 -279t-116 -279t-279 -116zM405 685q-157 0 -267.5 -111t-110.5 -267q0 -157 110.5 -268t267.5 -111t267.5 111t110.5 268q0 156 -110.5 267t-267.5 111zM592 208v-24q0 -25 21 -25q20 0 20 30h7
q0 -90 -90 -90q-99 0 -99 90v37q0 74 -64 74h-15v-189h37v-8h-223v8h37v393h-37v7h220q40 0 69 -4.5t55 -15.5t39.5 -33.5t13.5 -56.5q0 -85 -133 -93v-2q78 0 110 -23.5t32 -74.5zM380 308q63 0 63 93q0 98 -63 98h-8v-191h8z" />
    <glyph glyph-name="macron" unicode="&#xaf;" horiz-adv-x="341" 
d="M10 645h321v-65h-321v65z" />
    <glyph glyph-name="degree" unicode="&#xb0;" horiz-adv-x="310" 
d="M155 412q-60 0 -102.5 43t-42.5 103t42.5 102.5t102.5 42.5t102.5 -42.5t42.5 -102.5t-42.5 -103t-102.5 -43zM155 628q-29 0 -49.5 -20.5t-20.5 -49.5q0 -30 20.5 -50.5t49.5 -20.5t50 20.5t21 50.5q0 29 -21 49.5t-50 20.5z" />
    <glyph glyph-name="plusminus" unicode="&#xb1;" horiz-adv-x="373" 
d="M219 477h144v-65h-144v-145h-65v145h-144v65h144v144h65v-144zM10 154v65h353v-65h-353z" />
    <glyph glyph-name="acute" unicode="&#xb4;" horiz-adv-x="203" 
d="M175 714q41 -43 -11 -95q-21 -21 -57.5 -38.5t-62.5 -24.5l-27 -7l-7 7q22 100 69 147q53 52 96 11z" />
    <glyph glyph-name="paragraph" unicode="&#xb6;" horiz-adv-x="417" 
d="M183 700h224v-700h-65v687h-94v-687h-65v354q-71 0 -122 50.5t-51 122.5t51 122.5t122 50.5z" />
    <glyph glyph-name="cedilla" unicode="&#xb8;" horiz-adv-x="285" 
d="M98 -41q81 13 134 -19t40 -100q-13 -61 -90.5 -87.5t-171.5 7.5l3 12q53 -6 92 22t50 68q11 42 -8.5 66t-64.5 19l15 53h13z" />
    <glyph glyph-name="guillemotright" unicode="&#xbb;" horiz-adv-x="357" 
d="M173 475l174 -138v-28l-174 -139l-6 6l66 147l-66 147zM190 337v-28l-173 -139l-7 6l66 147l-66 147l7 5z" />
    <glyph glyph-name="questiondown" unicode="&#xbf;" horiz-adv-x="503" 
d="M479 -124h14v-221q-122 -36 -204 -36q-126 0 -200 43.5t-78 125.5q-4 97 69 155t213 69v46h13v-58q-22 -11 -35.5 -31.5t-19.5 -51.5t-7.5 -55.5t-1.5 -61.5q0 -84 16.5 -127t55.5 -38q21 3 53.5 51.5t96.5 162.5zM287 112q-45 0 -76.5 31.5t-31.5 76.5t31.5 77t76.5 32
t76.5 -32t31.5 -77t-31.5 -76.5t-76.5 -31.5z" />
    <glyph glyph-name="Agrave" unicode="&#xc0;" horiz-adv-x="797" 
d="M737 13h65v-13h-401v13h57l-101 205h-202l-24 -60q-21 -56 -1.5 -96t65.5 -49v-13h-200v13q31 9 65.5 49t57.5 97l217 541h47zM160 231h191l-106 214zM354 903q21 -21 38.5 -57.5t24.5 -63.5l7 -26l-7 -7q-100 22 -147 70q-54 52 -11 95q42 42 95 -11z" />
    <glyph glyph-name="Aacute" unicode="&#xc1;" horiz-adv-x="797" 
d="M737 13h65v-13h-401v13h57l-101 205h-202l-24 -60q-21 -56 -1.5 -96t65.5 -49v-13h-200v13q31 9 65.5 49t57.5 97l217 541h47zM160 231h191l-106 214zM478 914q41 -43 -11 -95q-21 -21 -57.5 -38.5t-63.5 -24.5l-26 -7l-7 7q22 100 69 147q53 52 96 11z" />
    <glyph glyph-name="Acircumflex" unicode="&#xc2;" horiz-adv-x="797" 
d="M737 13h65v-13h-401v13h57l-101 205h-202l-24 -60q-21 -56 -1.5 -96t65.5 -49v-13h-200v13q31 9 65.5 49t57.5 97l217 541h47zM160 231h191l-106 214zM413 919l119 -147l-7 -7l-167 57l-167 -57l-7 7l119 147h110z" />
    <glyph glyph-name="Atilde" unicode="&#xc3;" horiz-adv-x="797" 
d="M737 13h65v-13h-401v13h57l-101 205h-202l-24 -60q-21 -56 -1.5 -96t65.5 -49v-13h-200v13q31 9 65.5 49t57.5 97l217 541h47zM160 231h191l-106 214zM417 780q-9 0 -17 1t-16.5 4l-14.5 5t-15.5 7l-13.5 7t-15.5 8.5t-14.5 8.5q-39 20 -62 9.5t-30 -41.5h-8
q2 77 26.5 109.5t71.5 30.5q26 -2 70.5 -26t50.5 -26q56 -21 70 33h8q-5 -130 -90 -130z" />
    <glyph glyph-name="Adieresis" unicode="&#xc4;" horiz-adv-x="797" 
d="M737 13h65v-13h-401v13h57l-101 205h-202l-24 -60q-21 -56 -1.5 -96t65.5 -49v-13h-200v13q31 9 65.5 49t57.5 97l217 541h47zM160 231h191l-106 214zM254 935q39 0 66 -27.5t27 -65.5t-27 -65.5t-66 -27.5q-38 0 -65.5 27.5t-27.5 65.5t27.5 65.5t65.5 27.5zM462 935
q39 0 66 -27.5t27 -65.5t-27 -65.5t-66 -27.5q-38 0 -65.5 27.5t-27.5 65.5t27.5 65.5t65.5 27.5z" />
    <glyph glyph-name="Aring" unicode="&#xc5;" horiz-adv-x="797" 
d="M737 13h65v-13h-401v13h57l-101 205h-202l-24 -60q-21 -56 -1.5 -96t65.5 -49v-13h-200v13q31 9 65.5 49t57.5 97l217 541h47zM160 231h191l-106 214zM358 728q-47 0 -80.5 33.5t-33.5 80.5t33.5 80.5t80.5 33.5t80.5 -33.5t33.5 -80.5t-33.5 -80.5t-80.5 -33.5zM358 899
q-23 0 -40 -17t-17 -40t17 -40t40 -17t39.5 17t16.5 40t-16.5 40t-39.5 17z" />
    <glyph glyph-name="AE" unicode="&#xc6;" horiz-adv-x="1044" 
d="M1013 300h16v-300h-626v13h64v238h-249l-54 -92q-30 -52 -21.5 -95t52.5 -51v-13h-200v13q33 10 79.5 51.5t77.5 95.5l308 527h-57v13h609v-300h-16q-6 43 -17 81t-32 75t-48.5 63.5t-67.5 43t-89 16.5h-20v-322h11q74 0 109.5 32t47.5 99h13v-274h-13q-12 66 -47.5 98
t-109.5 32h-11v-322h37q60 0 107.5 24t76.5 65.5t46 88t24 100.5zM226 264h241v414z" />
    <glyph glyph-name="Ccedilla" unicode="&#xc7;" horiz-adv-x="728" 
d="M422 -7q-16 0 -24 1l-10 -35q81 13 134 -19t40 -100q-13 -61 -90.5 -87.5t-171.5 7.5l3 12q52 -6 91.5 22t50.5 68q11 43 -9 66.5t-64 18.5l13 47q-76 5 -141.5 27.5t-119 64t-84 109t-30.5 153.5q0 91 37 161.5t99 111.5t135 61.5t153 20.5q117 0 269 -57v-267h-17
l-49 93.5l-41 73t-40 63.5t-34 40.5t-37 30t-35 7.5q-77 0 -126.5 -96.5t-35.5 -242.5q11 -118 78.5 -192.5t155.5 -75.5q114 -2 182 78l14 -11q-37 -61 -111.5 -107.5t-184.5 -46.5z" />
    <glyph glyph-name="Egrave" unicode="&#xc8;" horiz-adv-x="651" 
d="M621 300h15v-300h-626v13h65v674h-65v13h609v-300h-15q-7 54 -24 101t-46.5 88.5t-76.5 65.5t-107 24h-20v-322h11q74 0 109 32t48 99h13v-274h-13q-13 67 -48 98.5t-109 31.5h-11v-322h37q60 0 107 24t76.5 65.5t46.5 88.5t24 100zM378 903q21 -21 38.5 -57.5
t24.5 -63.5l7 -26l-7 -7q-100 22 -147 70q-54 52 -11 95q42 42 95 -11z" />
    <glyph glyph-name="Eacute" unicode="&#xc9;" horiz-adv-x="651" 
d="M621 300h15v-300h-626v13h65v674h-65v13h609v-300h-15q-7 54 -24 101t-46.5 88.5t-76.5 65.5t-107 24h-20v-322h11q74 0 109 32t48 99h13v-274h-13q-13 67 -48 98.5t-109 31.5h-11v-322h37q60 0 107 24t76.5 65.5t46.5 88.5t24 100zM403 914q41 -43 -11 -95
q-21 -21 -57.5 -38.5t-62.5 -24.5l-27 -7l-7 7q22 100 69 147q53 52 96 11z" />
    <glyph glyph-name="Ecircumflex" unicode="&#xca;" horiz-adv-x="651" 
d="M621 300h15v-300h-626v13h65v674h-65v13h609v-300h-15q-7 54 -24 101t-46.5 88.5t-76.5 65.5t-107 24h-20v-322h11q74 0 109 32t48 99h13v-274h-13q-13 67 -48 98.5t-109 31.5h-11v-322h37q60 0 107 24t76.5 65.5t46.5 88.5t24 100zM398 919l119 -147l-7 -7l-167 57
l-167 -57l-7 7l119 147h110z" />
    <glyph glyph-name="Edieresis" unicode="&#xcb;" horiz-adv-x="651" 
d="M621 300h15v-300h-626v13h65v674h-65v13h609v-300h-15q-7 54 -24 101t-46.5 88.5t-76.5 65.5t-107 24h-20v-322h11q74 0 109 32t48 99h13v-274h-13q-13 67 -48 98.5t-109 31.5h-11v-322h37q60 0 107 24t76.5 65.5t46.5 88.5t24 100zM239 935q39 0 66 -27.5t27 -65.5
t-27 -65.5t-66 -27.5q-38 0 -65.5 27.5t-27.5 65.5t27.5 65.5t65.5 27.5zM447 935q39 0 66 -27.5t27 -65.5t-27 -65.5t-66 -27.5q-38 0 -65.5 27.5t-27.5 65.5t27.5 65.5t65.5 27.5z" />
    <glyph glyph-name="Igrave" unicode="&#xcc;" horiz-adv-x="404" 
d="M394 687h-64v-674h64v-13h-384v13h65v674h-65v13h384v-13zM237 903q21 -21 38.5 -57.5t24.5 -63.5l7 -26l-7 -7q-100 22 -147 70q-54 52 -11 95q42 42 95 -11z" />
    <glyph glyph-name="Iacute" unicode="&#xcd;" horiz-adv-x="404" 
d="M394 687h-64v-674h64v-13h-384v13h65v674h-65v13h384v-13zM272 914q41 -43 -11 -95q-21 -21 -57.5 -38.5t-63.5 -24.5l-26 -7l-7 7q22 100 69 147q53 52 96 11z" />
    <glyph glyph-name="Icircumflex" unicode="&#xce;" horiz-adv-x="404" 
d="M394 687h-64v-674h64v-13h-384v13h65v674h-65v13h384v-13zM257 919l119 -147l-7 -7l-167 57l-167 -57l-7 7l119 147h110z" />
    <glyph glyph-name="Idieresis" unicode="&#xcf;" horiz-adv-x="404" 
d="M394 687h-64v-674h64v-13h-384v13h65v674h-65v13h384v-13zM98 935q39 0 66 -27.5t27 -65.5t-27 -65.5t-66 -27.5q-38 0 -65.5 27.5t-27.5 65.5t27.5 65.5t65.5 27.5zM306 935q39 0 66 -27.5t27 -65.5t-27 -65.5t-66 -27.5q-38 0 -65.5 27.5t-27.5 65.5t27.5 65.5
t65.5 27.5z" />
    <glyph glyph-name="Eth" unicode="&#xd0;" horiz-adv-x="817" 
d="M341 700q226 0 346 -83.5t120 -266.5t-120 -266.5t-346 -83.5h-331v13h65v326h-65v22h65v326h-65v13h331zM361 22q97 0 133.5 82t36.5 246t-36.5 246.5t-133.5 82.5h-31v-318h120v-22h-120v-317h31z" />
    <glyph glyph-name="Ntilde" unicode="&#xd1;" horiz-adv-x="828" 
d="M528 700h290v-13q-59 -11 -94.5 -83t-35.5 -156v-448h-93l-442 559v-306q0 -81 43 -154.5t104 -85.5v-13h-290v13q59 11 94.5 83.5t35.5 156.5v322l-88 112h-34v13h340l317 -399v147q0 80 -43 153.5t-104 85.5v13zM492 780q-9 0 -17 1t-16.5 4l-14.5 5t-15.5 7l-13.5 7
t-15.5 8.5t-14.5 8.5q-39 20 -62 9.5t-30 -41.5h-8q2 77 26.5 109.5t71.5 30.5q26 -2 70.5 -26t50.5 -26q56 -21 70 33h8q-5 -130 -90 -130z" />
    <glyph glyph-name="Ograve" unicode="&#xd2;" horiz-adv-x="823" 
d="M412 703q177 0 289 -95t112 -260q0 -164 -112 -259.5t-289 -95.5t-289.5 95.5t-112.5 259.5q0 165 112.5 260t289.5 95zM412 5q68 0 97.5 82.5t29.5 262.5t-29.5 261t-97.5 81t-97.5 -81t-29.5 -261q0 -181 29.5 -263t97.5 -82zM447 903q21 -21 38.5 -57.5t24.5 -63.5
l7 -26l-7 -7q-100 22 -147 70q-54 52 -11 95q42 42 95 -11z" />
    <glyph glyph-name="Oacute" unicode="&#xd3;" horiz-adv-x="823" 
d="M412 703q177 0 289 -95t112 -260q0 -164 -112 -259.5t-289 -95.5t-289.5 95.5t-112.5 259.5q0 165 112.5 260t289.5 95zM412 5q68 0 97.5 82.5t29.5 262.5t-29.5 261t-97.5 81t-97.5 -81t-29.5 -261q0 -181 29.5 -263t97.5 -82zM491 914q41 -43 -11 -95
q-21 -21 -57.5 -38.5t-62.5 -24.5l-27 -7l-7 7q22 100 69 147q53 52 96 11z" />
    <glyph glyph-name="Ocircumflex" unicode="&#xd4;" horiz-adv-x="823" 
d="M412 703q177 0 289 -95t112 -260q0 -164 -112 -259.5t-289 -95.5t-289.5 95.5t-112.5 259.5q0 165 112.5 260t289.5 95zM412 5q68 0 97.5 82.5t29.5 262.5t-29.5 261t-97.5 81t-97.5 -81t-29.5 -261q0 -181 29.5 -263t97.5 -82zM466 919l119 -147l-7 -7l-167 57l-167 -57
l-7 7l119 147h110z" />
    <glyph glyph-name="Otilde" unicode="&#xd5;" horiz-adv-x="823" 
d="M412 703q177 0 289 -95t112 -260q0 -164 -112 -259.5t-289 -95.5t-289.5 95.5t-112.5 259.5q0 165 112.5 260t289.5 95zM412 5q68 0 97.5 82.5t29.5 262.5t-29.5 261t-97.5 81t-97.5 -81t-29.5 -261q0 -181 29.5 -263t97.5 -82zM470 780q-9 0 -17 1t-16.5 4l-14.5 5
t-15.5 7l-13.5 7t-15.5 8.5t-14.5 8.5q-39 20 -62 9.5t-30 -41.5h-8q2 77 26.5 109.5t71.5 30.5q26 -2 70.5 -26t50.5 -26q56 -21 70 33h8q-5 -130 -90 -130z" />
    <glyph glyph-name="Odieresis" unicode="&#xd6;" horiz-adv-x="823" 
d="M412 703q177 0 289 -95t112 -260q0 -164 -112 -259.5t-289 -95.5t-289.5 95.5t-112.5 259.5q0 165 112.5 260t289.5 95zM412 5q68 0 97.5 82.5t29.5 262.5t-29.5 261t-97.5 81t-97.5 -81t-29.5 -261q0 -181 29.5 -263t97.5 -82zM307 935q39 0 66 -27.5t27 -65.5
t-27 -65.5t-66 -27.5q-38 0 -65.5 27.5t-27.5 65.5t27.5 65.5t65.5 27.5zM515 935q39 0 66 -27.5t27 -65.5t-27 -65.5t-66 -27.5q-38 0 -65.5 27.5t-27.5 65.5t27.5 65.5t65.5 27.5z" />
    <glyph glyph-name="multiply" unicode="&#xd7;" horiz-adv-x="316" 
d="M306 430l-102 -102l102 -102l-46 -46l-102 102l-102 -102l-46 46l102 102l-102 102l46 46l102 -102l102 102z" />
    <glyph glyph-name="Oslash" unicode="&#xd8;" horiz-adv-x="823" 
d="M649 645q78 -45 121 -120.5t43 -176.5q0 -164 -112 -259.5t-289 -95.5q-127 0 -224 51l-33 -44h-22l40 52q-77 45 -120 121t-43 175q0 165 112.5 260t289.5 95q126 0 221 -49l36 46h22zM285 350q0 -82 6 -144l239 313q-11 89 -39.5 131t-78.5 42q-68 0 -97.5 -81
t-29.5 -261zM412 5q68 0 97.5 82.5t29.5 262.5q0 82 -6 144l-239 -312q22 -177 118 -177z" />
    <glyph glyph-name="Ugrave" unicode="&#xd9;" horiz-adv-x="780" 
d="M596 700h174v-13q-80 -22 -80 -157v-231q0 -140 -73.5 -223t-215.5 -83q-149 0 -238 80t-89 226v388h-64v13h384v-13h-65v-388q0 -112 45.5 -168t129.5 -56q77 0 125 59t48 165v231q0 74 -20.5 110.5t-60.5 46.5v13zM465 903q21 -21 38.5 -57.5t24.5 -63.5l7 -26l-7 -7
q-100 22 -147 70q-54 52 -11 95q42 42 95 -11z" />
    <glyph glyph-name="Uacute" unicode="&#xda;" horiz-adv-x="780" 
d="M596 700h174v-13q-80 -22 -80 -157v-231q0 -140 -73.5 -223t-215.5 -83q-149 0 -238 80t-89 226v388h-64v13h384v-13h-65v-388q0 -112 45.5 -168t129.5 -56q77 0 125 59t48 165v231q0 74 -20.5 110.5t-60.5 46.5v13zM490 914q41 -43 -11 -95q-21 -21 -57.5 -38.5
t-63.5 -24.5l-26 -7l-7 7q22 100 69 147q53 52 96 11z" />
    <glyph glyph-name="Ucircumflex" unicode="&#xdb;" horiz-adv-x="780" 
d="M596 700h174v-13q-80 -22 -80 -157v-231q0 -140 -73.5 -223t-215.5 -83q-149 0 -238 80t-89 226v388h-64v13h384v-13h-65v-388q0 -112 45.5 -168t129.5 -56q77 0 125 59t48 165v231q0 74 -20.5 110.5t-60.5 46.5v13zM525 919l119 -147l-7 -7l-167 57l-167 -57l-7 7
l119 147h110z" />
    <glyph glyph-name="Udieresis" unicode="&#xdc;" horiz-adv-x="780" 
d="M596 700h174v-13q-80 -22 -80 -157v-231q0 -140 -73.5 -223t-215.5 -83q-149 0 -238 80t-89 226v388h-64v13h384v-13h-65v-388q0 -112 45.5 -168t129.5 -56q77 0 125 59t48 165v231q0 74 -20.5 110.5t-60.5 46.5v13zM376 935q39 0 66 -27.5t27 -65.5t-27 -65.5t-66 -27.5
q-38 0 -65.5 27.5t-27.5 65.5t27.5 65.5t65.5 27.5zM584 935q39 0 66 -27.5t27 -65.5t-27 -65.5t-66 -27.5q-38 0 -65.5 27.5t-27.5 65.5t27.5 65.5t65.5 27.5z" />
    <glyph glyph-name="Yacute" unicode="&#xdd;" horiz-adv-x="770" 
d="M509 700h266v-13q-96 -28 -163 -176l-97 -215v-283h64v-13h-384v13h65v285l-202 389h-63v13h401v-13h-67l178 -369l88 191q33 77 6.5 125t-92.5 53v13zM495 914q41 -43 -11 -95q-21 -21 -57.5 -38.5t-62.5 -24.5l-27 -7l-7 7q22 100 69 147q53 52 96 11z" />
    <glyph glyph-name="Thorn" unicode="&#xde;" horiz-adv-x="701" 
d="M396 572q295 0 295 -222t-295 -222h-67v-115h65v-13h-384v13h64v674h-64v13h384v-13h-65v-115h67zM344 149q111 0 111 201t-111 201h-15v-402h15z" />
    <glyph glyph-name="germandbls" unicode="&#xdf;" horiz-adv-x="813" 
d="M476 471q-28 -12 8 -30q13 -7 56 -23q139 -56 195 -104q68 -57 68 -128q0 -55 -24.5 -95t-63.5 -60t-75.5 -29t-71.5 -9q-95 0 -222 34v199h17q130 -212 203 -221q33 -5 51 12.5t18 53.5q0 29 -27.5 64t-62.5 64.5t-68 71t-44.5 84t9.5 103.5q29 73 35 130.5t-15.5 92.5
t-70.5 35q-87 0 -87 -125v-591h-294v13h56v501h-56v13h56q0 58 29 100t77.5 63t97.5 30t103 9q61 0 107 -14.5t69.5 -37t31 -51.5t-2 -57.5t-36 -54.5t-66.5 -43z" />
    <glyph glyph-name="agrave" unicode="&#xe0;" horiz-adv-x="630" 
d="M637 89l13 -11q-17 -31 -58.5 -58t-98.5 -27q-133 0 -152 79q-54 -79 -145 -79q-77 0 -131.5 39.5t-54.5 118.5q0 28 6.5 51.5t16 40.5t26.5 30.5t32 22.5t39 15.5t41 9.5t44.5 5.5t42.5 3t42.5 1t37.5 0.5v96q0 19 -0.5 29t-2.5 25.5t-6 24t-12 15t-20 6.5
q-25 0 -72 -48t-129 -156h-12v181q119 36 224 36q52 0 96.5 -8.5t85 -27.5t63.5 -55t23 -86v-221q0 -49 6.5 -64t21.5 -15q13 0 33 26zM231 181q0 -66 29.5 -96t77.5 3v14v217q-60 3 -83.5 -29.5t-23.5 -108.5zM355 753q21 -21 38.5 -57.5t24.5 -63.5l7 -26l-7 -7
q-100 22 -147 70q-54 52 -11 95q42 42 95 -11z" />
    <glyph glyph-name="aacute" unicode="&#xe1;" horiz-adv-x="630" 
d="M637 89l13 -11q-17 -31 -58.5 -58t-98.5 -27q-133 0 -152 79q-54 -79 -145 -79q-77 0 -131.5 39.5t-54.5 118.5q0 28 6.5 51.5t16 40.5t26.5 30.5t32 22.5t39 15.5t41 9.5t44.5 5.5t42.5 3t42.5 1t37.5 0.5v96q0 19 -0.5 29t-2.5 25.5t-6 24t-12 15t-20 6.5
q-25 0 -72 -48t-129 -156h-12v181q119 36 224 36q52 0 96.5 -8.5t85 -27.5t63.5 -55t23 -86v-221q0 -49 6.5 -64t21.5 -15q13 0 33 26zM231 181q0 -66 29.5 -96t77.5 3v14v217q-60 3 -83.5 -29.5t-23.5 -108.5zM420 764q41 -43 -11 -95q-21 -21 -57.5 -38.5t-63.5 -24.5
l-26 -7l-7 7q22 100 69 147q53 52 96 11z" />
    <glyph glyph-name="acircumflex" unicode="&#xe2;" horiz-adv-x="630" 
d="M637 89l13 -11q-17 -31 -58.5 -58t-98.5 -27q-133 0 -152 79q-54 -79 -145 -79q-77 0 -131.5 39.5t-54.5 118.5q0 28 6.5 51.5t16 40.5t26.5 30.5t32 22.5t39 15.5t41 9.5t44.5 5.5t42.5 3t42.5 1t37.5 0.5v96q0 19 -0.5 29t-2.5 25.5t-6 24t-12 15t-20 6.5
q-25 0 -72 -48t-129 -156h-12v181q119 36 224 36q52 0 96.5 -8.5t85 -27.5t63.5 -55t23 -86v-221q0 -49 6.5 -64t21.5 -15q13 0 33 26zM231 181q0 -66 29.5 -96t77.5 3v14v217q-60 3 -83.5 -29.5t-23.5 -108.5zM385 769l119 -147l-7 -7l-167 57l-167 -57l-7 7l119 147h110z
" />
    <glyph glyph-name="atilde" unicode="&#xe3;" horiz-adv-x="630" 
d="M637 89l13 -11q-17 -31 -58.5 -58t-98.5 -27q-133 0 -152 79q-54 -79 -145 -79q-77 0 -131.5 39.5t-54.5 118.5q0 28 6.5 51.5t16 40.5t26.5 30.5t32 22.5t39 15.5t41 9.5t44.5 5.5t42.5 3t42.5 1t37.5 0.5v96q0 19 -0.5 29t-2.5 25.5t-6 24t-12 15t-20 6.5
q-25 0 -72 -48t-129 -156h-12v181q119 36 224 36q52 0 96.5 -8.5t85 -27.5t63.5 -55t23 -86v-221q0 -49 6.5 -64t21.5 -15q13 0 33 26zM231 181q0 -66 29.5 -96t77.5 3v14v217q-60 3 -83.5 -29.5t-23.5 -108.5zM388 630q-9 0 -17 1t-16.5 4l-14.5 5t-15.5 7l-13.5 7
t-15.5 8.5t-14.5 8.5q-39 20 -62 9.5t-30 -41.5h-8q2 77 26.5 109.5t71.5 30.5q26 -2 70.5 -26t50.5 -26q56 -21 70 33h8q-5 -130 -90 -130z" />
    <glyph glyph-name="adieresis" unicode="&#xe4;" horiz-adv-x="630" 
d="M637 89l13 -11q-17 -31 -58.5 -58t-98.5 -27q-133 0 -152 79q-54 -79 -145 -79q-77 0 -131.5 39.5t-54.5 118.5q0 28 6.5 51.5t16 40.5t26.5 30.5t32 22.5t39 15.5t41 9.5t44.5 5.5t42.5 3t42.5 1t37.5 0.5v96q0 19 -0.5 29t-2.5 25.5t-6 24t-12 15t-20 6.5
q-25 0 -72 -48t-129 -156h-12v181q119 36 224 36q52 0 96.5 -8.5t85 -27.5t63.5 -55t23 -86v-221q0 -49 6.5 -64t21.5 -15q13 0 33 26zM231 181q0 -66 29.5 -96t77.5 3v14v217q-60 3 -83.5 -29.5t-23.5 -108.5zM226 785q39 0 66 -27.5t27 -65.5t-27 -65.5t-66 -27.5
q-38 0 -65.5 27.5t-27.5 65.5t27.5 65.5t65.5 27.5zM434 785q39 0 66 -27.5t27 -65.5t-27 -65.5t-66 -27.5q-38 0 -65.5 27.5t-27.5 65.5t27.5 65.5t65.5 27.5z" />
    <glyph glyph-name="aring" unicode="&#xe5;" horiz-adv-x="630" 
d="M637 89l13 -11q-17 -31 -58.5 -58t-98.5 -27q-133 0 -152 79q-54 -79 -145 -79q-77 0 -131.5 39.5t-54.5 118.5q0 28 6.5 51.5t16 40.5t26.5 30.5t32 22.5t39 15.5t41 9.5t44.5 5.5t42.5 3t42.5 1t37.5 0.5v96q0 19 -0.5 29t-2.5 25.5t-6 24t-12 15t-20 6.5
q-25 0 -72 -48t-129 -156h-12v181q119 36 224 36q52 0 96.5 -8.5t85 -27.5t63.5 -55t23 -86v-221q0 -49 6.5 -64t21.5 -15q13 0 33 26zM231 181q0 -66 29.5 -96t77.5 3v14v217q-60 3 -83.5 -29.5t-23.5 -108.5zM330 578q-47 0 -80.5 33.5t-33.5 80.5t33.5 80.5t80.5 33.5
t80.5 -33.5t33.5 -80.5t-33.5 -80.5t-80.5 -33.5zM330 749q-23 0 -40 -17t-17 -40t17 -40t40 -17t39.5 17t16.5 40t-16.5 40t-39.5 17z" />
    <glyph glyph-name="ae" unicode="&#xe6;" horiz-adv-x="919" 
d="M649 540q128 0 197.5 -68.5t61.5 -205.5h-314q8 -96 49.5 -150.5t113.5 -56.5q43 -1 70.5 16t51.5 46l13 -10q-28 -47 -85.5 -82.5t-144.5 -35.5q-75 0 -140 22t-115 71.5t-64 120.5q-2 -29 -5 -51t-13.5 -55t-26 -54.5t-45 -37.5t-68.5 -16q-75 0 -125 39t-50 118
q0 28 6.5 51.5t16 40.5t26.5 31t32 22.5t39 15.5t41 10t44.5 5.5t42.5 3t42.5 1t37.5 0.5v95q0 24 -1 36.5t-4 30t-12 26t-23 8.5q-25 0 -72.5 -48t-129.5 -157h-12v181q117 37 224 37q101 0 176 -36q76 36 165 36zM231 181q-1 -52 30 -73q29 -20 52 17q26 42 25 141v53
q-59 3 -83 -30t-24 -108zM696 287q4 114 -5.5 177t-41.5 63q-31 0 -47 -68t-9 -172h103z" />
    <glyph glyph-name="ccedilla" unicode="&#xe7;" horiz-adv-x="581" 
d="M341 -7q-3 0 -10 0.5t-11 0.5l-9 -35q80 13 133.5 -19.5t39.5 -99.5q-13 -61 -90 -87.5t-171 7.5l3 12q52 -6 91 22t50 68q11 43 -8.5 66.5t-63.5 18.5l13 47q-80 6 -145 34.5t-109 90t-44 148.5q0 70 28.5 124t77.5 85.5t108.5 47.5t127.5 16q88 0 207 -44v-206h-15
q-81 155 -110 192q-35 45 -70 45q-50 0 -77 -75.5t-19 -184.5q7 -93 52 -149t112 -58q75 -2 126 62l13 -11q-73 -118 -230 -118z" />
    <glyph glyph-name="egrave" unicode="&#xe8;" horiz-adv-x="592" 
d="M321 539q128 0 197.5 -68t62.5 -205h-315q8 -95 49.5 -150t114.5 -57q69 -1 121 63l13 -11q-28 -47 -85 -82.5t-144 -35.5q-86 0 -157 27.5t-119.5 91t-48.5 154.5q0 68 27 122t72.5 86t99.5 48.5t112 16.5zM368 288q4 114 -5.5 176.5t-41.5 62.5q-31 0 -47 -68t-9 -171
h103zM317 753q21 -21 38.5 -57.5t24.5 -63.5l7 -26l-7 -7q-100 22 -147 70q-54 52 -11 95q42 42 95 -11z" />
    <glyph glyph-name="eacute" unicode="&#xe9;" horiz-adv-x="592" 
d="M321 539q128 0 197.5 -68t62.5 -205h-315q8 -95 49.5 -150t114.5 -57q69 -1 121 63l13 -11q-28 -47 -85 -82.5t-144 -35.5q-86 0 -157 27.5t-119.5 91t-48.5 154.5q0 68 27 122t72.5 86t99.5 48.5t112 16.5zM368 288q4 114 -5.5 176.5t-41.5 62.5q-31 0 -47 -68t-9 -171
h103zM362 764q41 -43 -11 -95q-21 -21 -57.5 -38.5t-63.5 -24.5l-26 -7l-7 7q22 100 69 147q53 52 96 11z" />
    <glyph glyph-name="ecircumflex" unicode="&#xea;" horiz-adv-x="592" 
d="M321 539q128 0 197.5 -68t62.5 -205h-315q8 -95 49.5 -150t114.5 -57q69 -1 121 63l13 -11q-28 -47 -85 -82.5t-144 -35.5q-86 0 -157 27.5t-119.5 91t-48.5 154.5q0 68 27 122t72.5 86t99.5 48.5t112 16.5zM368 288q4 114 -5.5 176.5t-41.5 62.5q-31 0 -47 -68t-9 -171
h103zM367 769l119 -147l-7 -7l-167 57l-167 -57l-7 7l119 147h110z" />
    <glyph glyph-name="edieresis" unicode="&#xeb;" horiz-adv-x="592" 
d="M321 539q128 0 197.5 -68t62.5 -205h-315q8 -95 49.5 -150t114.5 -57q69 -1 121 63l13 -11q-28 -47 -85 -82.5t-144 -35.5q-86 0 -157 27.5t-119.5 91t-48.5 154.5q0 68 27 122t72.5 86t99.5 48.5t112 16.5zM368 288q4 114 -5.5 176.5t-41.5 62.5q-31 0 -47 -68t-9 -171
h103zM208 785q39 0 66 -27.5t27 -65.5t-27 -65.5t-66 -27.5q-38 0 -65.5 27.5t-27.5 65.5t27.5 65.5t65.5 27.5zM416 785q39 0 66 -27.5t27 -65.5t-27 -65.5t-66 -27.5q-38 0 -65.5 27.5t-27.5 65.5t27.5 65.5t65.5 27.5z" />
    <glyph glyph-name="igrave" unicode="&#xec;" 
d="M304 13h57v-13h-351v13h56v501h-56v13h294v-514zM191 753q21 -21 38.5 -57.5t24.5 -63.5l7 -26l-7 -7q-100 22 -147 70q-54 52 -11 95q42 42 95 -11z" />
    <glyph glyph-name="iacute" unicode="&#xed;" 
d="M304 13h57v-13h-351v13h56v501h-56v13h294v-514zM255 764q41 -43 -11 -95q-21 -21 -57.5 -38.5t-62.5 -24.5l-27 -7l-7 7q22 100 69 147q53 52 96 11z" />
    <glyph glyph-name="icircumflex" unicode="&#xee;" 
d="M309 13h57v-13h-351v13h56v501h-56v13h294v-514zM235 769l119 -147l-7 -7l-167 57l-167 -57l-7 7l119 147h110z" />
    <glyph glyph-name="idieresis" unicode="&#xef;" 
d="M303 13h57v-13h-351v13h56v501h-56v13h294v-514zM81 785q39 0 66 -27.5t27 -65.5t-27 -65.5t-66 -27.5q-38 0 -65.5 27.5t-27.5 65.5t27.5 65.5t65.5 27.5zM289 785q39 0 66 -27.5t27 -65.5t-27 -65.5t-66 -27.5q-38 0 -65.5 27.5t-27.5 65.5t27.5 65.5t65.5 27.5z" />
    <glyph glyph-name="eth" unicode="&#xf0;" horiz-adv-x="650" 
d="M436 680q94 -54 151 -146.5t52 -219.5q-5 -146 -94.5 -233.5t-216.5 -87.5q-134 0 -226 69t-92 204q0 138 88 206t230 68q31 0 60 -13q-5 69 -39 117l-130 -54l-7 16l126 52q-36 45 -100 71l6 12q87 -5 173 -50l120 50l6 -16zM328 5q44 0 59 67.5t15 193.5q0 127 -15 194
t-59 67q-23 0 -38.5 -19t-23 -58t-10 -81t-2.5 -103q0 -127 14.5 -194t59.5 -67z" />
    <glyph glyph-name="ntilde" unicode="&#xf1;" horiz-adv-x="751" 
d="M741 13v-13h-351v13h56v354q0 48 -13.5 70.5t-47.5 19.5q-36 -3 -58.5 -46t-22.5 -87v-311h57v-13h-351v13h56v501h-56v13h294v-144q47 157 194 157q93 0 139.5 -51.5t46.5 -130.5v-345h57zM434 630q-9 0 -17 1t-16.5 4l-14.5 5t-15.5 7l-13.5 7t-15.5 8.5t-14.5 8.5
q-39 20 -62 9.5t-30 -41.5h-8q2 77 26.5 109.5t71.5 30.5q26 -2 70.5 -26t50.5 -26q56 -21 70 33h8q-5 -130 -90 -130z" />
    <glyph glyph-name="ograve" unicode="&#xf2;" horiz-adv-x="655" 
d="M328 540q63 0 118.5 -16t100.5 -48t71.5 -86t26.5 -124t-26.5 -123.5t-71.5 -85.5t-100.5 -48t-118.5 -16q-64 0 -119.5 16t-100.5 48t-71.5 85.5t-26.5 123.5t26.5 124t71.5 86t101 48t119 16zM328 5q44 0 59 67.5t15 193.5q0 127 -15 194t-59 67q-45 0 -60 -67
t-15 -194q0 -126 15 -193.5t60 -67.5zM363 753q21 -21 38.5 -57.5t24.5 -63.5l7 -26l-7 -7q-100 22 -147 70q-54 52 -11 95q42 42 95 -11z" />
    <glyph glyph-name="oacute" unicode="&#xf3;" horiz-adv-x="655" 
d="M328 540q63 0 118.5 -16t100.5 -48t71.5 -86t26.5 -124t-26.5 -123.5t-71.5 -85.5t-100.5 -48t-118.5 -16q-64 0 -119.5 16t-100.5 48t-71.5 85.5t-26.5 123.5t26.5 124t71.5 86t101 48t119 16zM328 5q44 0 59 67.5t15 193.5q0 127 -15 194t-59 67q-45 0 -60 -67
t-15 -194q0 -126 15 -193.5t60 -67.5zM397 764q41 -43 -11 -95q-21 -21 -57.5 -38.5t-62.5 -24.5l-27 -7l-7 7q22 100 69 147q53 52 96 11z" />
    <glyph glyph-name="ocircumflex" unicode="&#xf4;" horiz-adv-x="655" 
d="M328 540q63 0 118.5 -16t100.5 -48t71.5 -86t26.5 -124t-26.5 -123.5t-71.5 -85.5t-100.5 -48t-118.5 -16q-64 0 -119.5 16t-100.5 48t-71.5 85.5t-26.5 123.5t26.5 124t71.5 86t101 48t119 16zM328 5q44 0 59 67.5t15 193.5q0 127 -15 194t-59 67q-45 0 -60 -67
t-15 -194q0 -126 15 -193.5t60 -67.5zM382 769l119 -147l-7 -7l-167 57l-167 -57l-7 7l119 147h110z" />
    <glyph glyph-name="otilde" unicode="&#xf5;" horiz-adv-x="655" 
d="M328 540q63 0 118.5 -16t100.5 -48t71.5 -86t26.5 -124t-26.5 -123.5t-71.5 -85.5t-100.5 -48t-118.5 -16q-64 0 -119.5 16t-100.5 48t-71.5 85.5t-26.5 123.5t26.5 124t71.5 86t101 48t119 16zM328 5q44 0 59 67.5t15 193.5q0 127 -15 194t-59 67q-45 0 -60 -67
t-15 -194q0 -126 15 -193.5t60 -67.5zM386 630q-9 0 -17 1t-16.5 4l-14.5 5t-15.5 7l-13.5 7t-15.5 8.5t-14.5 8.5q-39 20 -62 9.5t-30 -41.5h-8q2 77 26.5 109.5t71.5 30.5q26 -2 70.5 -26t50.5 -26q56 -21 70 33h8q-5 -130 -90 -130z" />
    <glyph glyph-name="odieresis" unicode="&#xf6;" horiz-adv-x="655" 
d="M328 540q63 0 118.5 -16t100.5 -48t71.5 -86t26.5 -124t-26.5 -123.5t-71.5 -85.5t-100.5 -48t-118.5 -16q-64 0 -119.5 16t-100.5 48t-71.5 85.5t-26.5 123.5t26.5 124t71.5 86t101 48t119 16zM328 5q44 0 59 67.5t15 193.5q0 127 -15 194t-59 67q-45 0 -60 -67
t-15 -194q0 -126 15 -193.5t60 -67.5zM223 785q39 0 66 -27.5t27 -65.5t-27 -65.5t-66 -27.5q-38 0 -65.5 27.5t-27.5 65.5t27.5 65.5t65.5 27.5zM431 785q39 0 66 -27.5t27 -65.5t-27 -65.5t-66 -27.5q-38 0 -65.5 27.5t-27.5 65.5t27.5 65.5t65.5 27.5z" />
    <glyph glyph-name="divide" unicode="&#xf7;" horiz-adv-x="374" 
d="M10 361h354v-65h-354v65zM187 399q-45 0 -76.5 31.5t-31.5 76.5t31.5 76.5t76.5 31.5t76.5 -31.5t31.5 -76.5t-31.5 -76.5t-76.5 -31.5zM187 258q45 0 76.5 -31.5t31.5 -76.5t-31.5 -76.5t-76.5 -31.5t-76.5 31.5t-31.5 76.5t31.5 76.5t76.5 31.5z" />
    <glyph glyph-name="oslash" unicode="&#xf8;" horiz-adv-x="655" 
d="M551 473q94 -73 94 -207q0 -92 -46.5 -155.5t-116 -90.5t-155.5 -27q-123 0 -208 56l-49 -49h-22l59 58q-97 72 -97 208q0 70 26.5 124t71.5 86t100.5 48t118.5 16q127 0 211 -58l46 45h22zM253 266q0 -43 1 -64l146 144q-7 181 -73 181q-44 0 -59 -67t-15 -194zM327 5
q45 0 59.5 67t14.5 194v59l-146 -143q7 -177 72 -177z" />
    <glyph glyph-name="ugrave" unicode="&#xf9;" horiz-adv-x="746" 
d="M679 13h57v-13h-295v145q-45 -152 -193 -152q-94 0 -140.5 49t-46.5 127v345h-56v13h294v-367q0 -48 14 -70t48 -20q35 3 57.5 46t22.5 87v311h-56v13h294v-514zM376 753q21 -21 38.5 -57.5t24.5 -63.5l7 -26l-7 -7q-100 22 -147 70q-54 52 -11 95q42 42 95 -11z" />
    <glyph glyph-name="uacute" unicode="&#xfa;" horiz-adv-x="746" 
d="M679 13h57v-13h-295v145q-45 -152 -193 -152q-94 0 -140.5 49t-46.5 127v345h-56v13h294v-367q0 -48 14 -70t48 -20q35 3 57.5 46t22.5 87v311h-56v13h294v-514zM450 764q41 -43 -11 -95q-21 -21 -57.5 -38.5t-63.5 -24.5l-26 -7l-7 7q22 100 69 147q53 52 96 11z" />
    <glyph glyph-name="ucircumflex" unicode="&#xfb;" horiz-adv-x="746" 
d="M679 13h57v-13h-295v145q-45 -152 -193 -152q-94 0 -140.5 49t-46.5 127v345h-56v13h294v-367q0 -48 14 -70t48 -20q35 3 57.5 46t22.5 87v311h-56v13h294v-514zM425 769l119 -147l-7 -7l-167 57l-167 -57l-7 7l119 147h110z" />
    <glyph glyph-name="udieresis" unicode="&#xfc;" horiz-adv-x="746" 
d="M679 13h57v-13h-295v145q-45 -152 -193 -152q-94 0 -140.5 49t-46.5 127v345h-56v13h294v-367q0 -48 14 -70t48 -20q35 3 57.5 46t22.5 87v311h-56v13h294v-514zM266 785q39 0 66 -27.5t27 -65.5t-27 -65.5t-66 -27.5q-38 0 -65.5 27.5t-27.5 65.5t27.5 65.5t65.5 27.5z
M474 785q39 0 66 -27.5t27 -65.5t-27 -65.5t-66 -27.5q-38 0 -65.5 27.5t-27.5 65.5t27.5 65.5t65.5 27.5z" />
    <glyph glyph-name="yacute" unicode="&#xfd;" horiz-adv-x="683" 
d="M436 527h252v-13q-86 -26 -161 -196l-137 -311l-161 -331l-161 157v13l258 101l-268 567h-63v13h384v-13h-68l141 -337q62 141 62 142q33 81 10 133t-88 62v13zM461 764q41 -43 -11 -95q-21 -21 -57.5 -38.5t-62.5 -24.5l-27 -7l-7 7q22 100 69 147q53 52 96 11z" />
    <glyph glyph-name="thorn" unicode="&#xfe;" horiz-adv-x="710" 
d="M470 540q94 0 162 -71.5t68 -202.5q0 -130 -68 -201.5t-162 -71.5q-58 0 -100.5 30.5t-65.5 78.5v-256h73v-13h-367v13h56v841h-56v13h294v-269q23 48 65.5 78.5t100.5 30.5zM355 85q51 -7 75 46t24 135q0 83 -24 136t-75 46q-31 -4 -51 -44v-275q20 -40 51 -44z" />
    <glyph glyph-name="ydieresis" unicode="&#xff;" horiz-adv-x="683" 
d="M436 527h252v-13q-86 -26 -161 -196l-137 -311l-161 -331l-161 157v13l258 101l-268 567h-63v13h384v-13h-68l141 -337q62 141 62 142q33 81 10 133t-88 62v13zM301 785q39 0 66 -27.5t27 -65.5t-27 -65.5t-66 -27.5q-38 0 -65.5 27.5t-27.5 65.5t27.5 65.5t65.5 27.5z
M509 785q39 0 66 -27.5t27 -65.5t-27 -65.5t-66 -27.5q-38 0 -65.5 27.5t-27.5 65.5t27.5 65.5t65.5 27.5z" />
    <glyph glyph-name="Amacron" unicode="&#x100;" horiz-adv-x="797" 
d="M737 13h65v-13h-401v13h57l-101 205h-202l-24 -60q-21 -56 -1.5 -96t65.5 -49v-13h-200v13q31 9 65.5 49t57.5 97l217 541h47zM160 231h191l-106 214zM198 845h321v-65h-321v65z" />
    <glyph glyph-name="amacron" unicode="&#x101;" horiz-adv-x="630" 
d="M637 89l13 -11q-17 -31 -58.5 -58t-98.5 -27q-133 0 -152 79q-54 -79 -145 -79q-77 0 -131.5 39.5t-54.5 118.5q0 28 6.5 51.5t16 40.5t26.5 30.5t32 22.5t39 15.5t41 9.5t44.5 5.5t42.5 3t42.5 1t37.5 0.5v96q0 19 -0.5 29t-2.5 25.5t-6 24t-12 15t-20 6.5
q-25 0 -72 -48t-129 -156h-12v181q119 36 224 36q52 0 96.5 -8.5t85 -27.5t63.5 -55t23 -86v-221q0 -49 6.5 -64t21.5 -15q13 0 33 26zM231 181q0 -66 29.5 -96t77.5 3v14v217q-60 3 -83.5 -29.5t-23.5 -108.5zM169 695h321v-65h-321v65z" />
    <glyph glyph-name="Abreve" unicode="&#x102;" horiz-adv-x="797" 
d="M737 13h65v-13h-401v13h57l-101 205h-202l-24 -60q-21 -56 -1.5 -96t65.5 -49v-13h-200v13q31 9 65.5 49t57.5 97l217 541h47zM160 231h191l-106 214zM485 919h12q0 -74 -36.5 -116.5t-102.5 -42.5t-102.5 42.5t-36.5 116.5h11q9 -31 43.5 -48.5t84.5 -17.5q49 0 84 17.5
t43 48.5z" />
    <glyph glyph-name="abreve" unicode="&#x103;" horiz-adv-x="630" 
d="M637 89l13 -11q-17 -31 -58.5 -58t-98.5 -27q-133 0 -152 79q-54 -79 -145 -79q-77 0 -131.5 39.5t-54.5 118.5q0 28 6.5 51.5t16 40.5t26.5 30.5t32 22.5t39 15.5t41 9.5t44.5 5.5t42.5 3t42.5 1t37.5 0.5v96q0 19 -0.5 29t-2.5 25.5t-6 24t-12 15t-20 6.5
q-25 0 -72 -48t-129 -156h-12v181q119 36 224 36q52 0 96.5 -8.5t85 -27.5t63.5 -55t23 -86v-221q0 -49 6.5 -64t21.5 -15q13 0 33 26zM231 181q0 -66 29.5 -96t77.5 3v14v217q-60 3 -83.5 -29.5t-23.5 -108.5zM457 769h12q0 -74 -36.5 -116.5t-102.5 -42.5t-102.5 42.5
t-36.5 116.5h11q9 -31 43.5 -48.5t84.5 -17.5q49 0 84 17.5t43 48.5z" />
    <glyph glyph-name="Aogonek" unicode="&#x104;" horiz-adv-x="797" 
d="M802 0h-132q-45 -99 -8 -150q20 -27 57 -31.5t75 16.5l8 -8q-44 -69 -122.5 -83.5t-111.5 37.5q-31 48 4 118t83 101h-254v13h58l-101 205h-203l-24 -60q-21 -56 -1.5 -96t65.5 -49v-13h-200v13q31 9 65.5 49t57.5 97l217 541h47l356 -687h64v-13zM160 231h191l-105 213z
" />
    <glyph glyph-name="aogonek" unicode="&#x105;" horiz-adv-x="630" 
d="M511 -150q20 -27 56.5 -31.5t75.5 16.5l7 -8q-44 -69 -122.5 -83.5t-111.5 37.5q-29 44 1 109.5t77 102.5h-1q-133 0 -152 79q-52 -79 -145 -79q-76 0 -131 39.5t-55 118.5q0 28 6.5 51.5t16 40.5t26.5 30.5t32.5 22.5t39.5 15.5t41 9.5t44 5.5t42.5 3t42.5 1t37 0.5v96
q0 23 -1 35.5t-4 30t-12 26t-23 8.5q-25 0 -72.5 -48t-129.5 -156h-12v181q119 36 224 36q52 0 96.5 -8.5t85 -27.5t63.5 -55t23 -86v-221q0 -49 6.5 -64t21.5 -15t33 26l13 -12q-14 -27 -49.5 -52t-83.5 -30q-42 -95 -6 -145zM231 181q0 -66 29.5 -96t77.5 3v13v218
q-59 3 -83 -29.5t-24 -108.5z" />
    <glyph glyph-name="Cacute" unicode="&#x106;" horiz-adv-x="728" 
d="M704 159l14 -12q-37 -61 -111.5 -107.5t-184.5 -46.5q-65 0 -124 12.5t-112 40t-92 68t-61.5 100.5t-22.5 134q0 91 37 161.5t99 111.5t135 61.5t153 20.5q117 0 269 -57v-267h-17l-49 93.5l-41 73t-40 63.5t-34 40.5t-37 30t-35 7.5q-77 0 -126.5 -96.5t-35.5 -242.5
q11 -118 78.5 -192t155.5 -76q115 -2 182 79zM454 914q41 -43 -11 -95q-21 -21 -57.5 -38.5t-63.5 -24.5l-26 -7l-7 7q22 100 69 147q53 52 96 11z" />
    <glyph glyph-name="cacute" unicode="&#x107;" horiz-adv-x="581" 
d="M558 122l13 -11q-29 -47 -85 -82.5t-139 -35.5q-64 0 -122 15.5t-107 47t-78.5 86t-29.5 124.5t28.5 124t77.5 85.5t108.5 47.5t127.5 16q92 0 208 -44v-205h-15q-81 153 -107 187q-37 50 -73 50q-50 0 -77.5 -76t-19.5 -185q7 -92 52.5 -148.5t112.5 -58.5q74 -1 125 63
zM376 764q41 -43 -11 -95q-21 -21 -57.5 -38.5t-63.5 -24.5l-26 -7l-7 7q22 100 69 147q53 52 96 11z" />
    <glyph glyph-name="Ccircumflex" unicode="&#x108;" horiz-adv-x="728" 
d="M704 159l14 -12q-37 -61 -111.5 -107.5t-184.5 -46.5q-65 0 -124 12.5t-112 40t-92 68t-61.5 100.5t-22.5 134q0 91 37 161.5t99 111.5t135 61.5t153 20.5q117 0 269 -57v-267h-17l-49 93.5l-41 73t-40 63.5t-34 40.5t-37 30t-35 7.5q-77 0 -126.5 -96.5t-35.5 -242.5
q11 -118 78.5 -192t155.5 -76q115 -2 182 79zM489 919l119 -147l-7 -7l-167 57l-167 -57l-7 7l119 147h110z" />
    <glyph glyph-name="ccircumflex" unicode="&#x109;" horiz-adv-x="581" 
d="M558 122l13 -11q-29 -47 -85 -82.5t-139 -35.5q-64 0 -122 15.5t-107 47t-78.5 86t-29.5 124.5t28.5 124t77.5 85.5t108.5 47.5t127.5 16q92 0 208 -44v-205h-15q-81 153 -107 187q-37 50 -73 50q-50 0 -77.5 -76t-19.5 -185q7 -92 52.5 -148.5t112.5 -58.5q74 -1 125 63
zM391 769l119 -147l-7 -7l-167 57l-167 -57l-7 7l119 147h110z" />
    <glyph glyph-name="Cdotaccent" unicode="&#x10a;" horiz-adv-x="728" 
d="M704 159l14 -12q-37 -61 -111.5 -107.5t-184.5 -46.5q-65 0 -124 12.5t-112 40t-92 68t-61.5 100.5t-22.5 134q0 91 37 161.5t99 111.5t135 61.5t153 20.5q117 0 269 -57v-267h-17l-49 93.5l-41 73t-40 63.5t-34 40.5t-37 30t-35 7.5q-77 0 -126.5 -96.5t-35.5 -242.5
q11 -118 78.5 -192t155.5 -76q115 -2 182 79zM434 935q39 0 66 -27.5t27 -65.5t-27 -65.5t-66 -27.5q-38 0 -65.5 27.5t-27.5 65.5t27.5 65.5t65.5 27.5z" />
    <glyph glyph-name="cdotaccent" unicode="&#x10b;" horiz-adv-x="581" 
d="M558 122l13 -11q-29 -47 -85 -82.5t-139 -35.5q-64 0 -122 15.5t-107 47t-78.5 86t-29.5 124.5t28.5 124t77.5 85.5t108.5 47.5t127.5 16q92 0 208 -44v-205h-15q-81 153 -107 187q-37 50 -73 50q-50 0 -77.5 -76t-19.5 -185q7 -92 52.5 -148.5t112.5 -58.5q74 -1 125 63
zM346 785q39 0 66 -27.5t27 -65.5t-27 -65.5t-66 -27.5q-38 0 -65.5 27.5t-27.5 65.5t27.5 65.5t65.5 27.5z" />
    <glyph glyph-name="Ccaron" unicode="&#x10c;" horiz-adv-x="728" 
d="M704 159l14 -12q-37 -61 -111.5 -107.5t-184.5 -46.5q-65 0 -124 12.5t-112 40t-92 68t-61.5 100.5t-22.5 134q0 91 37 161.5t99 111.5t135 61.5t153 20.5q117 0 269 -57v-267h-17l-49 93.5l-41 73t-40 63.5t-34 40.5t-37 30t-35 7.5q-77 0 -126.5 -96.5t-35.5 -242.5
q11 -118 78.5 -192t155.5 -76q115 -2 182 79zM601 919l7 -6l-119 -148h-111l-119 148l7 6l167 -56z" />
    <glyph glyph-name="ccaron" unicode="&#x10d;" horiz-adv-x="581" 
d="M558 122l13 -11q-29 -47 -85 -82.5t-139 -35.5q-64 0 -122 15.5t-107 47t-78.5 86t-29.5 124.5t28.5 124t77.5 85.5t108.5 47.5t127.5 16q92 0 208 -44v-205h-15q-81 153 -107 187q-37 50 -73 50q-50 0 -77.5 -76t-19.5 -185q7 -92 52.5 -148.5t112.5 -58.5q74 -1 125 63
zM514 769l7 -6l-119 -148h-111l-119 148l7 6l167 -56z" />
    <glyph glyph-name="Dcaron" unicode="&#x10e;" horiz-adv-x="817" 
d="M807 350q0 -350 -466 -350h-331v13h65v674h-65v13h331q466 0 466 -350zM361 22q97 0 133.5 82t36.5 246t-36.5 246.5t-133.5 82.5h-32v-657h32zM556 919l7 -6l-119 -148h-111l-119 148l7 6l167 -56z" />
    <glyph glyph-name="dcaron" unicode="&#x10f;" horiz-adv-x="917" 
d="M700 13v-13h-294v102q-24 -47 -66.5 -78t-99.5 -31q-94 0 -162 71.5t-68 202.5q0 130 68 201.5t162 71.5q58 0 100 -30.5t66 -78.5v256h-57v13h295v-687h56zM355 85q31 4 51 44v275q-20 40 -51 44q-51 7 -75 -46t-24 -135q0 -83 24 -136t75 -46zM907 595
q0 -72 -54.5 -143t-106.5 -103l-6 11q31 23 61.5 66t41.5 70q-20 -9 -44 -9q-45 0 -77 31.5t-32 76.5t32 76.5t77 31.5t76.5 -31.5t31.5 -76.5z" />
    <glyph glyph-name="Dcroat" unicode="&#x110;" horiz-adv-x="817" 
d="M341 700q226 0 346 -83.5t120 -266.5t-120 -266.5t-346 -83.5h-331v13h65v326h-65v22h65v326h-65v13h331zM361 22q97 0 133.5 82t36.5 246t-36.5 246.5t-133.5 82.5h-31v-318h120v-22h-120v-317h31z" />
    <glyph glyph-name="dcroat" unicode="&#x111;" horiz-adv-x="710" 
d="M644 13h56v-13h-294v102q-24 -48 -66 -78.5t-100 -30.5q-94 0 -162 71.5t-68 201.5q0 131 68 202.5t162 71.5q58 0 100 -30.5t66 -78.5v169h-121v22h121v65h-57v13h295v-78h56v-22h-56v-587zM406 129v275q-20 40 -51 44q-51 7 -75 -46t-24 -136q0 -82 24 -135t75 -46
q31 4 51 44z" />
    <glyph glyph-name="Emacron" unicode="&#x112;" horiz-adv-x="651" 
d="M621 300h15v-300h-626v13h65v674h-65v13h609v-300h-15q-7 54 -24 101t-46.5 88.5t-76.5 65.5t-107 24h-20v-322h11q74 0 109 32t48 99h13v-274h-13q-13 67 -48 98.5t-109 31.5h-11v-322h37q60 0 107 24t76.5 65.5t46.5 88.5t24 100zM192 845h321v-65h-321v65z" />
    <glyph glyph-name="emacron" unicode="&#x113;" horiz-adv-x="592" 
d="M321 539q128 0 197.5 -68t62.5 -205h-315q8 -95 49.5 -150t114.5 -57q69 -1 121 63l13 -11q-28 -47 -85 -82.5t-144 -35.5q-86 0 -157 27.5t-119.5 91t-48.5 154.5q0 68 27 122t72.5 86t99.5 48.5t112 16.5zM368 288q4 114 -5.5 176.5t-41.5 62.5q-31 0 -47 -68t-9 -171
h103zM131 695h321v-65h-321v65z" />
    <glyph glyph-name="Ebreve" unicode="&#x114;" horiz-adv-x="651" 
d="M621 300h15v-300h-626v13h65v674h-65v13h609v-300h-15q-7 54 -24 101t-46.5 88.5t-76.5 65.5t-107 24h-20v-322h11q74 0 109 32t48 99h13v-274h-13q-13 67 -48 98.5t-109 31.5h-11v-322h37q60 0 107 24t76.5 65.5t46.5 88.5t24 100zM470 919h12q0 -74 -36.5 -116.5
t-102.5 -42.5t-102.5 42.5t-36.5 116.5h11q9 -31 43.5 -48.5t84.5 -17.5q49 0 84 17.5t43 48.5z" />
    <glyph glyph-name="ebreve" unicode="&#x115;" horiz-adv-x="592" 
d="M321 539q128 0 197.5 -68t62.5 -205h-315q8 -95 49.5 -150t114.5 -57q69 -1 121 63l13 -11q-28 -47 -85 -82.5t-144 -35.5q-86 0 -157 27.5t-119.5 91t-48.5 154.5q0 68 27 122t72.5 86t99.5 48.5t112 16.5zM368 288q4 114 -5.5 176.5t-41.5 62.5q-31 0 -47 -68t-9 -171
h103zM439 769h12q0 -74 -36.5 -116.5t-102.5 -42.5t-102.5 42.5t-36.5 116.5h11q9 -31 43.5 -48.5t84.5 -17.5q49 0 84 17.5t43 48.5z" />
    <glyph glyph-name="Edotaccent" unicode="&#x116;" horiz-adv-x="651" 
d="M621 300h15v-300h-626v13h65v674h-65v13h609v-300h-15q-7 54 -24 101t-46.5 88.5t-76.5 65.5t-107 24h-20v-322h11q74 0 109 32t48 99h13v-274h-13q-13 67 -48 98.5t-109 31.5h-11v-322h37q60 0 107 24t76.5 65.5t46.5 88.5t24 100zM343 935q39 0 66 -27.5t27 -65.5
t-27 -65.5t-66 -27.5q-38 0 -65.5 27.5t-27.5 65.5t27.5 65.5t65.5 27.5z" />
    <glyph glyph-name="edotaccent" unicode="&#x117;" horiz-adv-x="592" 
d="M321 539q128 0 197.5 -68t62.5 -205h-315q8 -95 49.5 -150t114.5 -57q69 -1 121 63l13 -11q-28 -47 -85 -82.5t-144 -35.5q-86 0 -157 27.5t-119.5 91t-48.5 154.5q0 68 27 122t72.5 86t99.5 48.5t112 16.5zM368 288q4 114 -5.5 176.5t-41.5 62.5q-31 0 -47 -68t-9 -171
h103zM312 785q39 0 66 -27.5t27 -65.5t-27 -65.5t-66 -27.5q-38 0 -65.5 27.5t-27.5 65.5t27.5 65.5t65.5 27.5z" />
    <glyph glyph-name="Eogonek" unicode="&#x118;" horiz-adv-x="651" 
d="M636 0h-131q-46 -99 -9 -150q21 -27 57.5 -31.5t75.5 16.5l7 -8q-44 -69 -122.5 -83.5t-111.5 37.5q-31 48 4 118t83 101h-479v13h64v674h-64v13h609v-300h-16q-7 54 -24 101t-46 88.5t-76.5 65.5t-107.5 24h-20v-322h11q74 0 109.5 32t48.5 99h12v-274h-12
q-13 66 -48.5 98t-109.5 32h-11v-322h37q60 0 107.5 24t76.5 65.5t46 88.5t24 100h16v-300z" />
    <glyph glyph-name="eogonek" unicode="&#x119;" horiz-adv-x="591" 
d="M321 540q128 0 197.5 -68t61.5 -205h-314q8 -96 49.5 -151t113.5 -56q69 -2 122 62l13 -11q-45 -77 -141 -106q-49 -102 -11 -155q20 -27 57 -31.5t75 16.5l8 -7q-44 -70 -122.5 -84.5t-111.5 37.5q-31 48 4.5 118.5t83.5 101.5q-35 -8 -72 -8q-63 0 -119.5 16.5t-103 49
t-74 86t-27.5 122.5q0 68 27 122t72.5 86t99.5 48.5t112 16.5zM368 288q4 114 -5 176.5t-42 62.5q-31 0 -47 -67.5t-9 -171.5h103z" />
    <glyph glyph-name="Ecaron" unicode="&#x11a;" horiz-adv-x="651" 
d="M621 300h15v-300h-626v13h65v674h-65v13h609v-300h-15q-7 54 -24 101t-46.5 88.5t-76.5 65.5t-107 24h-20v-322h11q74 0 109 32t48 99h13v-274h-13q-13 67 -48 98.5t-109 31.5h-11v-322h37q60 0 107 24t76.5 65.5t46.5 88.5t24 100zM510 919l7 -6l-119 -148h-111
l-119 148l7 6l167 -56z" />
    <glyph glyph-name="ecaron" unicode="&#x11b;" horiz-adv-x="592" 
d="M321 539q128 0 197.5 -68t62.5 -205h-315q8 -95 49.5 -150t114.5 -57q69 -1 121 63l13 -11q-28 -47 -85 -82.5t-144 -35.5q-86 0 -157 27.5t-119.5 91t-48.5 154.5q0 68 27 122t72.5 86t99.5 48.5t112 16.5zM368 288q4 114 -5.5 176.5t-41.5 62.5q-31 0 -47 -68t-9 -171
h103zM479 769l7 -6l-119 -148h-111l-119 148l7 6l167 -56z" />
    <glyph glyph-name="Gcircumflex" unicode="&#x11c;" horiz-adv-x="769" 
d="M774 321v-13h-64v-308h-14v50q-132 -57 -243 -57q-124 0 -222 37t-159.5 119t-61.5 199q0 113 59.5 194.5t158 121t225.5 39.5q98 0 219 -42v-240h-17q-24 51 -36.5 75.5l-32.5 62t-33 55.5t-30.5 38t-34.5 27.5t-35 7.5q-79 0 -123.5 -87.5t-44.5 -251.5
q0 -316 168 -332q17 -1 35 3v289h-73v13h359zM487 919l119 -147l-7 -7l-167 57l-167 -57l-7 7l119 147h110z" />
    <glyph glyph-name="gcircumflex" unicode="&#x11d;" horiz-adv-x="644" 
d="M369 177q133 0 199 -33t66 -123q0 -91 -84.5 -153.5t-238.5 -62.5q-155 0 -228 18t-73 70q0 64 127 91q-127 32 -115 142q8 71 107 120q-77 43 -77 128q0 83 71.5 124.5t188.5 41.5q62 0 113 -12l189 172h15v-192h-146q90 -44 90 -134q0 -83 -72 -124.5t-189 -41.5
q-88 0 -152 24q-5 -13 -2 -25q5 -21 43.5 -25.5t167.5 -4.5zM312 525q-32 0 -42.5 -38.5t-10.5 -112.5t10.5 -112.5t42.5 -38.5t42.5 38.5t10.5 112.5t-10.5 112.5t-42.5 38.5zM312 -176q138 0 138 81q0 31 -31.5 46.5t-106.5 15.5q-63 0 -103 4q-49 -27 -49 -74
q0 -73 152 -73zM367 769l119 -147l-7 -7l-167 57l-167 -57l-7 7l119 147h110z" />
    <glyph glyph-name="Gbreve" unicode="&#x11e;" horiz-adv-x="769" 
d="M774 321v-13h-64v-308h-14v50q-132 -57 -243 -57q-124 0 -222 37t-159.5 119t-61.5 199q0 113 59.5 194.5t158 121t225.5 39.5q98 0 219 -42v-240h-17q-24 51 -36.5 75.5l-32.5 62t-33 55.5t-30.5 38t-34.5 27.5t-35 7.5q-79 0 -123.5 -87.5t-44.5 -251.5
q0 -316 168 -332q17 -1 35 3v289h-73v13h359zM559 919h12q0 -74 -36.5 -116.5t-102.5 -42.5t-102.5 42.5t-36.5 116.5h11q9 -31 43.5 -48.5t84.5 -17.5q49 0 84 17.5t43 48.5z" />
    <glyph glyph-name="gbreve" unicode="&#x11f;" horiz-adv-x="644" 
d="M369 177q133 0 199 -33t66 -123q0 -91 -84.5 -153.5t-238.5 -62.5q-155 0 -228 18t-73 70q0 64 127 91q-127 32 -115 142q8 71 107 120q-77 43 -77 128q0 83 71.5 124.5t188.5 41.5q62 0 113 -12l189 172h15v-192h-146q90 -44 90 -134q0 -83 -72 -124.5t-189 -41.5
q-88 0 -152 24q-5 -13 -2 -25q5 -21 43.5 -25.5t167.5 -4.5zM312 525q-32 0 -42.5 -38.5t-10.5 -112.5t10.5 -112.5t42.5 -38.5t42.5 38.5t10.5 112.5t-10.5 112.5t-42.5 38.5zM312 -176q138 0 138 81q0 31 -31.5 46.5t-106.5 15.5q-63 0 -103 4q-49 -27 -49 -74
q0 -73 152 -73zM439 769h12q0 -74 -36.5 -116.5t-102.5 -42.5t-102.5 42.5t-36.5 116.5h11q9 -31 43.5 -48.5t84.5 -17.5q49 0 84 17.5t43 48.5z" />
    <glyph glyph-name="Gdotaccent" unicode="&#x120;" horiz-adv-x="769" 
d="M774 321v-13h-64v-308h-14v50q-132 -57 -243 -57q-124 0 -222 37t-159.5 119t-61.5 199q0 113 59.5 194.5t158 121t225.5 39.5q98 0 219 -42v-240h-17q-24 51 -36.5 75.5l-32.5 62t-33 55.5t-30.5 38t-34.5 27.5t-35 7.5q-79 0 -123.5 -87.5t-44.5 -251.5
q0 -316 168 -332q17 -1 35 3v289h-73v13h359zM442 935q39 0 66 -27.5t27 -65.5t-27 -65.5t-66 -27.5q-38 0 -65.5 27.5t-27.5 65.5t27.5 65.5t65.5 27.5z" />
    <glyph glyph-name="gdotaccent" unicode="&#x121;" horiz-adv-x="644" 
d="M369 177q133 0 199 -33t66 -123q0 -91 -84.5 -153.5t-238.5 -62.5q-155 0 -228 18t-73 70q0 64 127 91q-127 32 -115 142q8 71 107 120q-77 43 -77 128q0 83 71.5 124.5t188.5 41.5q62 0 113 -12l189 172h15v-192h-146q90 -44 90 -134q0 -83 -72 -124.5t-189 -41.5
q-88 0 -152 24q-5 -13 -2 -25q5 -21 43.5 -25.5t167.5 -4.5zM312 525q-32 0 -42.5 -38.5t-10.5 -112.5t10.5 -112.5t42.5 -38.5t42.5 38.5t10.5 112.5t-10.5 112.5t-42.5 38.5zM312 -176q138 0 138 81q0 31 -31.5 46.5t-106.5 15.5q-63 0 -103 4q-49 -27 -49 -74
q0 -73 152 -73zM312 785q39 0 66 -27.5t27 -65.5t-27 -65.5t-66 -27.5q-38 0 -65.5 27.5t-27.5 65.5t27.5 65.5t65.5 27.5z" />
    <glyph glyph-name="Gcommaaccent" unicode="&#x122;" horiz-adv-x="769" 
d="M774 321v-13h-64v-308h-14v50q-132 -57 -243 -57q-124 0 -222 37t-159.5 119t-61.5 199q0 113 59.5 194.5t158 121t225.5 39.5q98 0 219 -42v-240h-17q-24 51 -36.5 75.5l-32.5 62t-33 55.5t-30.5 38t-34.5 27.5t-35 7.5q-79 0 -123.5 -87.5t-44.5 -251.5
q0 -316 168 -332q17 -1 35 3v289h-73v13h359zM550 -141q0 -73 -54 -143.5t-107 -103.5l-6 12q31 23 61.5 65.5t41.5 70.5q-22 -10 -44 -10q-45 0 -77 32t-32 77t32 76.5t77 31.5t76.5 -31.5t31.5 -76.5z" />
    <glyph glyph-name="gcommaaccent" unicode="&#x123;" horiz-adv-x="644" 
d="M369 177q133 0 199 -33t66 -123q0 -91 -84.5 -153.5t-238.5 -62.5q-155 0 -228 18t-73 70q0 64 127 91q-127 32 -115 142q8 71 107 120q-77 43 -77 128q0 83 71.5 124.5t188.5 41.5q62 0 113 -12l189 172h15v-192h-146q90 -44 90 -134q0 -83 -72 -124.5t-189 -41.5
q-88 0 -152 24q-5 -13 -2 -25q5 -21 43.5 -25.5t167.5 -4.5zM312 525q-32 0 -42.5 -38.5t-10.5 -112.5t10.5 -112.5t42.5 -38.5t42.5 38.5t10.5 112.5t-10.5 112.5t-42.5 38.5zM312 -176q138 0 138 81q0 31 -31.5 46.5t-106.5 15.5q-63 0 -103 4q-49 -27 -49 -74
q0 -73 152 -73zM322 814q45 0 76.5 -32t31.5 -77t-31.5 -76.5t-76.5 -31.5t-77 31.5t-32 76.5q0 73 54.5 143.5t106.5 102.5l7 -11q-32 -23 -62.5 -66.5t-40.5 -69.5q20 10 44 10z" />
    <glyph glyph-name="Hcircumflex" unicode="&#x124;" horiz-adv-x="830" 
d="M820 687h-64v-674h64v-13h-384v13h65v323h-172v-323h65v-13h-384v13h65v674h-65v13h384v-13h-65v-330h172v330h-65v13h384v-13zM470 919l119 -147l-7 -7l-167 57l-167 -57l-7 7l119 147h110z" />
    <glyph glyph-name="hcircumflex" unicode="&#x125;" horiz-adv-x="751" 
d="M741 13v-13h-351v13h57v354q0 48 -14 70.5t-48 19.5q-35 -3 -57.5 -46t-22.5 -87v-311h56v-13h-351v13h57v674h-57v13h295v-317q47 157 193 157q93 0 140 -51.5t47 -130.5v-345h56zM249 904l119 -147l-7 -7l-167 57l-167 -57l-7 7l119 147h110z" />
    <glyph glyph-name="Hbar" unicode="&#x126;" horiz-adv-x="830" 
d="M820 687h-65v-162h65v-22h-65v-490h65v-13h-384v13h65v323h-172v-323h65v-13h-384v13h64v490h-64v22h64v162h-64v13h384v-13h-65v-162h172v162h-65v13h384v-13zM501 357v146h-172v-146h172z" />
    <glyph glyph-name="hbar" unicode="&#x127;" horiz-adv-x="751" 
d="M684 13h57v-13h-351v13h56v354q0 48 -13.5 70.5t-47.5 19.5q-36 -3 -58.5 -46t-22.5 -87v-311h57v-13h-352v13h57v587h-57v22h57v65h-57v13h295v-78h121v-22h-121v-217q47 157 194 157q93 0 139.5 -51.5t46.5 -130.5v-345z" />
    <glyph glyph-name="Itilde" unicode="&#x128;" horiz-adv-x="404" 
d="M394 687h-64v-674h64v-13h-384v13h65v674h-65v13h384v-13zM260 780q-9 0 -17 1t-16.5 4l-14.5 5t-15.5 7l-13.5 7t-15.5 8.5t-14.5 8.5q-39 20 -62 9.5t-30 -41.5h-8q2 77 26.5 109.5t71.5 30.5q26 -2 70.5 -26t50.5 -26q56 -21 70 33h8q-5 -130 -90 -130z" />
    <glyph glyph-name="itilde" unicode="&#x129;" 
d="M304 13h57v-13h-351v13h56v501h-56v13h294v-514zM234 630q-9 0 -17 1t-16.5 4l-14.5 5t-15.5 7l-13.5 7t-15.5 8.5t-14.5 8.5q-39 20 -62 9.5t-30 -41.5h-8q2 77 26.5 109.5t71.5 30.5q26 -2 70.5 -26t50.5 -26q56 -21 70 33h8q-5 -130 -90 -130z" />
    <glyph glyph-name="Imacron" unicode="&#x12a;" horiz-adv-x="404" 
d="M394 687h-64v-674h64v-13h-384v13h65v674h-65v13h384v-13zM41 845h321v-65h-321v65z" />
    <glyph glyph-name="imacron" unicode="&#x12b;" 
d="M304 13h57v-13h-351v13h56v501h-56v13h294v-514zM15 695h321v-65h-321v65z" />
    <glyph glyph-name="Ibreve" unicode="&#x12c;" horiz-adv-x="404" 
d="M394 687h-64v-674h64v-13h-384v13h65v674h-65v13h384v-13zM329 919h12q0 -74 -36.5 -116.5t-102.5 -42.5t-102.5 42.5t-36.5 116.5h11q9 -31 43.5 -48.5t84.5 -17.5q49 0 84 17.5t43 48.5z" />
    <glyph glyph-name="ibreve" unicode="&#x12d;" 
d="M304 13h57v-13h-351v13h56v501h-56v13h294v-514zM312 769h12q0 -74 -36.5 -116.5t-102.5 -42.5t-102.5 42.5t-36.5 116.5h11q9 -31 43.5 -48.5t84.5 -17.5q49 0 84 17.5t43 48.5z" />
    <glyph glyph-name="Iogonek" unicode="&#x12e;" horiz-adv-x="404" 
d="M394 687h-65v-674h65v-13h-200q-45 -99 -8 -150q20 -27 57 -31.5t75 16.5l8 -8q-44 -69 -122.5 -83.5t-111.5 37.5q-31 48 4 118t83 101h-169v13h65v674h-65v13h384v-13z" />
    <glyph glyph-name="iogonek" unicode="&#x12f;" 
d="M361 0h-183q-46 -99 -9 -150q20 -27 57 -31.5t75 16.5l8 -8q-44 -69 -122.5 -83.5t-111.5 37.5q-31 48 4 118t83 101h-152v13h56v501h-56v13h294v-514h57v-13zM185 564q-47 0 -80 33t-33 80q0 46 33 79t80 33t80 -33t33 -79q0 -47 -33 -80t-80 -33z" />
    <glyph glyph-name="Idotaccent" unicode="&#x130;" horiz-adv-x="404" 
d="M394 687h-64v-674h64v-13h-384v13h65v674h-65v13h384v-13zM202 935q39 0 66 -27.5t27 -65.5t-27 -65.5t-66 -27.5q-38 0 -65.5 27.5t-27.5 65.5t27.5 65.5t65.5 27.5z" />
    <glyph glyph-name="dotlessi" unicode="&#x131;" 
d="M304 13h57v-13h-351v13h56v501h-56v13h294v-514z" />
    <glyph glyph-name="IJ" unicode="&#x132;" horiz-adv-x="1015" 
d="M394 687h-64v-674h64v-13h-384v13h65v674h-65v13h384v-13zM1005 700v-13h-65v-406q0 -163 -75.5 -225.5t-248.5 -62.5q-97 0 -202 41v258h14l33 -66l31 -62l26.5 -50.5t26.5 -45.5t23.5 -31t24.5 -22.5t23 -6.5q38 0 53.5 43.5t15.5 138.5v497h-97v13h417z" />
    <glyph glyph-name="ij" unicode="&#x133;" horiz-adv-x="741" 
d="M304 13h57v-13h-351v13h56v501h-56v13h294v-514zM185 564q-47 0 -79.5 33t-32.5 80t33 80t79 33q47 0 80 -33t33 -80t-33 -80t-80 -33zM360 527h316v-378q0 -180 -73.5 -254.5t-251.5 -74.5v15q87 0 87 198v481h-78v13zM557 564q-47 0 -80 33t-33 80t33 80t80 33t80 -33
t33 -80t-33 -80t-80 -33z" />
    <glyph glyph-name="Jcircumflex" unicode="&#x134;" horiz-adv-x="611" 
d="M601 700v-13h-65v-406q0 -163 -75.5 -225.5t-248.5 -62.5q-97 0 -202 41v258h14l33 -66l31 -62l26.5 -50.5t26.5 -45.5t23.5 -31t24.5 -22.5t23 -6.5q38 0 53.5 43.5t15.5 138.5v497h-97v13h417zM445 919l119 -147l-7 -7l-167 57l-167 -57l-7 7l119 147h110z" />
    <glyph glyph-name="jcircumflex" unicode="&#x135;" horiz-adv-x="367" 
d="M-11 527h316v-378q0 -180 -73.5 -254.5t-251.5 -74.5v15q87 0 87 198v481h-78v13zM218 719l119 -147l-7 -7l-167 57l-167 -57l-7 7l119 147h110z" />
    <glyph glyph-name="Kcommaaccent" unicode="&#x136;" horiz-adv-x="889" 
d="M822 13h72v-13h-417v13h57l-179 296l-26 -26v-270h65v-13h-384v13h65v674h-65v13h384v-13h-65v-382l187 189q40 41 54 77t3.5 60t-35 39t-58.5 17v13h326v-13q-64 -16 -125.5 -63t-142.5 -129l-9 -9zM550 -141q0 -73 -54 -143.5t-107 -103.5l-6 12q31 23 61.5 65.5
t41.5 70.5q-22 -10 -44 -10q-45 0 -77 32t-32 77t32 76.5t77 31.5t76.5 -31.5t31.5 -76.5z" />
    <glyph glyph-name="kcommaaccent" unicode="&#x137;" horiz-adv-x="727" 
d="M686 13h61v-13h-367v13h52l-113 216l-15 -16v-200h57v-13h-351v13h56v674h-56v13h294v-471l128 136q52 57 48 100t-54 49v13h246v-13q-99 -25 -200 -124zM477 -141q0 -73 -54 -143.5t-107 -103.5l-6 12q31 23 61.5 65.5t41.5 70.5q-22 -10 -44 -10q-45 0 -77 32t-32 77
t32 76.5t77 31.5t76.5 -31.5t31.5 -76.5z" />
    <glyph glyph-name="kgreenlandic" unicode="&#x138;" horiz-adv-x="727" 
d="M686 13h61v-13h-367v13h52l-113 216l-15 -16v-200h57v-13h-351v13h56v501h-56v13h351v-13h-57v-285l128 136q52 57 48 100t-54 49v13h246v-13q-99 -25 -200 -124z" />
    <glyph glyph-name="Lacute" unicode="&#x139;" horiz-adv-x="665" 
d="M634 300h16v-300h-640v13h64v674h-64v13h384v-13h-65v-665h52q60 0 107 24t76 65.5t46 88.5t24 100zM270 914q41 -43 -11 -95q-21 -21 -57.5 -38.5t-63.5 -24.5l-26 -7l-7 7q22 100 69 147q53 52 96 11z" />
    <glyph glyph-name="lacute" unicode="&#x13a;" 
d="M305 13h56v-13h-351v13h57v674h-57v13h295v-687zM255 929q41 -43 -11 -95q-21 -21 -57.5 -38.5t-62.5 -24.5l-27 -7l-7 7q22 100 69 147q53 52 96 11z" />
    <glyph glyph-name="Lcommaaccent" unicode="&#x13b;" horiz-adv-x="665" 
d="M634 300h16v-300h-640v13h64v674h-64v13h384v-13h-65v-665h52q60 0 107 24t76 65.5t46 88.5t24 100zM478 -141q0 -73 -54 -143.5t-107 -103.5l-6 12q31 23 61.5 65.5t41.5 70.5q-22 -10 -44 -10q-45 0 -77 32t-32 77t32 76.5t77 31.5t76.5 -31.5t31.5 -76.5z" />
    <glyph glyph-name="lcommaaccent" unicode="&#x13c;" 
d="M305 13h56v-13h-351v13h57v674h-57v13h295v-687zM294 -141q0 -73 -54 -143.5t-107 -103.5l-6 12q31 23 61.5 65.5t41.5 70.5q-22 -10 -44 -10q-45 0 -77 32t-32 77t32 76.5t77 31.5t76.5 -31.5t31.5 -76.5z" />
    <glyph glyph-name="Lcaron" unicode="&#x13d;" horiz-adv-x="665" 
d="M634 300h16v-300h-640v13h64v674h-64v13h384v-13h-65v-665h52q60 0 107 24t76 65.5t46 88.5t24 100zM652 592q0 -72 -54.5 -143t-106.5 -103l-6 11q31 23 61.5 66t41.5 70q-20 -9 -44 -9q-45 0 -77 31.5t-32 76.5t32 76.5t77 31.5t76.5 -31.5t31.5 -76.5z" />
    <glyph glyph-name="lcaron" unicode="&#x13e;" horiz-adv-x="582" 
d="M305 13h56v-13h-351v13h57v674h-57v13h295v-687zM572 595q0 -72 -54.5 -143t-106.5 -103l-6 11q31 23 61.5 66t41.5 70q-20 -9 -44 -9q-45 0 -77 31.5t-32 76.5t32 76.5t77 31.5t76.5 -31.5t31.5 -76.5z" />
    <glyph glyph-name="Ldot" unicode="&#x13f;" horiz-adv-x="665" 
d="M634 300h16v-300h-640v13h64v674h-64v13h384v-13h-65v-665h52q60 0 107 24t76 65.5t46 88.5t24 100zM473 393q39 0 66 -27.5t27 -65.5t-27 -65.5t-66 -27.5q-38 0 -65.5 27.5t-27.5 65.5t27.5 65.5t65.5 27.5z" />
    <glyph glyph-name="ldot" unicode="&#x140;" horiz-adv-x="537" 
d="M434 396q39 0 66 -27.5t27 -65.5t-27 -65.5t-66 -27.5q-38 0 -65.5 27.5t-27.5 65.5t27.5 65.5t65.5 27.5zM305 13h56v-13h-351v13h57v674h-57v13h295v-687z" />
    <glyph glyph-name="Lslash" unicode="&#x141;" horiz-adv-x="665" 
d="M634 300h16v-300h-641v13h64v211l-64 -28v22l64 28v441h-64v13h384v-13h-65v-331l121 52v-22l-121 -52v-312h52q60 0 107.5 24t76.5 65.5t46 88t24 100.5z" />
    <glyph glyph-name="lslash" unicode="&#x142;" 
d="M361 348l-57 -25v-310h57v-13h-351v13h56v208l-56 -25v22l56 24v445h-56v13h294v-355l57 24v-21z" />
    <glyph glyph-name="Nacute" unicode="&#x143;" horiz-adv-x="828" 
d="M528 700h290v-13q-59 -11 -94.5 -83t-35.5 -156v-448h-93l-442 559v-306q0 -81 43 -154.5t104 -85.5v-13h-290v13q59 11 94.5 83.5t35.5 156.5v322l-88 112h-34v13h340l317 -399v147q0 80 -43 153.5t-104 85.5v13zM504 914q41 -43 -11 -95q-21 -21 -57.5 -38.5
t-63.5 -24.5l-26 -7l-7 7q22 100 69 147q53 52 96 11z" />
    <glyph glyph-name="nacute" unicode="&#x144;" horiz-adv-x="751" 
d="M741 13v-13h-351v13h56v354q0 48 -13.5 70.5t-47.5 19.5q-36 -3 -58.5 -46t-22.5 -87v-311h57v-13h-351v13h56v501h-56v13h294v-144q47 157 194 157q93 0 139.5 -51.5t46.5 -130.5v-345h57zM455 764q41 -43 -11 -95q-21 -21 -57.5 -38.5t-62.5 -24.5l-27 -7l-7 7
q22 100 69 147q53 52 96 11z" />
    <glyph glyph-name="Ncommaaccent" unicode="&#x145;" horiz-adv-x="828" 
d="M528 700h290v-13q-59 -11 -94.5 -83t-35.5 -156v-448h-93l-442 559v-306q0 -81 43 -154.5t104 -85.5v-13h-290v13q59 11 94.5 83.5t35.5 156.5v322l-88 112h-34v13h340l317 -399v147q0 80 -43 153.5t-104 85.5v13zM532 -141q0 -73 -54 -143.5t-107 -103.5l-6 12
q31 23 61.5 65.5t41.5 70.5q-22 -10 -44 -10q-45 0 -77 32t-32 77t32 76.5t77 31.5t76.5 -31.5t31.5 -76.5z" />
    <glyph glyph-name="ncommaaccent" unicode="&#x146;" horiz-adv-x="751" 
d="M741 13v-13h-351v13h56v354q0 48 -13.5 70.5t-47.5 19.5q-36 -3 -58.5 -46t-22.5 -87v-311h57v-13h-351v13h56v501h-56v13h294v-144q47 157 194 157q93 0 139.5 -51.5t46.5 -130.5v-345h57zM484 -141q0 -73 -54 -143.5t-107 -103.5l-6 12q31 23 61.5 65.5t41.5 70.5
q-22 -10 -44 -10q-45 0 -77 32t-32 77t32 76.5t77 31.5t76.5 -31.5t31.5 -76.5z" />
    <glyph glyph-name="Ncaron" unicode="&#x147;" horiz-adv-x="828" 
d="M528 700h290v-13q-59 -11 -94.5 -83t-35.5 -156v-448h-93l-442 559v-306q0 -81 43 -154.5t104 -85.5v-13h-290v13q59 11 94.5 83.5t35.5 156.5v322l-88 112h-34v13h340l317 -399v147q0 80 -43 153.5t-104 85.5v13zM611 919l7 -6l-119 -148h-111l-119 148l7 6l167 -56z
" />
    <glyph glyph-name="ncaron" unicode="&#x148;" horiz-adv-x="751" 
d="M741 13v-13h-351v13h56v354q0 48 -13.5 70.5t-47.5 19.5q-36 -3 -58.5 -46t-22.5 -87v-311h57v-13h-351v13h56v501h-56v13h294v-144q47 157 194 157q93 0 139.5 -51.5t46.5 -130.5v-345h57zM533 769l7 -6l-119 -148h-111l-119 148l7 6l167 -56z" />
    <glyph glyph-name="napostrophe" unicode="&#x149;" horiz-adv-x="979" 
d="M969 13v-13h-351v13h56v354q0 48 -13.5 70.5t-47.5 19.5q-36 -3 -58.5 -46t-22.5 -87v-311h57v-13h-351v13h56v501h-56v13h294v-144q47 157 194 157q93 0 139.5 -51.5t46.5 -130.5v-345h57zM227 419q0 -73 -54 -143.5t-107 -103.5l-6 12q31 23 61.5 66t41.5 70
q-22 -10 -44 -10q-45 0 -77 32t-32 77t32 76.5t77 31.5t76.5 -31.5t31.5 -76.5z" />
    <glyph glyph-name="Eng" unicode="&#x14a;" horiz-adv-x="828" 
d="M528 700h290v-13q-59 -11 -94.5 -83t-35.5 -156v-542q0 -83 -37.5 -120t-98.5 -37q-41 0 -108 16.5t-107 36.5v211h14q44 -120 93 -182.5t94 -66.5q60 -5 98.5 28.5t38.5 118.5v89h-80l-442 559v-306q0 -81 43 -154.5t104 -85.5v-13h-290v13q59 11 94.5 83.5t35.5 156.5
v322l-88 112h-34v13h340l317 -399v147q0 81 -42.5 154t-104.5 85v13z" />
    <glyph glyph-name="eng" unicode="&#x14b;" horiz-adv-x="749" 
d="M498 540q93 0 139.5 -51.5t46.5 -130.5v-275q0 -58 -4 -98t-20.5 -88.5t-46 -78t-84.5 -49.5t-133 -20q-36 0 -97.5 13t-97.5 28v176h14q43 -116 80.5 -159.5t76.5 -42.5q60 1 71 134q3 40 3 185v284q0 48 -13.5 70.5t-47.5 19.5q-36 -3 -58.5 -46t-22.5 -87v-311h57v-13
h-351v13h56v501h-56v13h294v-144q47 157 194 157z" />
    <glyph glyph-name="Omacron" unicode="&#x14c;" horiz-adv-x="823" 
d="M412 703q177 0 289 -95t112 -260q0 -164 -112 -259.5t-289 -95.5t-289.5 95.5t-112.5 259.5q0 165 112.5 260t289.5 95zM412 5q68 0 97.5 82.5t29.5 262.5t-29.5 261t-97.5 81t-97.5 -81t-29.5 -261q0 -181 29.5 -263t97.5 -82zM251 845h321v-65h-321v65z" />
    <glyph glyph-name="omacron" unicode="&#x14d;" horiz-adv-x="655" 
d="M328 540q63 0 118.5 -16t100.5 -48t71.5 -86t26.5 -124t-26.5 -123.5t-71.5 -85.5t-100.5 -48t-118.5 -16q-64 0 -119.5 16t-100.5 48t-71.5 85.5t-26.5 123.5t26.5 124t71.5 86t101 48t119 16zM328 5q44 0 59 67.5t15 193.5q0 127 -15 194t-59 67q-45 0 -60 -67
t-15 -194q0 -126 15 -193.5t60 -67.5zM167 695h321v-65h-321v65z" />
    <glyph glyph-name="Obreve" unicode="&#x14e;" horiz-adv-x="823" 
d="M412 703q177 0 289 -95t112 -260q0 -164 -112 -259.5t-289 -95.5t-289.5 95.5t-112.5 259.5q0 165 112.5 260t289.5 95zM412 5q68 0 97.5 82.5t29.5 262.5t-29.5 261t-97.5 81t-97.5 -81t-29.5 -261q0 -181 29.5 -263t97.5 -82zM538 919h12q0 -74 -36.5 -116.5
t-102.5 -42.5t-102.5 42.5t-36.5 116.5h11q9 -31 43.5 -48.5t84.5 -17.5q49 0 84 17.5t43 48.5z" />
    <glyph glyph-name="obreve" unicode="&#x14f;" horiz-adv-x="655" 
d="M328 540q63 0 118.5 -16t100.5 -48t71.5 -86t26.5 -124t-26.5 -123.5t-71.5 -85.5t-100.5 -48t-118.5 -16q-64 0 -119.5 16t-100.5 48t-71.5 85.5t-26.5 123.5t26.5 124t71.5 86t101 48t119 16zM328 5q44 0 59 67.5t15 193.5q0 127 -15 194t-59 67q-45 0 -60 -67
t-15 -194q0 -126 15 -193.5t60 -67.5zM454 769h12q0 -74 -36.5 -116.5t-102.5 -42.5t-102.5 42.5t-36.5 116.5h11q9 -31 43.5 -48.5t84.5 -17.5q49 0 84 17.5t43 48.5z" />
    <glyph glyph-name="Ohungarumlaut" unicode="&#x150;" horiz-adv-x="823" 
d="M412 703q177 0 289 -95t112 -260q0 -164 -112 -259.5t-289 -95.5t-289.5 95.5t-112.5 259.5q0 165 112.5 260t289.5 95zM412 5q68 0 97.5 82.5t29.5 262.5t-29.5 261t-97.5 81t-97.5 -81t-29.5 -261q0 -181 29.5 -263t97.5 -82zM325 903q52 52 95 11q42 -44 -11 -95
q-21 -21 -57.5 -38.5t-63.5 -24.5l-26 -7l-7 7q23 100 70 147zM602 914q42 -42 -10 -95q-21 -21 -57.5 -38.5t-62.5 -24.5l-27 -7l-7 7q22 100 69 147q54 52 95 11z" />
    <glyph glyph-name="ohungarumlaut" unicode="&#x151;" horiz-adv-x="655" 
d="M328 540q63 0 118.5 -16t100.5 -48t71.5 -86t26.5 -124t-26.5 -123.5t-71.5 -85.5t-100.5 -48t-118.5 -16q-64 0 -119.5 16t-100.5 48t-71.5 85.5t-26.5 123.5t26.5 124t71.5 86t101 48t119 16zM328 5q44 0 59 67.5t15 193.5q0 127 -15 194t-59 67q-45 0 -60 -67
t-15 -194q0 -126 15 -193.5t60 -67.5zM261 753q52 52 95 11q42 -44 -11 -95q-21 -21 -57.5 -38.5t-63.5 -24.5l-26 -7l-7 7q23 100 70 147zM538 764q42 -42 -10 -95q-21 -21 -57.5 -38.5t-62.5 -24.5l-27 -7l-7 7q22 100 69 147q54 52 95 11z" />
    <glyph glyph-name="OE" unicode="&#x152;" horiz-adv-x="1065" 
d="M1034 300h16v-300h-573q-467 0 -467 350t467 350h556v-300h-16q-6 43 -17 81t-32 75t-48.5 63.5t-67.5 43t-89 16.5h-20v-322h11q74 0 109.5 32t47.5 99h13v-274h-13q-12 66 -47.5 98t-109.5 32h-11v-322h37q60 0 107.5 24t76.5 65.5t46 88t24 100.5zM457 679
q-51 0 -85 -22.5t-52.5 -68t-26 -102t-7.5 -136.5t7.5 -136.5t26 -101.5t52.5 -67.5t85 -22.5h31v657h-31z" />
    <glyph glyph-name="oe" unicode="&#x153;" horiz-adv-x="987" 
d="M716 539q128 0 197.5 -68t62.5 -205h-315q8 -96 49.5 -151t114.5 -56q42 -1 69.5 16t51.5 46l13 -10q-26 -47 -84 -82.5t-145 -35.5q-117 0 -202 51q-82 -51 -200 -51q-64 0 -119.5 16t-100.5 48t-71.5 85.5t-26.5 123.5t26.5 123.5t71.5 85.5t100.5 48t119.5 16
q117 0 199 -50q81 50 189 50zM328 5q44 0 59 67.5t15 193.5t-15 193.5t-59 67.5q-45 0 -59.5 -67t-14.5 -194t14.5 -194t59.5 -67zM763 287q4 114 -5 176.5t-42 62.5q-31 0 -47 -67.5t-9 -171.5h103z" />
    <glyph glyph-name="Racute" unicode="&#x154;" horiz-adv-x="774" 
d="M707 179v-41q0 -43 36 -43q34 0 34 53h12q0 -155 -154 -155q-79 0 -124.5 37.5t-45.5 116.5v64q0 127 -110 127h-26v-325h65v-13h-384v13h64v674h-64v13h377q68 0 118 -7.5t94.5 -27t68 -58.5t23.5 -96q0 -146 -228 -159v-3q134 0 189 -40t55 -130zM344 351
q107 0 107 160q0 168 -107 168h-15v-328h15zM459 914q41 -43 -11 -95q-21 -21 -57.5 -38.5t-62.5 -24.5l-27 -7l-7 7q22 100 69 147q53 52 96 11z" />
    <glyph glyph-name="racute" unicode="&#x155;" horiz-adv-x="581" 
d="M468 540q28 0 59.5 -13.5t43.5 -29.5l-92 -166h-17q-18 35 -56 61t-68 10q-34 -19 -34 -78v-311h90v-13h-384v13h56v501h-56v13h294v-143q26 80 62 118t102 38zM430 764q41 -43 -11 -95q-21 -21 -57.5 -38.5t-63.5 -24.5l-26 -7l-7 7q22 100 69 147q53 52 96 11z" />
    <glyph glyph-name="Rcommaaccent" unicode="&#x156;" horiz-adv-x="774" 
d="M707 179v-41q0 -43 36 -43q34 0 34 53h12q0 -155 -154 -155q-79 0 -124.5 37.5t-45.5 116.5v64q0 127 -110 127h-26v-325h65v-13h-384v13h64v674h-64v13h377q68 0 118 -7.5t94.5 -27t68 -58.5t23.5 -96q0 -146 -228 -159v-3q134 0 189 -40t55 -130zM344 351
q107 0 107 160q0 168 -107 168h-15v-328h15zM538 -141q0 -73 -54 -143.5t-107 -103.5l-6 12q31 23 61.5 65.5t41.5 70.5q-22 -10 -44 -10q-45 0 -77 32t-32 77t32 76.5t77 31.5t76.5 -31.5t31.5 -76.5z" />
    <glyph glyph-name="rcommaaccent" unicode="&#x157;" horiz-adv-x="581" 
d="M468 540q28 0 59.5 -13.5t43.5 -29.5l-92 -166h-17q-18 35 -56 61t-68 10q-34 -19 -34 -78v-311h90v-13h-384v13h56v501h-56v13h294v-143q26 80 62 118t102 38zM293 -141q0 -73 -54 -143.5t-107 -103.5l-6 12q31 23 61.5 65.5t41.5 70.5q-22 -10 -44 -10q-45 0 -77 32
t-32 77t32 76.5t77 31.5t76.5 -31.5t31.5 -76.5z" />
    <glyph glyph-name="Rcaron" unicode="&#x158;" horiz-adv-x="774" 
d="M707 179v-41q0 -43 36 -43q34 0 34 53h12q0 -155 -154 -155q-79 0 -124.5 37.5t-45.5 116.5v64q0 127 -110 127h-26v-325h65v-13h-384v13h64v674h-64v13h377q68 0 118 -7.5t94.5 -27t68 -58.5t23.5 -96q0 -146 -228 -159v-3q134 0 189 -40t55 -130zM344 351
q107 0 107 160q0 168 -107 168h-15v-328h15zM537 919l7 -6l-119 -148h-111l-119 148l7 6l167 -56z" />
    <glyph glyph-name="rcaron" unicode="&#x159;" horiz-adv-x="581" 
d="M468 540q28 0 59.5 -13.5t43.5 -29.5l-92 -166h-17q-18 35 -56 61t-68 10q-34 -19 -34 -78v-311h90v-13h-384v13h56v501h-56v13h294v-143q26 80 62 118t102 38zM468 769l7 -6l-119 -148h-111l-119 148l7 6l167 -56z" />
    <glyph glyph-name="Sacute" unicode="&#x15a;" horiz-adv-x="613" 
d="M214 577q2 -26 25 -47.5t58.5 -37.5t78 -33t83.5 -39.5t74.5 -50.5t52.5 -71t16 -97q-6 -103 -85.5 -155.5t-224.5 -52.5q-63 0 -139.5 12t-129.5 32v231h14q135 -260 245 -260q90 0 99 80q4 34 -14 60.5t-51 45t-73 36.5t-80.5 40.5t-73.5 50.5t-52 73t-16 102
q5 102 77.5 154.5t228.5 52.5q100 0 218 -44v-213h-14l-25 43.5l-24 42l-22 37t-23 34.5l-22 27.5t-23 24.5t-23.5 16.5t-26.5 12t-28 3.5q-49 0 -76.5 -27.5t-23.5 -82.5zM381 914q41 -43 -11 -95q-21 -21 -57.5 -38.5t-62.5 -24.5l-27 -7l-7 7q22 100 69 147q53 52 96 11z
" />
    <glyph glyph-name="sacute" unicode="&#x15b;" horiz-adv-x="504" 
d="M191 449q1 -13 9.5 -24t25 -21t30 -16l39.5 -17l40 -17q47 -21 70.5 -34.5t49.5 -37t33.5 -55t2.5 -74.5q-5 -37 -20 -65t-38.5 -45t-47.5 -27.5t-55.5 -15t-51.5 -6t-47 -1.5q-96 0 -221 34v199h16q132 -212 204 -221q32 -5 50.5 12.5t17.5 53.5q0 40 -62 73
q-13 7 -67 32q-35 15 -57 28t-46 34.5t-36 51.5t-12 69q0 47 17 81.5t41.5 53t58.5 29.5t59.5 14t53.5 3q79 0 207 -35v-182h-17q-67 110 -111 157t-80 47q-29 0 -44.5 -21.5t-11.5 -56.5zM332 764q41 -43 -11 -95q-21 -21 -57.5 -38.5t-63.5 -24.5l-26 -7l-7 7
q22 100 69 147q53 52 96 11z" />
    <glyph glyph-name="Scircumflex" unicode="&#x15c;" horiz-adv-x="613" 
d="M214 577q2 -26 25 -47.5t58.5 -37.5t78 -33t83.5 -39.5t74.5 -50.5t52.5 -71t16 -97q-6 -103 -85.5 -155.5t-224.5 -52.5q-63 0 -139.5 12t-129.5 32v231h14q135 -260 245 -260q90 0 99 80q4 34 -14 60.5t-51 45t-73 36.5t-80.5 40.5t-73.5 50.5t-52 73t-16 102
q5 102 77.5 154.5t228.5 52.5q100 0 218 -44v-213h-14l-25 43.5l-24 42l-22 37t-23 34.5l-22 27.5t-23 24.5t-23.5 16.5t-26.5 12t-28 3.5q-49 0 -76.5 -27.5t-23.5 -82.5zM366 919l119 -147l-7 -7l-167 57l-167 -57l-7 7l119 147h110z" />
    <glyph glyph-name="scircumflex" unicode="&#x15d;" horiz-adv-x="504" 
d="M191 449q1 -13 9.5 -24t25 -21t30 -16l39.5 -17l40 -17q47 -21 70.5 -34.5t49.5 -37t33.5 -55t2.5 -74.5q-5 -37 -20 -65t-38.5 -45t-47.5 -27.5t-55.5 -15t-51.5 -6t-47 -1.5q-96 0 -221 34v199h16q132 -212 204 -221q32 -5 50.5 12.5t17.5 53.5q0 40 -62 73
q-13 7 -67 32q-35 15 -57 28t-46 34.5t-36 51.5t-12 69q0 47 17 81.5t41.5 53t58.5 29.5t59.5 14t53.5 3q79 0 207 -35v-182h-17q-67 110 -111 157t-80 47q-29 0 -44.5 -21.5t-11.5 -56.5zM307 769l119 -147l-7 -7l-167 57l-167 -57l-7 7l119 147h110z" />
    <glyph glyph-name="Scedilla" unicode="&#x15e;" horiz-adv-x="613" 
d="M214 577q2 -26 25 -47.5t58.5 -37.5t78 -33t84 -39.5t74.5 -50.5t52 -71t16 -97q-6 -103 -85.5 -155.5t-224.5 -52.5h-15l-9 -34q80 13 133.5 -19.5t39.5 -99.5q-13 -61 -90 -87.5t-171 7.5l3 12q52 -6 91.5 22t49.5 68q11 43 -8.5 66.5t-63.5 18.5l13 47q-138 5 -242 43
v231h14q135 -260 246 -260q89 0 98 80q4 34 -14 60.5t-50.5 45t-73 36.5t-80.5 40.5t-73 50.5t-52.5 73t-16.5 102q5 101 77.5 154t229.5 53q98 0 218 -44v-214h-15l-25 43.5l-24.5 42.5l-22 37t-22.5 35t-21.5 27.5t-23.5 24.5t-23.5 16.5t-26.5 12t-28 3.5
q-48 0 -76 -27.5t-24 -82.5z" />
    <glyph glyph-name="scedilla" unicode="&#x15f;" horiz-adv-x="504" 
d="M336 354q47 -22 70.5 -35t49 -36.5t33.5 -55t2 -74.5q-5 -37 -20 -65t-38.5 -45t-47 -27.5t-55 -15t-51.5 -6t-47 -1.5h-8l-10 -34q81 13 134 -19t40 -100q-13 -61 -90.5 -87.5t-171.5 7.5l3 12q52 -6 91.5 22t50.5 68q11 43 -9 66.5t-64 18.5l13 47q-92 3 -201 33v199
h17q132 -212 204 -221q32 -5 50 12.5t18 53.5q-1 32 -29 52.5t-89 47.5q-8 3 -12 5q-35 15 -57 28t-46 34.5t-35.5 51.5t-11.5 69q0 47 17 81.5t41.5 53t58.5 29.5t59.5 14t53.5 3q77 0 207 -35v-182h-18q-67 111 -111 158.5t-80 47.5q-28 0 -43.5 -22.5t-11.5 -57.5
q1 -13 9 -24t24.5 -20.5t30.5 -16.5t40 -17.5z" />
    <glyph glyph-name="Scaron" unicode="&#x160;" horiz-adv-x="613" 
d="M214 577q2 -26 25 -47.5t58.5 -37.5t78 -33t83.5 -39.5t74.5 -50.5t52.5 -71t16 -97q-6 -103 -85.5 -155.5t-224.5 -52.5q-63 0 -139.5 12t-129.5 32v231h14q135 -260 245 -260q90 0 99 80q4 34 -14 60.5t-51 45t-73 36.5t-80.5 40.5t-73.5 50.5t-52 73t-16 102
q5 102 77.5 154.5t228.5 52.5q100 0 218 -44v-213h-14l-25 43.5l-24 42l-22 37t-23 34.5l-22 27.5t-23 24.5t-23.5 16.5t-26.5 12t-28 3.5q-49 0 -76.5 -27.5t-23.5 -82.5zM479 919l7 -6l-119 -148h-111l-119 148l7 6l167 -56z" />
    <glyph glyph-name="scaron" unicode="&#x161;" horiz-adv-x="504" 
d="M191 449q1 -13 9.5 -24t25 -21t30 -16l39.5 -17l40 -17q47 -21 70.5 -34.5t49.5 -37t33.5 -55t2.5 -74.5q-5 -37 -20 -65t-38.5 -45t-47.5 -27.5t-55.5 -15t-51.5 -6t-47 -1.5q-96 0 -221 34v199h16q132 -212 204 -221q32 -5 50.5 12.5t17.5 53.5q0 40 -62 73
q-13 7 -67 32q-35 15 -57 28t-46 34.5t-36 51.5t-12 69q0 47 17 81.5t41.5 53t58.5 29.5t59.5 14t53.5 3q79 0 207 -35v-182h-17q-67 110 -111 157t-80 47q-29 0 -44.5 -21.5t-11.5 -56.5zM419 769l7 -6l-119 -148h-111l-119 148l7 6l167 -56z" />
    <glyph glyph-name="Tcommaaccent" unicode="&#x162;" horiz-adv-x="720" 
d="M10 700h700v-300h-13q-5 41 -16.5 81t-34 87t-63.5 77.5t-95 32.5v-665h64v-13h-384v13h65v665q-54 -2 -95.5 -32.5t-64 -78t-33.5 -86.5t-17 -81h-13v300zM468 -141q0 -73 -54 -143.5t-107 -103.5l-6 12q31 23 61.5 65.5t41.5 70.5q-22 -10 -44 -10q-45 0 -77 32t-32 77
t32 76.5t77 31.5t76.5 -31.5t31.5 -76.5z" />
    <glyph glyph-name="tcommaaccent" unicode="&#x163;" horiz-adv-x="419" 
d="M412 92l12 -11q-27 -39 -77 -63.5t-115 -24.5q-79 0 -124.5 41.5t-45.5 116.5v363h-57v13h57l222 160h16v-160h106v-13h-106v-379q0 -48 14 -64.5t38 -16.5q28 0 60 38zM333 -141q0 -73 -54 -143.5t-107 -103.5l-6 12q31 23 61.5 65.5t41.5 70.5q-22 -10 -44 -10
q-45 0 -77 32t-32 77t32 76.5t77 31.5t76.5 -31.5t31.5 -76.5z" />
    <glyph glyph-name="Tcaron" unicode="&#x164;" horiz-adv-x="720" 
d="M10 700h700v-300h-13q-5 41 -16.5 81t-34 87t-63.5 77.5t-95 32.5v-665h64v-13h-384v13h65v665q-54 -2 -95.5 -32.5t-64 -78t-33.5 -86.5t-17 -81h-13v300zM527 919l7 -6l-119 -148h-111l-119 148l7 6l167 -56z" />
    <glyph glyph-name="tcaron" unicode="&#x165;" horiz-adv-x="647" 
d="M412 92l12 -11q-27 -39 -77 -63.5t-115 -24.5q-79 0 -124.5 41.5t-45.5 116.5v363h-57v13h57l222 160h16v-160h106v-13h-106v-379q0 -48 14 -64.5t38 -16.5q28 0 60 38zM637 595q0 -72 -54.5 -143t-106.5 -103l-6 11q31 23 61.5 66t41.5 70q-20 -9 -44 -9q-45 0 -77 31.5
t-32 76.5t32 76.5t77 31.5t76.5 -31.5t31.5 -76.5z" />
    <glyph glyph-name="Tbar" unicode="&#x166;" horiz-adv-x="720" 
d="M10 700h700v-300h-13q-4 31 -11 62.5t-23 71.5t-38 69.5t-57.5 51t-79.5 23.5v-317h92v-22h-92v-326h64v-13h-384v13h65v326h-93v22h93v317q-44 -2 -80 -23.5t-57.5 -51t-38 -70t-23.5 -71t-11 -62.5h-13v300z" />
    <glyph glyph-name="tbar" unicode="&#x167;" horiz-adv-x="420" 
d="M412 92l13 -11q-27 -39 -77 -63.5t-116 -24.5q-79 0 -124.5 41.5t-45.5 117.5v178h-57v21h57v163h-57v13h57l223 160h15v-160h106v-13h-106v-163h88v-21h-88v-195q0 -48 14.5 -64.5t37.5 -16.5q28 0 60 38z" />
    <glyph glyph-name="Utilde" unicode="&#x168;" horiz-adv-x="780" 
d="M596 700h174v-13q-80 -22 -80 -157v-231q0 -140 -73.5 -223t-215.5 -83q-149 0 -238 80t-89 226v388h-64v13h384v-13h-65v-388q0 -112 45.5 -168t129.5 -56q77 0 125 59t48 165v231q0 74 -20.5 110.5t-60.5 46.5v13zM548 780q-9 0 -17 1t-16.5 4l-14.5 5t-15.5 7l-13.5 7
t-15.5 8.5t-14.5 8.5q-39 20 -62 9.5t-30 -41.5h-8q2 77 26.5 109.5t71.5 30.5q26 -2 70.5 -26t50.5 -26q56 -21 70 33h8q-5 -130 -90 -130z" />
    <glyph glyph-name="utilde" unicode="&#x169;" horiz-adv-x="746" 
d="M679 13h57v-13h-295v145q-45 -152 -193 -152q-94 0 -140.5 49t-46.5 127v345h-56v13h294v-367q0 -48 14 -70t48 -20q35 3 57.5 46t22.5 87v311h-56v13h294v-514zM429 630q-9 0 -17 1t-16.5 4l-14.5 5t-15.5 7l-13.5 7t-15.5 8.5t-14.5 8.5q-39 20 -62 9.5t-30 -41.5h-8
q2 77 26.5 109.5t71.5 30.5q26 -2 70.5 -26t50.5 -26q56 -21 70 33h8q-5 -130 -90 -130z" />
    <glyph glyph-name="Umacron" unicode="&#x16a;" horiz-adv-x="780" 
d="M596 700h174v-13q-80 -22 -80 -157v-231q0 -140 -73.5 -223t-215.5 -83q-149 0 -238 80t-89 226v388h-64v13h384v-13h-65v-388q0 -112 45.5 -168t129.5 -56q77 0 125 59t48 165v231q0 74 -20.5 110.5t-60.5 46.5v13zM319 845h321v-65h-321v65z" />
    <glyph glyph-name="umacron" unicode="&#x16b;" horiz-adv-x="746" 
d="M679 13h57v-13h-295v145q-45 -152 -193 -152q-94 0 -140.5 49t-46.5 127v345h-56v13h294v-367q0 -48 14 -70t48 -20q35 3 57.5 46t22.5 87v311h-56v13h294v-514zM210 695h321v-65h-321v65z" />
    <glyph glyph-name="Ubreve" unicode="&#x16c;" horiz-adv-x="780" 
d="M596 700h174v-13q-80 -22 -80 -157v-231q0 -140 -73.5 -223t-215.5 -83q-149 0 -238 80t-89 226v388h-64v13h384v-13h-65v-388q0 -112 45.5 -168t129.5 -56q77 0 125 59t48 165v231q0 74 -20.5 110.5t-60.5 46.5v13zM607 919h12q0 -74 -36.5 -116.5t-102.5 -42.5
t-102.5 42.5t-36.5 116.5h11q9 -31 43.5 -48.5t84.5 -17.5q49 0 84 17.5t43 48.5z" />
    <glyph glyph-name="ubreve" unicode="&#x16d;" horiz-adv-x="746" 
d="M679 13h57v-13h-295v145q-45 -152 -193 -152q-94 0 -140.5 49t-46.5 127v345h-56v13h294v-367q0 -48 14 -70t48 -20q35 3 57.5 46t22.5 87v311h-56v13h294v-514zM497 769h12q0 -74 -36.5 -116.5t-102.5 -42.5t-102.5 42.5t-36.5 116.5h11q9 -31 43.5 -48.5t84.5 -17.5
q49 0 84 17.5t43 48.5z" />
    <glyph glyph-name="Uring" unicode="&#x16e;" horiz-adv-x="780" 
d="M596 700h174v-13q-80 -22 -80 -157v-231q0 -140 -73.5 -223t-215.5 -83q-149 0 -238 80t-89 226v388h-64v13h384v-13h-65v-388q0 -112 45.5 -168t129.5 -56q77 0 125 59t48 165v231q0 74 -20.5 110.5t-60.5 46.5v13zM490 728q-47 0 -80.5 33.5t-33.5 80.5t33.5 80.5
t80.5 33.5t80.5 -33.5t33.5 -80.5t-33.5 -80.5t-80.5 -33.5zM490 899q-23 0 -40 -17t-17 -40t17 -40t40 -17t39.5 17t16.5 40t-16.5 40t-39.5 17z" />
    <glyph glyph-name="uring" unicode="&#x16f;" horiz-adv-x="746" 
d="M679 13h57v-13h-295v145q-45 -152 -193 -152q-94 0 -140.5 49t-46.5 127v345h-56v13h294v-367q0 -48 14 -70t48 -20q35 3 57.5 46t22.5 87v311h-56v13h294v-514zM370 578q-47 0 -80.5 33.5t-33.5 80.5t33.5 80.5t80.5 33.5t80.5 -33.5t33.5 -80.5t-33.5 -80.5
t-80.5 -33.5zM370 749q-23 0 -40 -17t-17 -40t17 -40t40 -17t39.5 17t16.5 40t-16.5 40t-39.5 17z" />
    <glyph glyph-name="Uhungarumlaut" unicode="&#x170;" horiz-adv-x="780" 
d="M596 700h174v-13q-80 -22 -80 -157v-231q0 -140 -73.5 -223t-215.5 -83q-149 0 -238 80t-89 226v388h-64v13h384v-13h-65v-388q0 -112 45.5 -168t129.5 -56q77 0 125 59t48 165v231q0 74 -20.5 110.5t-60.5 46.5v13zM443 903q52 52 95 11q42 -44 -11 -95
q-21 -21 -57.5 -38.5t-63.5 -24.5l-26 -7l-7 7q23 100 70 147zM720 914q42 -42 -10 -95q-21 -21 -57.5 -38.5t-62.5 -24.5l-27 -7l-7 7q22 100 69 147q54 52 95 11z" />
    <glyph glyph-name="uhungarumlaut" unicode="&#x171;" horiz-adv-x="746" 
d="M679 13h57v-13h-295v145q-45 -152 -193 -152q-94 0 -140.5 49t-46.5 127v345h-56v13h294v-367q0 -48 14 -70t48 -20q35 3 57.5 46t22.5 87v311h-56v13h294v-514zM314 753q52 52 95 11q42 -44 -11 -95q-21 -21 -57.5 -38.5t-62.5 -24.5l-27 -7l-7 7q23 100 70 147z
M591 764q43 -42 -10 -95q-21 -21 -57.5 -38.5t-63.5 -24.5l-26 -7l-7 7q22 100 69 147q54 52 95 11z" />
    <glyph glyph-name="Uogonek" unicode="&#x172;" horiz-adv-x="780" 
d="M597 700h174v-13q-80 -22 -80 -157v-231q0 -113 -48.5 -190t-142.5 -103q-50 -105 -11 -157q20 -27 56.5 -31.5t75.5 16.5l7 -8q-44 -69 -122.5 -83.5t-111.5 37.5q-22 37 -8.5 82.5t43 84.5t57.5 55q-39 -9 -84 -9q-149 0 -238 80t-89 226v388h-65v13h384v-13h-64v-388
q0 -113 45.5 -168.5t129.5 -55.5q77 0 124.5 59t47.5 165v231q0 74 -20 110.5t-60 46.5v13z" />
    <glyph glyph-name="uogonek" unicode="&#x173;" horiz-adv-x="746" 
d="M736 0h-183q-46 -99 -9 -150q21 -27 57.5 -31.5t75.5 16.5l7 -8q-44 -69 -122.5 -83.5t-111.5 37.5q-31 48 4 118t83 101h-96v145q-45 -152 -193 -152q-94 0 -140.5 49t-46.5 127v345h-56v13h294v-367q0 -48 14 -70t48 -20q35 3 57.5 46t22.5 87v311h-56v13h294v-514h57
v-13z" />
    <glyph glyph-name="Wcircumflex" unicode="&#x174;" horiz-adv-x="1151" 
d="M888 700h268v-13q-46 -13 -89.5 -65t-71.5 -135l-166 -487h-97l-177 452l-143 -452h-97l-259 687h-61v13h408v-13h-60l142 -405l133 418h129l158 -437l75 220q27 79 -0.5 136.5t-91.5 67.5v13zM733 919l119 -147l-7 -7l-167 57l-167 -57l-7 7l119 147h110z" />
    <glyph glyph-name="wcircumflex" unicode="&#x175;" horiz-adv-x="987" 
d="M741 527h251v-13q-84 -25 -154 -194l-130 -320h-89l-141 332l-114 -332h-90l-217 514h-62v13h393v-13h-68l107 -290l105 303h111l131 -332l51 124q31 81 6 133t-90 62v13zM638 769l119 -147l-7 -7l-167 57l-167 -57l-7 7l119 147h110z" />
    <glyph glyph-name="Ycircumflex" unicode="&#x176;" horiz-adv-x="770" 
d="M509 700h266v-13q-96 -28 -163 -176l-97 -215v-283h64v-13h-384v13h65v285l-202 389h-63v13h401v-13h-67l178 -369l88 191q33 77 6.5 125t-92.5 53v13zM500 919l119 -147l-7 -7l-167 57l-167 -57l-7 7l119 147h110z" />
    <glyph glyph-name="ycircumflex" unicode="&#x177;" horiz-adv-x="683" 
d="M436 527h252v-13q-86 -26 -161 -196l-137 -311l-161 -331l-161 157v13l258 101l-268 567h-63v13h384v-13h-68l141 -337q62 141 62 142q33 81 10 133t-88 62v13zM463 769l119 -147l-7 -7l-167 57l-167 -57l-7 7l119 147h110z" />
    <glyph glyph-name="Ydieresis" unicode="&#x178;" horiz-adv-x="770" 
d="M509 700h266v-13q-96 -28 -163 -176l-97 -215v-283h64v-13h-384v13h65v285l-202 389h-63v13h401v-13h-67l178 -369l88 191q33 77 6.5 125t-92.5 53v13zM350 935q39 0 66 -27.5t27 -65.5t-27 -65.5t-66 -27.5q-38 0 -65.5 27.5t-27.5 65.5t27.5 65.5t65.5 27.5zM558 935
q39 0 66 -27.5t27 -65.5t-27 -65.5t-66 -27.5q-38 0 -65.5 27.5t-27.5 65.5t27.5 65.5t65.5 27.5z" />
    <glyph glyph-name="Zacute" unicode="&#x179;" horiz-adv-x="671" 
d="M661 700v-13l-376 -665h101q205 0 238 262h18v-284h-632v13l368 666h-68q-61 0 -108 -22t-77 -60t-47 -82.5t-24 -97.5h-17v283h624zM445 914q41 -43 -11 -95q-21 -21 -57.5 -38.5t-62.5 -24.5l-27 -7l-7 7q22 100 69 147q53 52 96 11z" />
    <glyph glyph-name="zacute" unicode="&#x17a;" horiz-adv-x="547" 
d="M537 527v-13l-278 -492h60q88 0 133.5 54t56.5 140h13v-216h-512v13l272 492h-36q-89 0 -140 -55.5t-62 -138.5h-13v216h506zM383 764q41 -43 -11 -95q-21 -21 -57.5 -38.5t-62.5 -24.5l-27 -7l-7 7q22 100 69 147q53 52 96 11z" />
    <glyph glyph-name="Zdotaccent" unicode="&#x17b;" horiz-adv-x="671" 
d="M661 700v-13l-376 -665h101q205 0 238 262h18v-284h-632v13l368 666h-68q-61 0 -108 -22t-77 -60t-47 -82.5t-24 -97.5h-17v283h624zM395 935q39 0 66 -27.5t27 -65.5t-27 -65.5t-66 -27.5q-38 0 -65.5 27.5t-27.5 65.5t27.5 65.5t65.5 27.5z" />
    <glyph glyph-name="zdotaccent" unicode="&#x17c;" horiz-adv-x="547" 
d="M537 527v-13l-278 -492h60q88 0 133.5 54t56.5 140h13v-216h-512v13l272 492h-36q-89 0 -140 -55.5t-62 -138.5h-13v216h506zM303 785q39 0 66 -27.5t27 -65.5t-27 -65.5t-66 -27.5q-38 0 -65.5 27.5t-27.5 65.5t27.5 65.5t65.5 27.5z" />
    <glyph glyph-name="Zcaron" unicode="&#x17d;" horiz-adv-x="671" 
d="M661 700v-13l-376 -665h101q205 0 238 262h18v-284h-632v13l368 666h-68q-61 0 -108 -22t-77 -60t-47 -82.5t-24 -97.5h-17v283h624zM543 919l7 -6l-119 -148h-111l-119 148l7 6l167 -56z" />
    <glyph glyph-name="zcaron" unicode="&#x17e;" horiz-adv-x="547" 
d="M537 527v-13l-278 -492h60q88 0 133.5 54t56.5 140h13v-216h-512v13l272 492h-36q-89 0 -140 -55.5t-62 -138.5h-13v216h506zM471 769l7 -6l-119 -148h-111l-119 148l7 6l167 -56z" />
    <glyph glyph-name="longs" unicode="&#x17f;" horiz-adv-x="455" 
d="M318 729q44 0 142 -19v-161h-15l-57 77q-42 57 -56 74.5t-19 15.5q-3 0 -4.5 -3t-2.5 -17t-1 -36.5v-68.5v-578h97v-13h-392v13h57v501h-57v13h57v9q0 55 20.5 94t57.5 60t79 30t94 9z" />
    <glyph glyph-name="AEacute" unicode="&#x1fc;" horiz-adv-x="1044" 
d="M1013 300h16v-300h-626v13h64v238h-249l-54 -92q-30 -52 -21.5 -95t52.5 -51v-13h-200v13q33 10 79.5 51.5t77.5 95.5l308 527h-57v13h609v-300h-16q-6 43 -17 81t-32 75t-48.5 63.5t-67.5 43t-89 16.5h-20v-322h11q74 0 109.5 32t47.5 99h13v-274h-13q-12 66 -47.5 98
t-109.5 32h-11v-322h37q60 0 107.5 24t76.5 65.5t46 88t24 100.5zM226 264h241v414zM782 914q41 -43 -11 -95q-21 -21 -57.5 -38.5t-63.5 -24.5l-26 -7l-7 7q22 100 69 147q53 52 96 11z" />
    <glyph glyph-name="aeacute" unicode="&#x1fd;" horiz-adv-x="919" 
d="M649 540q128 0 197.5 -68.5t61.5 -205.5h-314q8 -96 49.5 -150.5t113.5 -56.5q43 -1 70.5 16t51.5 46l13 -10q-28 -47 -85.5 -82.5t-144.5 -35.5q-75 0 -140 22t-115 71.5t-64 120.5q-2 -29 -5 -51t-13.5 -55t-26 -54.5t-45 -37.5t-68.5 -16q-75 0 -125 39t-50 118
q0 28 6.5 51.5t16 40.5t26.5 31t32 22.5t39 15.5t41 10t44.5 5.5t42.5 3t42.5 1t37.5 0.5v95q0 24 -1 36.5t-4 30t-12 26t-23 8.5q-25 0 -72.5 -48t-129.5 -157h-12v181q117 37 224 37q101 0 176 -36q76 36 165 36zM231 181q-1 -52 30 -73q29 -20 52 17q26 42 25 141v53
q-59 3 -83 -30t-24 -108zM696 287q4 114 -5.5 177t-41.5 63q-31 0 -47 -68t-9 -172h103zM589 764q41 -43 -11 -95q-21 -21 -57.5 -38.5t-62.5 -24.5l-27 -7l-7 7q22 100 69 147q53 52 96 11z" />
    <glyph glyph-name="Oslashacute" unicode="&#x1fe;" horiz-adv-x="823" 
d="M649 645q78 -45 121 -120.5t43 -176.5q0 -164 -112 -259.5t-289 -95.5q-127 0 -224 51l-33 -44h-22l40 52q-77 45 -120 121t-43 175q0 165 112.5 260t289.5 95q126 0 221 -49l36 46h22zM285 350q0 -82 6 -144l239 313q-11 89 -39.5 131t-78.5 42q-68 0 -97.5 -81
t-29.5 -261zM412 5q68 0 97.5 82.5t29.5 262.5q0 82 -6 144l-239 -312q22 -177 118 -177zM491 914q41 -43 -11 -95q-21 -21 -57.5 -38.5t-62.5 -24.5l-27 -7l-7 7q22 100 69 147q53 52 96 11z" />
    <glyph glyph-name="oslashacute" unicode="&#x1ff;" horiz-adv-x="655" 
d="M551 473q94 -73 94 -207q0 -92 -46.5 -155.5t-116 -90.5t-155.5 -27q-123 0 -208 56l-49 -49h-22l59 58q-97 72 -97 208q0 70 26.5 124t71.5 86t100.5 48t118.5 16q127 0 211 -58l46 45h22zM253 266q0 -43 1 -64l146 144q-7 181 -73 181q-44 0 -59 -67t-15 -194zM327 5
q45 0 59.5 67t14.5 194v59l-146 -143q7 -177 72 -177zM397 764q41 -43 -11 -95q-21 -21 -57.5 -38.5t-62.5 -24.5l-27 -7l-7 7q22 100 69 147q53 52 96 11z" />
    <glyph glyph-name="Scommaaccent" unicode="&#x218;" horiz-adv-x="613" 
d="M214 577q2 -26 25 -47.5t58.5 -37.5t78 -33t83.5 -39.5t74.5 -50.5t52.5 -71t16 -97q-6 -103 -85.5 -155.5t-224.5 -52.5q-63 0 -139.5 12t-129.5 32v231h14q135 -260 245 -260q90 0 99 80q4 34 -14 60.5t-51 45t-73 36.5t-80.5 40.5t-73.5 50.5t-52 73t-16 102
q5 102 77.5 154.5t228.5 52.5q100 0 218 -44v-213h-14l-25 43.5l-24 42l-22 37t-23 34.5l-22 27.5t-23 24.5t-23.5 16.5t-26.5 12t-28 3.5q-49 0 -76.5 -27.5t-23.5 -82.5zM408 -141q0 -73 -54 -143.5t-107 -103.5l-6 12q31 23 61.5 65.5t41.5 70.5q-22 -10 -44 -10
q-45 0 -77 32t-32 77t32 76.5t77 31.5t76.5 -31.5t31.5 -76.5z" />
    <glyph glyph-name="scommaaccent" unicode="&#x219;" horiz-adv-x="504" 
d="M191 449q1 -13 9.5 -24t25 -21t30 -16l39.5 -17l40 -17q47 -21 70.5 -34.5t49.5 -37t33.5 -55t2.5 -74.5q-5 -37 -20 -65t-38.5 -45t-47.5 -27.5t-55.5 -15t-51.5 -6t-47 -1.5q-96 0 -221 34v199h16q132 -212 204 -221q32 -5 50.5 12.5t17.5 53.5q0 40 -62 73
q-13 7 -67 32q-35 15 -57 28t-46 34.5t-36 51.5t-12 69q0 47 17 81.5t41.5 53t58.5 29.5t59.5 14t53.5 3q79 0 207 -35v-182h-17q-67 110 -111 157t-80 47q-29 0 -44.5 -21.5t-11.5 -56.5zM370 -141q0 -73 -54 -143.5t-107 -103.5l-6 12q31 23 61.5 65.5t41.5 70.5
q-22 -10 -44 -10q-45 0 -77 32t-32 77t32 76.5t77 31.5t76.5 -31.5t31.5 -76.5z" />
    <glyph glyph-name="circumflex" unicode="&#x2c6;" horiz-adv-x="368" 
d="M239 719l119 -147l-7 -7l-167 57l-167 -57l-7 7l119 147h110z" />
    <glyph glyph-name="caron" unicode="&#x2c7;" horiz-adv-x="369" 
d="M352 719l7 -6l-119 -148h-111l-119 148l7 6l167 -56z" />
    <glyph glyph-name="breve" unicode="&#x2d8;" horiz-adv-x="298" 
d="M276 719h12q0 -74 -36.5 -116.5t-102.5 -42.5t-102.5 42.5t-36.5 116.5h11q9 -31 43.5 -48.5t84.5 -17.5q49 0 84 17.5t43 48.5z" />
    <glyph glyph-name="dotaccent" unicode="&#x2d9;" horiz-adv-x="206" 
d="M103 735q39 0 66 -27.5t27 -65.5t-27 -65.5t-66 -27.5q-38 0 -65.5 27.5t-27.5 65.5t27.5 65.5t65.5 27.5z" />
    <glyph glyph-name="ring" unicode="&#x2da;" horiz-adv-x="248" 
d="M124 528q-47 0 -80.5 33.5t-33.5 80.5t33.5 80.5t80.5 33.5t80.5 -33.5t33.5 -80.5t-33.5 -80.5t-80.5 -33.5zM124 699q-23 0 -40 -17t-17 -40t17 -40t40 -17t39.5 17t16.5 40t-16.5 40t-39.5 17z" />
    <glyph glyph-name="ogonek" unicode="&#x2db;" horiz-adv-x="268" 
d="M130 7q-49 -104 -11 -157q20 -27 56.5 -31.5t75.5 16.5l7 -8q-43 -69 -122 -83.5t-112 37.5q-23 40 -7.5 87t47.5 87t59 52h7z" />
    <glyph glyph-name="tilde" unicode="&#x2dc;" horiz-adv-x="317" 
d="M217 580q-9 0 -17 1t-16.5 4l-14.5 5t-15.5 7l-13.5 7t-15.5 8.5t-14.5 8.5q-39 20 -62 9.5t-30 -41.5h-8q2 77 26.5 109.5t71.5 30.5q26 -2 70.5 -26t50.5 -26q56 -21 70 33h8q-5 -130 -90 -130z" />
    <glyph glyph-name="hungarumlaut" unicode="&#x2dd;" horiz-adv-x="386" 
d="M80 703q52 52 95 11q42 -44 -11 -95q-21 -21 -57.5 -38.5t-62.5 -24.5l-27 -7l-7 7q23 100 70 147zM357 714q43 -42 -10 -95q-21 -21 -57.5 -38.5t-63.5 -24.5l-26 -7l-7 7q22 100 69 147q54 52 95 11z" />
    <glyph glyph-name="Wgrave" unicode="&#x1e80;" horiz-adv-x="1151" 
d="M888 700h268v-13q-46 -13 -89.5 -65t-71.5 -135l-166 -487h-97l-177 452l-143 -452h-97l-259 687h-61v13h408v-13h-60l142 -405l133 418h129l158 -437l75 220q27 79 -0.5 136.5t-91.5 67.5v13zM691 903q21 -21 38.5 -57.5t24.5 -63.5l7 -26l-7 -7q-100 22 -147 70
q-54 52 -11 95q42 42 95 -11z" />
    <glyph glyph-name="wgrave" unicode="&#x1e81;" horiz-adv-x="987" 
d="M741 527h251v-13q-84 -25 -154 -194l-130 -320h-89l-141 332l-114 -332h-90l-217 514h-62v13h393v-13h-68l107 -290l105 303h111l131 -332l51 124q31 81 6 133t-90 62v13zM589 753q21 -21 38.5 -57.5t24.5 -63.5l7 -26l-7 -7q-100 22 -147 70q-54 52 -11 95q42 42 95 -11
z" />
    <glyph glyph-name="Wacute" unicode="&#x1e82;" horiz-adv-x="1151" 
d="M888 700h268v-13q-46 -13 -89.5 -65t-71.5 -135l-166 -487h-97l-177 452l-143 -452h-97l-259 687h-61v13h408v-13h-60l142 -405l133 418h129l158 -437l75 220q27 79 -0.5 136.5t-91.5 67.5v13zM755 914q41 -43 -11 -95q-21 -21 -57.5 -38.5t-62.5 -24.5l-27 -7l-7 7
q22 100 69 147q53 52 96 11z" />
    <glyph glyph-name="wacute" unicode="&#x1e83;" horiz-adv-x="987" 
d="M741 527h251v-13q-84 -25 -154 -194l-130 -320h-89l-141 332l-114 -332h-90l-217 514h-62v13h393v-13h-68l107 -290l105 303h111l131 -332l51 124q31 81 6 133t-90 62v13zM683 764q41 -43 -11 -95q-21 -21 -57.5 -38.5t-62.5 -24.5l-27 -7l-7 7q22 100 69 147
q53 52 96 11z" />
    <glyph glyph-name="Wdieresis" unicode="&#x1e84;" horiz-adv-x="1151" 
d="M888 700h268v-13q-46 -13 -89.5 -65t-71.5 -135l-166 -487h-97l-177 452l-143 -452h-97l-259 687h-61v13h408v-13h-60l142 -405l133 418h129l158 -437l75 220q27 79 -0.5 136.5t-91.5 67.5v13zM578 935q39 0 66 -27.5t27 -65.5t-27 -65.5t-66 -27.5q-38 0 -65.5 27.5
t-27.5 65.5t27.5 65.5t65.5 27.5zM786 935q39 0 66 -27.5t27 -65.5t-27 -65.5t-66 -27.5q-38 0 -65.5 27.5t-27.5 65.5t27.5 65.5t65.5 27.5z" />
    <glyph glyph-name="wdieresis" unicode="&#x1e85;" horiz-adv-x="987" 
d="M741 527h251v-13q-84 -25 -154 -194l-130 -320h-89l-141 332l-114 -332h-90l-217 514h-62v13h393v-13h-68l107 -290l105 303h111l131 -332l51 124q31 81 6 133t-90 62v13zM479 785q39 0 66 -27.5t27 -65.5t-27 -65.5t-66 -27.5q-38 0 -65.5 27.5t-27.5 65.5t27.5 65.5
t65.5 27.5zM687 785q39 0 66 -27.5t27 -65.5t-27 -65.5t-66 -27.5q-38 0 -65.5 27.5t-27.5 65.5t27.5 65.5t65.5 27.5z" />
    <glyph glyph-name="Ygrave" unicode="&#x1ef2;" horiz-adv-x="770" 
d="M509 700h266v-13q-96 -28 -163 -176l-97 -215v-283h64v-13h-384v13h65v285l-202 389h-63v13h401v-13h-67l178 -369l88 191q33 77 6.5 125t-92.5 53v13zM440 903q21 -21 38.5 -57.5t24.5 -63.5l7 -26l-7 -7q-100 22 -147 70q-54 52 -11 95q42 42 95 -11z" />
    <glyph glyph-name="ygrave" unicode="&#x1ef3;" horiz-adv-x="683" 
d="M436 527h252v-13q-86 -26 -161 -196l-137 -311l-161 -331l-161 157v13l258 101l-268 567h-63v13h384v-13h-68l141 -337q62 141 62 142q33 81 10 133t-88 62v13zM387 753q21 -21 38.5 -57.5t24.5 -63.5l7 -26l-7 -7q-100 22 -147 70q-54 52 -11 95q42 42 95 -11z" />
    <glyph glyph-name="endash" unicode="&#x2013;" horiz-adv-x="415" 
d="M10 361h395v-65h-395v65z" />
    <glyph glyph-name="emdash" unicode="&#x2014;" horiz-adv-x="456" 
d="M10 361h436v-65h-436v65z" />
    <glyph glyph-name="quoteleft" unicode="&#x2018;" horiz-adv-x="237" 
d="M119 704q45 0 76.5 -32t31.5 -77t-31.5 -76.5t-76.5 -31.5t-77 31.5t-32 76.5q0 73 54.5 143.5t106.5 102.5l7 -11q-32 -23 -62.5 -66.5t-40.5 -69.5q20 10 44 10z" />
    <glyph glyph-name="quoteright" unicode="&#x2019;" horiz-adv-x="237" 
d="M227 595q0 -72 -54.5 -143t-106.5 -103l-6 11q31 23 61.5 66t41.5 70q-20 -9 -44 -9q-45 0 -77 31.5t-32 76.5t32 76.5t77 31.5t76.5 -31.5t31.5 -76.5z" />
    <glyph glyph-name="quotesinglbase" unicode="&#x201a;" horiz-adv-x="237" 
d="M227 102q0 -72 -54 -142.5t-107 -104.5l-7 12q32 23 62.5 66.5t40.5 69.5q-20 -10 -44 -10q-45 0 -76.5 32t-31.5 77q0 44 31.5 76t76.5 32t77 -32t32 -76z" />
    <glyph glyph-name="quotedblleft" unicode="&#x201c;" horiz-adv-x="484" 
d="M366 704q44 0 76 -32t32 -77t-32 -76.5t-76 -31.5q-45 0 -77 31.5t-32 76.5q0 73 54.5 143.5t106.5 102.5l6 -11q-31 -23 -61.5 -66t-40.5 -70q20 10 44 10zM118 704q45 0 76.5 -32t31.5 -77t-31.5 -76.5t-76.5 -31.5t-76.5 31.5t-31.5 76.5q0 73 54 143.5t106 102.5
l7 -11q-31 -23 -61.5 -65.5t-41.5 -70.5q22 10 44 10z" />
    <glyph glyph-name="quotedblright" unicode="&#x201d;" horiz-adv-x="484" 
d="M118 703q45 0 76.5 -31.5t31.5 -76.5q0 -72 -54 -143t-106 -103l-7 11q31 23 61.5 66t41.5 70q-20 -9 -44 -9q-45 0 -76.5 31.5t-31.5 76.5t31.5 76.5t76.5 31.5zM365 703q45 0 77 -31.5t32 -76.5q0 -72 -54.5 -143t-106.5 -103l-7 11q31 23 62 66.5t41 69.5
q-18 -9 -44 -9q-45 0 -76.5 31.5t-31.5 76.5t31.5 76.5t76.5 31.5z" />
    <glyph glyph-name="quotedblbase" unicode="&#x201e;" horiz-adv-x="485" 
d="M119 210q45 0 76.5 -32t31.5 -76q0 -73 -54 -143.5t-107 -103.5l-6 12q31 23 61.5 66t41.5 70q-22 -10 -44 -10q-45 0 -77 32t-32 77q0 44 32 76t77 32zM366 210q45 0 77 -32t32 -76q0 -72 -54 -142.5t-107 -104.5l-7 12q32 23 62.5 66.5t40.5 69.5q-20 -10 -44 -10
q-45 0 -76.5 32t-31.5 77q0 44 31.5 76t76.5 32z" />
    <glyph glyph-name="dagger" unicode="&#x2020;" horiz-adv-x="327" 
d="M303 525h14v-85h-14l-138 41l41 -216l-40 -143h-6l-39 143l41 216l-138 -41h-14v85h14l138 -41l-41 138v14h85v-14l-41 -138z" />
    <glyph glyph-name="daggerdbl" unicode="&#x2021;" horiz-adv-x="327" 
d="M317 448h-14l-136 40l39 -150l-39 -150l136 40h14v-86h-14l-135 41l38 -129v-14h-85v14l38 129l-135 -41h-14v86h14l136 -40l-39 150l39 150l-136 -40h-14v85h14l135 -40l-38 129v14h85v-14l-38 -129l135 40h14v-85z" />
    <glyph glyph-name="bullet" unicode="&#x2022;" horiz-adv-x="230" 
d="M115 552q44 0 74.5 -31t30.5 -75t-31 -74.5t-74 -30.5t-74 30.5t-31 74.5t30.5 75t74.5 31z" />
    <glyph glyph-name="ellipsis" unicode="&#x2026;" horiz-adv-x="748" 
d="M118 210q45 0 76.5 -32t31.5 -76q0 -45 -31.5 -77t-76.5 -32t-76.5 32t-31.5 77q0 44 31.5 76t76.5 32zM374 210q45 0 76.5 -32t31.5 -76q0 -45 -31.5 -77t-76.5 -32t-76.5 32t-31.5 77q0 44 31.5 76t76.5 32zM630 210q45 0 76.5 -32t31.5 -76q0 -45 -31.5 -77t-76.5 -32
t-76.5 32t-31.5 77q0 44 31.5 76t76.5 32z" />
    <glyph glyph-name="perthousand" unicode="&#x2030;" horiz-adv-x="1252" 
d="M400 531q0 -76 -54 -124.5t-141 -48.5t-141 48.5t-54 124.5t54 124t141 48t141 -48t54 -124zM158 531q0 -161 47 -161t47 161t-47 161t-47 -161zM619 338q87 0 141 -48t54 -124t-54 -124.5t-141 -48.5t-141 48.5t-54 124.5t54 124t141 48zM619 4q47 0 47 162
q0 161 -47 161t-47 -161q0 -162 47 -162zM665 700h22l-536 -700h-22zM1047 338q87 0 141 -48t54 -124t-54 -124.5t-141 -48.5t-141 48.5t-54 124.5t54 124t141 48zM1047 4q47 0 47 162q0 161 -47 161t-47 -161q0 -162 47 -162z" />
    <glyph glyph-name="guilsinglleft" unicode="&#x2039;" horiz-adv-x="200" 
d="M190 470l-66 -147l66 -147l-7 -5l-173 138v28l173 139z" />
    <glyph glyph-name="guilsinglright" unicode="&#x203a;" horiz-adv-x="201" 
d="M17 476l174 -139v-28l-174 -138l-7 5l66 147l-66 147z" />
    <glyph glyph-name="fraction" unicode="&#x2044;" horiz-adv-x="332" 
d="M257 700h65l-247 -779h-65z" />
    <glyph glyph-name="Euro" unicode="&#x20ac;" horiz-adv-x="770" 
d="M746 158l14 -11q-37 -61 -111.5 -107.5t-184.5 -46.5q-100 0 -183.5 28.5t-145.5 95t-78 164.5h-77l9 22h66q-3 21 -3 45q0 25 3 49h-75l9 21h69q18 96 84 162.5t151 94.5t183 28q117 0 269 -57v-267h-17l-49 93.5l-41 73t-40 63.5t-34 40.5t-37 30t-35 7.5
q-66 0 -114 -75t-51 -194h262l-8 -21h-254q0 -23 3 -49q1 -17 7 -45h219l-8 -22h-206q25 -91 86.5 -145.5t135.5 -55.5q114 -2 182 78z" />
    <glyph glyph-name="Ruble" unicode="&#x20bd;" horiz-adv-x="701" 
d="M395 256h-66v-71h170v-21h-170v-151h98v-13h-417v13h64v151h-64v21h64v502h-64v13h385q296 0 296 -222t-296 -222zM329 678v-409h15q110 0 110 209q0 200 -110 200h-15z" />
    <glyph glyph-name="Bitcoin" unicode="&#x20bf;" horiz-adv-x="743" 
d="M733 189q0 -57 -23.5 -96t-67.5 -58.5t-94 -27t-117 -7.5v-82h-22v82h-79v-82h-22v82h-298v13h65v674h-65v13h298v82h22v-82h41q26 0 38 -1v83h22v-84q244 -14 244 -171q0 -70 -67.5 -109t-155.5 -42v-4q122 6 201.5 -41t79.5 -142zM336 678h-6v-305h6q31 0 51 13
t29.5 37.5t12.5 48t3 55.5q0 67 -20 109t-76 42zM377 22q105 0 105 167q0 171 -105 171h-47v-338h47z" />
    <glyph glyph-name="afii61352" unicode="&#x2116;" horiz-adv-x="1270" 
d="M818 700v-13q-59 -11 -94.5 -83.5t-35.5 -156.5v-447h-93l-441 558v-305q0 -81 42.5 -154.5t103.5 -85.5v-13h-290v13q60 11 95 83.5t35 156.5v322l-88 112h-34v13h341l316 -399v146q0 81 -43 154.5t-104 85.5v13h290zM786 301h489v-22h-489v22zM1031 358
q-87 0 -141 48.5t-54 124.5t54 124t141 48t141 -48t54 -124t-54 -124.5t-141 -48.5zM1031 692q-47 0 -47 -161t47 -161t47 161t-47 161z" />
    <glyph glyph-name="minus" unicode="&#x2212;" horiz-adv-x="374" 
d="M364 296h-354v65h354v-65z" />
    <glyph glyph-name="approxequal" unicode="&#x2248;" horiz-adv-x="420" 
d="M297 355q-13 0 -26 2.5t-22 5t-23.5 9.5l-20.5 10t-23.5 13.5t-21.5 12.5q-49 24 -77.5 11t-37.5 -52h-11q4 97 34.5 138.5t89.5 37.5q33 -2 89 -32.5t64 -33.5q72 -27 88 42h11q-6 -164 -113 -164zM272 157q-13 0 -26 2.5t-21.5 4.5t-24.5 10t-19.5 10l-23 13.5
t-21.5 12.5q-49 24 -78 11t-38 -52h-10q3 97 33.5 138.5t89.5 37.5q34 -2 90.5 -33t62.5 -33q72 -26 89 42h10q-5 -164 -113 -164z" />
    <glyph glyph-name="notequal" unicode="&#x2260;" horiz-adv-x="374" 
d="M364 356h-146l-42 -55h188v-65h-239l-65 -85l-12 10l58 75h-96v65h146l43 55h-189v65h239l65 85l13 -10l-58 -75h95v-65z" />
    <glyph glyph-name="lessequal" unicode="&#x2264;" horiz-adv-x="374" 
d="M10 154v65h354v-65h-354zM364 590v-65l-271 -101l271 -101v-65l-354 132v68z" />
    <glyph glyph-name="greaterequal" unicode="&#x2265;" horiz-adv-x="374" 
d="M10 154v65h354v-65h-354zM10 590l354 -132v-68l-354 -132v65l271 101l-271 101v65z" />
    <glyph glyph-name="commaaccent" unicode="&#xf6c3;" horiz-adv-x="237" 
d="M227 -121q0 -73 -54 -143.5t-107 -103.5l-6 12q31 23 61.5 65.5t41.5 70.5q-22 -10 -44 -10q-45 0 -77 32t-32 77t32 76.5t77 31.5t76.5 -31.5t31.5 -76.5z" />
    </font>
</defs>
</svg>
