<?xml version="1.0" standalone="no"?>
<!DOCTYPE svg PUBLIC "-//W3C//DTD SVG 1.1//EN" "http://www.w3.org/Graphics/SVG/1.1/DTD/svg11.dtd" >
<svg>
<metadata>
Created by FontForge 20090622 at Sat Aug 24 06:02:02 2019
 By deploy user
Copyright (c) 2019 by MadeType. All rights reserved.
</metadata>
<defs>
<font id="MADECoachella-Medium" horiz-adv-x="358" >
  <font-face 
    font-family="MADE Coachella"
    font-weight="500"
    font-stretch="normal"
    units-per-em="1000"
    panose-1="2 0 6 3 0 0 0 2 0 4"
    ascent="800"
    descent="-200"
    x-height="527"
    cap-height="700"
    bbox="-25 -383 1262 948"
    underline-thickness="50"
    underline-position="-50"
    unicode-range="U+0020-U+F6C3"
  />
<missing-glyph horiz-adv-x="350" 
 />
    <glyph glyph-name=".notdef" horiz-adv-x="350" 
 />
    <glyph glyph-name=".null" horiz-adv-x="0" 
 />
    <glyph glyph-name="nonmarkingreturn" horiz-adv-x="333" 
 />
    <glyph glyph-name="space" unicode=" " horiz-adv-x="350" 
 />
    <glyph glyph-name="exclam" unicode="!" horiz-adv-x="287" 
d="M144 199q43 0 73 -30t30 -73t-30 -73t-73 -30t-73.5 30t-30.5 73t30.5 73t73.5 30zM147 264h-7q-5 5 -12.5 15t-26.5 41.5t-33 65.5t-24 85.5t-7 102.5q4 62 33.5 95.5t73.5 33.5q43 0 72.5 -33.5t33.5 -95.5q3 -51 -6.5 -101.5t-25 -86.5t-32 -64.5t-28.5 -43.5z" />
    <glyph glyph-name="quotedbl" unicode="&#x22;" horiz-adv-x="319" 
d="M88 703q23 0 37 -19t14 -55q0 -30 -11.5 -68.5t-23.5 -62.5l-11 -23h-10q-47 87 -47 154q0 36 14.5 55t37.5 19zM232 703q23 0 37 -19t14 -55q0 -30 -11.5 -68.5t-23.5 -62.5l-12 -23h-9q-47 87 -47 154q0 36 14.5 55t37.5 19z" />
    <glyph glyph-name="numbersign" unicode="#" horiz-adv-x="726" 
d="M675 453h-118l-55 -212h120l-15 -57h-120l-47 -184h-57l47 184h-205l-47 -184h-57l48 184h-133l14 57h133l55 212h-142l14 57h143l49 190h57l-49 -190h205l49 190h57l-49 -190h118zM445 241l55 212h-205l-55 -212h205z" />
    <glyph glyph-name="dollar" unicode="$" horiz-adv-x="603" 
d="M305 454l52 -23.5l56 -25.5t50.5 -26.5t47.5 -33t35.5 -38.5t24.5 -50t5 -60q-12 -195 -271 -203v-76h-21v75h-2q-114 0 -253 44v198h12q58 -123 109 -175t125 -52q1 0 4 0.5t5 0.5v231q-15 8 -49.5 23.5t-53 25t-47.5 26.5t-45.5 33.5t-33 39t-23.5 50t-5 60.5
q5 95 66 146t191 58v81h21v-80h20q72 0 202 -44v-180h-12q-54 122 -92 165.5t-103 43.5h-15v-234zM187 577q2 -62 97 -113v221q-45 -7 -71.5 -34t-25.5 -74zM396 88q8 47 -16 79.5t-75 60.5v-218q78 11 91 78z" />
    <glyph glyph-name="percent" unicode="%" horiz-adv-x="860" 
d="M410 531q0 -76 -51 -124t-136 -48t-136 48t-51 124t51 124t136 48t136 -48t51 -124zM168 531q0 -161 55 -161q26 0 41 42t15 119t-15 119t-41 42q-55 0 -55 -161zM637 338q85 0 136 -48t51 -124t-51.5 -124.5t-135.5 -48.5t-135.5 48.5t-51.5 124.5t51 124t136 48zM637 5
q26 0 41 42t15 119t-15 119t-41 42q-55 0 -55 -161t55 -161zM683 700h22l-536 -700h-21z" />
    <glyph glyph-name="ampersand" unicode="&#x26;" horiz-adv-x="723" 
d="M671 13h51v-13h-220l-42 46q-65 -49 -155 -53q-126 -5 -204 42.5t-74 142.5q3 71 50.5 113t119.5 48q-63 73 -89 116.5t-28 87.5q-4 81 47.5 120.5t150.5 39.5q104 0 156 -45t48 -109q-3 -56 -46.5 -97t-118.5 -51l221 -246q18 35 25 62q18 55 12.5 89t-24 50t-53.5 21
v10h197v-10q-42 -11 -61.5 -39.5t-56.5 -123.5q-14 -35 -32 -67zM278 687q-56 0 -73.5 -49.5t22.5 -116.5q36 -57 83 -112q41 68 50.5 133t-12.5 105t-70 40zM315 23q75 -11 137 32l-243 270q-22 -16 -35 -49t-11.5 -72.5t15 -77t49.5 -66.5t88 -37z" />
    <glyph glyph-name="quotesingle" unicode="'" horiz-adv-x="175" 
d="M87 703q23 0 37.5 -19t14.5 -55q0 -30 -11.5 -68.5t-23.5 -62.5l-12 -23h-9q-47 87 -47 154q0 36 14 55t37 19z" />
    <glyph glyph-name="parenleft" unicode="(" horiz-adv-x="430" 
d="M404 771q-87 -58 -134 -183t-47 -290t47 -290t134 -182v-16q-166 46 -267 177.5t-101 310.5t101 311t267 177v-15z" />
    <glyph glyph-name="parenright" unicode=")" horiz-adv-x="430" 
d="M26 786q166 -45 267 -177t101 -311t-101 -310.5t-267 -177.5v16q87 57 134 182t47 290t-47 290t-134 183v15z" />
    <glyph glyph-name="asterisk" unicode="*" horiz-adv-x="390" 
d="M354 593l-14 -5l-142 -6l112 -88l8 -11l-65 -48l-9 12l-49 133l-49 -133l-9 -12l-65 48l9 11l111 88l-142 6l-14 5l25 76l14 -4l118 -79l-38 137v14h81v-14l-39 -137l118 79l14 4z" />
    <glyph glyph-name="plus" unicode="+" horiz-adv-x="426" 
d="M390 357v-57h-148v-148h-57v148h-149v57h149v148h57v-148h148z" />
    <glyph glyph-name="comma" unicode="," horiz-adv-x="278" 
d="M242 96q0 -69 -51.5 -136.5t-101.5 -98.5l-6 12q30 22 59 62.5t39 66.5q-18 -9 -42 -9q-43 0 -73 30t-30 73t30 73t73 30t73 -30t30 -73z" />
    <glyph glyph-name="hyphen" unicode="-" horiz-adv-x="425" 
d="M36 357h353v-57h-353v57z" />
    <glyph glyph-name="period" unicode="." horiz-adv-x="278" 
d="M139 199q43 0 73 -30t30 -73t-30 -73t-73 -30t-73 30t-30 73t30 73t73 30z" />
    <glyph glyph-name="slash" unicode="/" horiz-adv-x="376" 
d="M283 700h57l-248 -779h-56z" />
    <glyph glyph-name="zero" unicode="0" horiz-adv-x="661" 
d="M331 703q134 0 219 -95t85 -260t-85 -260t-219 -95t-219.5 95.5t-85.5 259.5q0 165 85 260t220 95zM331 8q55 0 81 81.5t26 258.5q0 178 -26 258.5t-81 80.5q-56 0 -81.5 -80.5t-25.5 -258.5t25.5 -259t81.5 -81z" />
    <glyph glyph-name="one" unicode="1" horiz-adv-x="390" 
d="M289 13h65v-13h-318v13h64v567h-64v13l236 107h17v-687z" />
    <glyph glyph-name="two" unicode="2" horiz-adv-x="582" 
d="M535 219h11v-219h-510v13q169 225 235.5 340t79.5 208q18 126 -55 126q-55 0 -100.5 -63.5t-97.5 -186.5h-13v220q140 46 205 46q133 0 197 -49t57 -145q-5 -60 -48 -118.5t-106 -103t-117.5 -74t-104.5 -49.5h367v55z" />
    <glyph glyph-name="three" unicode="3" horiz-adv-x="553" 
d="M290 373q121 7 179.5 -45t56.5 -132q-4 -99 -78.5 -151t-209.5 -52q-78 0 -212 44v214h14q54 -121 99.5 -182t98.5 -61q42 0 66 47.5t21 133.5q-4 85 -33.5 123.5t-92.5 51.5v16q56 9 87 43t37 115q13 149 -78 149q-41 0 -82 -56t-90 -169h-14v198q131 43 192 43
q116 0 184.5 -40t67.5 -118q-2 -72 -57 -118t-156 -50v-4z" />
    <glyph glyph-name="four" unicode="4" horiz-adv-x="602" 
d="M591 180h-90v-167h65v-13h-318v13h65v167h-312v13q62 52 102.5 146.5t44.5 185t-25 162.5v13h225q8 -84 -9 -161t-49.5 -132t-76 -100.5t-83 -72t-76.5 -41.5h259v108l177 242h11v-350h90v-13z" />
    <glyph glyph-name="five" unicode="5" horiz-adv-x="528" 
d="M71 376q86 37 159.5 47t123 -3t84.5 -43t50 -70.5t13 -88.5q-5 -105 -71.5 -165t-201.5 -60q-71 0 -202 43v223h13q27 -63 46 -101t43 -76.5t47.5 -56t48.5 -17.5q40 0 64.5 47t21.5 134q-1 40 -8.5 69t-24 55t-44.5 38.5t-71.5 18t-102.5 -6.5l25 337h355v55h12v-219
h-368z" />
    <glyph glyph-name="six" unicode="6" horiz-adv-x="622" 
d="M385 441q101 -7 156 -65t55 -147q0 -117 -75 -176.5t-200 -59.5q-132 0 -213.5 82.5t-81.5 232.5q0 196 89.5 295.5t235.5 99.5q69 0 191 -42v-183h-13q-51 110 -92.5 159.5t-85.5 49.5q-115 0 -131 -279q30 15 78.5 25.5t86.5 7.5zM321 8q55 0 74.5 57t19.5 164
q0 99 -47 145t-149 20q-1 -27 -1 -86t5 -109t16 -94.5t32 -70.5t50 -26z" />
    <glyph glyph-name="seven" unicode="7" horiz-adv-x="541" 
d="M36 700h469v-13q-66 -143 -114.5 -336.5t-48.5 -350.5h-203q0 170 81 316t217 220h-390v-55h-11v219z" />
    <glyph glyph-name="eight" unicode="8" horiz-adv-x="613" 
d="M375 373q108 -4 160.5 -53.5t50.5 -133.5q-2 -98 -80 -145.5t-200 -47.5q-121 0 -199 47.5t-80 145.5q-2 84 50.5 133.5t160.5 53.5v4q-83 7 -127.5 48.5t-44.5 111.5q0 81 62.5 123.5t177.5 42.5t178 -42.5t63 -123.5q0 -70 -44.5 -111.5t-127.5 -48.5v-4zM221 538
q0 -158 85 -158q86 0 86 158q0 149 -86 149q-39 0 -62 -36.5t-23 -112.5zM306 8q45 0 70 45t25 136q0 175 -95 175t-95 -175q0 -90 25.5 -135.5t69.5 -45.5z" />
    <glyph glyph-name="nine" unicode="9" horiz-adv-x="623" 
d="M301 703q132 0 214 -82t82 -232q0 -196 -90 -296t-236 -100q-71 0 -191 43v182h13q52 -110 93 -160t85 -50q115 0 131 281q-30 -15 -78.5 -26t-86.5 -8q-101 7 -156 65t-55 147q0 117 75 176.5t200 59.5zM207 467q0 -99 47 -145t149 -19q2 52 2 86q0 127 -24 212.5
t-80 85.5q-55 0 -74.5 -56t-19.5 -164z" />
    <glyph glyph-name="colon" unicode=":" horiz-adv-x="278" 
d="M139 199q43 0 73 -30t30 -73t-30 -73t-73 -30t-73 30t-30 73t30 73t73 30zM139 388q-43 0 -73 30t-30 73t30 73t73 30t73 -30t30 -73t-30 -73t-73 -30z" />
    <glyph glyph-name="semicolon" unicode=";" horiz-adv-x="278" 
d="M139 388q-43 0 -73 30t-30 73t30 73t73 30t73 -30t30 -73t-30 -73t-73 -30zM139 199q43 0 73 -30t30 -73q0 -69 -51.5 -136.5t-101.5 -98.5l-6 12q30 22 59 62.5t39 66.5q-18 -9 -42 -9q-43 0 -73 30t-30 73t30 73t73 30z" />
    <glyph glyph-name="less" unicode="&#x3c;" horiz-adv-x="426" 
d="M390 501v-57l-282 -105l282 -105v-57l-354 132v60z" />
    <glyph glyph-name="equal" unicode="=" horiz-adv-x="425" 
d="M36 417h353v-57h-353v57zM36 240v57h353v-57h-353z" />
    <glyph glyph-name="greater" unicode="&#x3e;" horiz-adv-x="425" 
d="M36 501l353 -132v-60l-353 -132v57l282 105l-282 105v57z" />
    <glyph glyph-name="question" unicode="?" horiz-adv-x="531" 
d="M230 199q43 0 73 -30t30 -73t-30 -73t-73 -30t-73 30t-30 73t30 73t73 30zM494 533q4 -97 -66 -154.5t-204 -69.5v-45h-13v57q76 36 76 201q0 172 -84 165q-36 -3 -68 -57t-88 -185h-11v220q136 38 192 38q120 0 191 -43.5t75 -126.5z" />
    <glyph glyph-name="at" unicode="@" horiz-adv-x="1053" 
d="M619 121q-20 -53 -70 -90.5t-115 -37.5q-91 0 -162.5 72.5t-71.5 201.5t71.5 201t162.5 72q64 0 114.5 -37.5t70.5 -89.5v114h245v-13h-56v-372q0 -52 23 -69t56 -11q46 7 85 66t39 184q0 190 -123 306.5t-335 116.5q-246 0 -378 -128t-132 -350q0 -104 44 -203.5
t123 -150.5q118 -76 296.5 -86.5t312.5 46.5l6 -15q-121 -46 -254 -47t-224 25t-146 63q-82 56 -128.5 158.5t-46.5 209.5q0 41 5 82t20 91.5t39 94.5t65 86.5t94.5 73t131.5 49t172 18.5q221 0 347.5 -121.5t126.5 -318.5q0 -151 -61 -235t-182 -84q-72 0 -114 35t-51 93z
M536 85q26 3 49.5 20t33.5 43v237q-10 27 -33.5 44t-49.5 19q-63 8 -102 -42t-39 -139q0 -90 39 -139.5t102 -42.5z" />
    <glyph glyph-name="A" unicode="A" horiz-adv-x="796" 
d="M731 13h64v-13h-355v13h57l-95 205h-242l-24 -60q-20 -56 -1 -96t65 -49v-13h-199v13q31 9 65.5 48.5t56.5 96.5l217 542h47zM165 231h231l-124 265z" />
    <glyph glyph-name="B" unicode="B" horiz-adv-x="751" 
d="M451 372q122 6 198 -40.5t76 -142.5q0 -57 -23.5 -96t-68 -58.5t-94 -27t-117.5 -7.5h-386v13h64v674h-64v13h328q67 0 117.5 -7.5t95 -26t68 -53.5t23.5 -86q0 -70 -65.5 -110t-151.5 -41v-4zM337 679h-31v-306h31q129 0 129 154q0 152 -129 152zM378 22q146 0 146 167
q0 88 -39 129.5t-107 41.5h-72v-338h72z" />
    <glyph glyph-name="C" unicode="C" horiz-adv-x="723" 
d="M678 158l14 -11q-37 -62 -106.5 -108t-174.5 -46q-78 0 -146.5 21.5t-122.5 63.5t-85 111.5t-31 158.5q0 86 32 155t87 112t124.5 65.5t148.5 22.5q102 0 259 -59v-244h-13q-60 151 -112 219t-107 68q-85 0 -145 -95t-46 -244q11 -119 82 -193t169 -75q64 -1 102.5 20.5
t70.5 57.5z" />
    <glyph glyph-name="D" unicode="D" horiz-adv-x="826" 
d="M800 350q0 -347 -441 -350h-323v13h65v674h-65v13h323q441 -3 441 -350zM379 22q203 0 203 328q0 329 -203 329h-73v-657h73z" />
    <glyph glyph-name="E" unicode="E" horiz-adv-x="671" 
d="M628 284h12v-284h-604v13h65v674h-65v13h588v-283h-13q-7 56 -20.5 98t-38.5 81.5t-69 61t-104 21.5h-73v-322h58q74 0 101.5 24t39.5 90h13v-241h-13q-12 66 -39 90t-102 24h-58v-322h90q60 0 103.5 21t69 60.5t38.5 82t21 98.5z" />
    <glyph glyph-name="F" unicode="F" horiz-adv-x="642" 
d="M36 700h580v-283h-13q-7 56 -20.5 98t-38.5 81.5t-69 61t-104 21.5h-65v-330h59q75 0 101.5 23.5t38.5 90.5h13v-241h-13q-12 67 -38.5 90.5t-101.5 23.5h-59v-323h106v-13h-376v13h65v674h-65v13z" />
    <glyph glyph-name="G" unicode="G" horiz-adv-x="771" 
d="M760 313v-13h-56v-300h-13v58q-46 -22 -70 -32.5t-71.5 -21.5t-97.5 -11q-123 0 -217 37t-151.5 118.5t-57.5 199.5q0 172 116.5 263.5t309.5 91.5q104 0 226 -46v-213h-12l-38.5 86.5t-34.5 65.5t-39.5 52.5t-44 28t-57.5 11.5q-83 0 -146 -91.5t-63 -248.5t62 -240
t157 -91q32 -3 61 2v281h-64v13h301z" />
    <glyph glyph-name="H" unicode="H" horiz-adv-x="849" 
d="M813 687h-64v-674h64v-13h-334v13h64v323h-237v-323h65v-13h-335v13h65v674h-65v13h335v-13h-65v-330h237v330h-64v13h334v-13z" />
    <glyph glyph-name="I" unicode="I" horiz-adv-x="406" 
d="M370 687h-64v-674h64v-13h-334v13h65v674h-65v13h334v-13z" />
    <glyph glyph-name="J" unicode="J" horiz-adv-x="591" 
d="M570 700v-13h-65v-401q0 -163 -67 -228t-233 -65q-48 0 -89 10.5t-105 35.5v229h10q70 -161 101 -205q39 -55 83 -55q95 0 95 187v492h-97v13h367z" />
    <glyph glyph-name="K" unicode="K" horiz-adv-x="863" 
d="M789 13h73v-13h-367v13h56l-193 307l-53 -53v-254h65v-13h-334v13h64v674h-64v13h334v-13h-65v-399l213 216q53 61 65.5 102t-9 59.5t-69.5 21.5v13h277v-13q-23 -6 -45 -16.5t-37.5 -20t-39 -30t-36 -33l-42 -42l-44.5 -43.5l-37 -37z" />
    <glyph glyph-name="L" unicode="L" horiz-adv-x="683" 
d="M644 284h13v-284h-621v13h64v674h-64v13h334v-13h-64v-665h106q59 0 102 21.5t69 60.5t40 82t21 98z" />
    <glyph glyph-name="M" unicode="M" horiz-adv-x="985" 
d="M949 687h-65v-674h65v-13h-335v13h65v633l-226 -646h-28l-271 605v-369q0 -84 30.5 -148t89.5 -75v-13h-253v13q59 11 89.5 75t30.5 148v399l-23 52h-71v13h292l185 -443l155 443h270v-13z" />
    <glyph glyph-name="N" unicode="N" horiz-adv-x="834" 
d="M548 700h265v-13q-59 -11 -90.5 -75t-31.5 -148v-464h-68l-467 573v-337q0 -82 35 -147t96 -76v-13h-266v13q60 11 91 75t31 148v353l-79 98h-41v13h297l358 -449v213q0 82 -35 147t-95 76v13z" />
    <glyph glyph-name="O" unicode="O" horiz-adv-x="837" 
d="M418 704q176 0 284.5 -95t108.5 -261q0 -165 -108.5 -260t-284.5 -95t-284 95t-108 260q0 166 108 261t284 95zM418 5q167 0 168 343q-1 344 -168 344q-165 0 -168 -344q3 -343 168 -343z" />
    <glyph glyph-name="P" unicode="P" horiz-adv-x="702" 
d="M389 256h-83v-243h98v-13h-368v13h65v674h-65v13h353q287 0 287 -222t-287 -222zM306 679v-410h40q72 0 104.5 52t32.5 157q0 100 -32.5 150.5t-104.5 50.5h-40z" />
    <glyph glyph-name="Q" unicode="Q" horiz-adv-x="837" 
d="M811 348q0 -165 -108.5 -260t-284.5 -95l318 -141v-15l-227 -86l-158 220v6q4 1 25.5 8t30 10t30 13t32.5 18.5t29.5 25t29 34.5t23.5 45t19.5 57.5t11.5 71.5t5 88q-3 344 -169 344q-165 0 -168 -344q0 -298 159 -317v-10q-179 0 -281 82t-102 245q0 166 108 260.5
t284 94.5t284.5 -94.5t108.5 -260.5z" />
    <glyph glyph-name="R" unicode="R" horiz-adv-x="783" 
d="M701 183v-73q0 -46 30 -46q18 0 28.5 18t10.5 49h12q0 -73 -37 -105.5t-96 -32.5q-75 0 -112.5 29t-37.5 105v73q0 75 -35.5 106.5t-106.5 31.5h-51v-325h64v-13h-334v13h65v674h-65v13h353q67 0 115 -7.5t89 -27t62 -58t21 -96.5q0 -78 -54.5 -118.5t-160.5 -40.5v-3
q133 1 186.5 -36t53.5 -130zM345 351q68 0 103 36.5t35 123.5q0 168 -138 168h-39v-328h39z" />
    <glyph glyph-name="S" unicode="S" horiz-adv-x="603" 
d="M188 577q1 -38 31.5 -68.5t75 -49.5t95.5 -43.5t93.5 -49.5t69.5 -68.5t23 -100.5q-12 -204 -294 -204q-114 0 -253 44v198h13q57 -123 108 -175t126 -52q105 0 120 80q7 40 -10 70.5t-50 51.5t-74.5 40t-84 40.5t-77 47.5t-55.5 67t-18 93q5 101 75.5 153t222.5 52
q74 0 202 -44v-180h-12q-54 122 -92 165.5t-103 43.5q-59 0 -96.5 -27.5t-35.5 -83.5z" />
    <glyph glyph-name="T" unicode="T" horiz-adv-x="709" 
d="M21 700h667v-275h-13q-5 38 -9 62t-17.5 64.5t-32.5 65t-54 43.5t-81 19h-24v-666h65v-13h-334v13h64v666h-24q-39 0 -69.5 -11.5t-50.5 -35.5t-33 -45.5t-21.5 -57.5t-11.5 -53t-8 -51h-13v275z" />
    <glyph glyph-name="U" unicode="U" horiz-adv-x="782" 
d="M593 700h163v-13q-38 -10 -56.5 -46.5t-18.5 -110.5v-231q0 -137 -71 -221.5t-213 -84.5q-139 0 -222.5 84.5t-83.5 221.5v388h-65v13h335v-13h-65v-388q0 -112 52 -172t137 -60q78 0 130.5 62t52.5 170v231q0 76 -17.5 111.5t-57.5 45.5v13z" />
    <glyph glyph-name="V" unicode="V" horiz-adv-x="796" 
d="M596 700h199v-13q-32 -9 -66 -48t-56 -96l-217 -543h-47l-344 687h-64v13h355v-13h-58l226 -483l135 338q21 56 2 96t-65 49v13z" />
    <glyph glyph-name="W" unicode="W" horiz-adv-x="1119" 
d="M871 700h247v-13q-90 -25 -147 -189l-169 -498h-65l-191 511l-161 -511h-64l-259 687h-61v13h334v-13h-60l163 -467l153 480h96l175 -484q97 283 97 284q26 80 1.5 129t-89.5 58v13z" />
    <glyph glyph-name="X" unicode="X" horiz-adv-x="829" 
d="M728 13h65v-13h-343v13h64l-176 278l-81 -112q-32 -46 -41.5 -81t6.5 -57.5t59 -27.5v-13h-247v13q47 14 102 53.5t101 103.5l94 132l-245 385h-65v13h343v-13h-65l163 -256l66 93q48 66 43 111t-67 52v13h245v-13q-49 -14 -106 -57.5t-106 -112.5l-69 -96z" />
    <glyph glyph-name="Y" unicode="Y" horiz-adv-x="757" 
d="M519 700h237v-13q-43 -12 -77.5 -49t-75.5 -116l-115 -226v-283h64v-13h-334v13h64v260l-217 414h-64v13h351v-13h-66l191 -379l109 210q37 75 18.5 118t-85.5 51v13z" />
    <glyph glyph-name="Z" unicode="Z" horiz-adv-x="679" 
d="M648 700v-13l-399 -665h149q60 0 101.5 18.5t64.5 55.5t34 75.5t18 95.5h13v-267h-598v13l391 666h-116q-61 0 -105 -19t-69.5 -54.5t-39.5 -76.5t-21 -96h-13v267h590z" />
    <glyph glyph-name="bracketleft" unicode="[" horiz-adv-x="237" 
d="M201 687h-108v-753h108v-13h-165v779h165v-13z" />
    <glyph glyph-name="backslash" unicode="\" horiz-adv-x="376" 
d="M93 700l247 -779h-56l-248 779h57z" />
    <glyph glyph-name="bracketright" unicode="]" horiz-adv-x="237" 
d="M36 700h165v-779h-165v13h108v753h-108v13z" />
    <glyph glyph-name="asciicircum" unicode="^" horiz-adv-x="377" 
d="M201 700l140 -190l-6 -6l-146 86l-147 -86l-6 6l141 190h24z" />
    <glyph glyph-name="underscore" unicode="_" horiz-adv-x="426" 
d="M36 0h354v-57h-354v57z" />
    <glyph glyph-name="grave" unicode="`" horiz-adv-x="251" 
d="M140 694q21 -21 39.5 -56t26.5 -60l9 -25l-7 -7q-94 28 -141 75q-52 54 -16 90t89 -17z" />
    <glyph glyph-name="a" unicode="a" horiz-adv-x="623" 
d="M608 86l14 -9q-15 -31 -52 -57.5t-83 -26.5q-119 0 -133 93q-24 -37 -68 -65t-101 -28q-72 0 -120.5 41t-48.5 117q0 27 7 50.5t16.5 40t27.5 30.5t33 22.5t41 15.5t42.5 10t45.5 5.5t43 3l43 1.5t37 1v96q0 52 -15 76t-59 24q-36 0 -77.5 -40t-106.5 -148h-12v163
q120 38 207 38q55 0 96.5 -7t78.5 -24.5t57 -52t20 -84.5v-230q0 -48 9 -63.5t26 -15.5q16 0 32 23zM187 177q0 -61 26 -91.5t64 -26t76 39.5q-1 3 -1 11v209q-76 5 -120.5 -32t-44.5 -110z" />
    <glyph glyph-name="b" unicode="b" horiz-adv-x="704" 
d="M459 540q92 2 155.5 -64.5t63.5 -198.5q0 -134 -74.5 -209t-175.5 -75q-96 0 -170 44l-168 -37h-13v687h-56v13h245v-285q28 51 78 87.5t115 37.5zM351 26q62 4 97 62.5t35 162.5q0 99 -34 151t-96 48q-63 -3 -87 -62v-341q39 -22 85 -21z" />
    <glyph glyph-name="c" unicode="c" horiz-adv-x="587" 
d="M539 121l12 -10q-28 -47 -83 -82.5t-133 -35.5q-61 0 -116.5 16.5t-101.5 48.5t-73.5 86t-27.5 123q0 68 27.5 122t74.5 86t103.5 48.5t118.5 16.5q78 0 200 -46v-187h-13q-46 116 -85 168t-81 52q-64 0 -106 -72.5t-32 -187.5q9 -94 59.5 -150.5t124.5 -56.5
q79 0 132 61z" />
    <glyph glyph-name="d" unicode="d" horiz-adv-x="711" 
d="M623 13h57v-13h-245v121q-20 -53 -70 -90.5t-115 -37.5q-91 0 -162.5 72.5t-71.5 201.5t71.5 201t162.5 72q65 0 115 -37.5t70 -90.5v275h-57v13h245v-687zM435 148v237q-11 27 -35 44t-49 19q-63 7 -102 -42.5t-39 -138.5q0 -90 39 -139.5t102 -42.5q26 3 49.5 20
t34.5 43z" />
    <glyph glyph-name="e" unicode="e" horiz-adv-x="597" 
d="M315 540q127 0 194.5 -68t60.5 -205h-346q8 -93 58.5 -150t124.5 -57q78 0 133 61l12 -10q-28 -47 -83 -82.5t-134 -35.5q-61 0 -116.5 16.5t-101.5 48.5t-73.5 86t-27.5 123q0 89 43.5 152.5t109.5 92t146 28.5zM391 288q3 106 -16 172.5t-60 66.5q-45 0 -71.5 -68
t-21.5 -171h169z" />
    <glyph glyph-name="f" unicode="f" horiz-adv-x="445" 
d="M298 716q-16 -1 -21.5 -29.5t-5.5 -111.5v-48h163v-13h-163v-501h98v-13h-343v13h56v501h-56v13h57q3 202 210 202q53 0 141 -20v-147h-11q-58 101 -79.5 129t-45.5 25z" />
    <glyph glyph-name="g" unicode="g" horiz-adv-x="643" 
d="M357 152q128 0 189 -28t61 -106q0 -89 -83 -151t-223 -62q-152 0 -218.5 18t-66.5 70q0 68 150 107q-81 12 -113 43.5t-25 82.5q12 75 102 120q-79 44 -79 128q0 79 69.5 122.5t181.5 43.5q68 0 119 -16l172 143h10v-151h-158q108 -42 108 -142q0 -79 -69.5 -122.5
t-181.5 -43.5q-92 0 -156 29q-7 -19 -7 -38q1 -31 45 -39t173 -8zM302 525q-40 0 -61.5 -41.5t-21.5 -109.5t21.5 -109.5t61.5 -41.5q41 0 62 41.5t21 109.5t-21 109.5t-62 41.5zM463 -93q2 41 -33 62.5t-128 21.5q-50 0 -89 3q-34 -14 -58 -40.5t-25 -56.5
q0 -36 46.5 -54.5t125.5 -18.5q156 0 161 83z" />
    <glyph glyph-name="h" unicode="h" horiz-adv-x="747" 
d="M660 13h56v-13h-301v13h56v346q0 52 -25.5 78t-72.5 20q-40 -5 -70.5 -37.5t-30.5 -70.5v-336h56v-13h-302v13h57v674h-57v13h246v-307q33 71 88 109t124 38q95 0 135.5 -53.5t40.5 -136.5v-337z" />
    <glyph glyph-name="i" unicode="i" 
d="M271 13h56v-13h-301v13h56v501h-56v13h245v-514zM177 567q-41 0 -70.5 29t-29.5 70t29.5 70.5t70.5 29.5t70 -29.5t29 -70.5t-29 -70t-70 -29z" />
    <glyph glyph-name="j" unicode="j" horiz-adv-x="355" 
d="M7 527h267v-362q0 -95 -11 -155.5t-41 -105.5t-84 -64.5t-139 -19.5v15q86 0 86 198v481h-78v13zM179 567q-41 0 -70 29t-29 70t29 70.5t70 29.5t70.5 -29.5t29.5 -70.5t-29.5 -70t-70.5 -29z" />
    <glyph glyph-name="k" unicode="k" horiz-adv-x="707" 
d="M645 13h61v-13h-318v13h52l-119 227l-50 -53v-174h56v-13h-301v13h56v674h-56v13h245v-497l167 177q45 56 39.5 92.5t-54.5 41.5v13h227v-13q-92 -23 -197 -134q-1 -1 -4.5 -5t-5.5 -6z" />
    <glyph glyph-name="l" unicode="l" 
d="M271 13h56v-13h-301v13h56v674h-56v13h245v-687z" />
    <glyph glyph-name="m" unicode="m" horiz-adv-x="1118" 
d="M1031 13h56v-13h-301v13h56v346q0 52 -25.5 78t-72.5 20q-37 -4 -65 -37t-28 -71v-336h56v-13h-301v13h56v346q0 52 -25.5 78t-72.5 20q-37 -4 -65 -37t-28 -71v-336h56v-13h-301v13h56v501h-56v13h245v-134q67 147 208 147q153 0 170 -151l2 4q32 71 86.5 109t122.5 38
q171 0 171 -190v-337z" />
    <glyph glyph-name="n" unicode="n" horiz-adv-x="747" 
d="M660 13h56v-13h-302v13h57v346q0 52 -25.5 78t-72.5 20q-40 -5 -71 -37.5t-31 -70.5v-336h57v-13h-302v13h57v501h-57v13h245v-134q34 71 89 109t123 38q96 0 136.5 -53.5t40.5 -136.5v-337z" />
    <glyph glyph-name="o" unicode="o" horiz-adv-x="653" 
d="M322 540q61 0 114.5 -16.5t96.5 -48.5t68.5 -86t25.5 -122q0 -134 -88.5 -204t-216.5 -70q-129 0 -217.5 70t-88.5 204q0 68 25.5 122t68.5 86t97 48.5t115 16.5zM322 5q54 0 80.5 72t26.5 190t-26.5 189t-80.5 71t-81 -71t-27 -189t27 -190t81 -72z" />
    <glyph glyph-name="p" unicode="p" horiz-adv-x="716" 
d="M456 540q91 0 162.5 -72t71.5 -201q0 -67 -21 -120.5t-55 -86t-75 -50t-83 -17.5q-65 0 -115 37.5t-69 90.5v-275h80v-13h-326v13h57v668h-57v13h246v-115q19 53 69 90.5t115 37.5zM355 85q63 -7 102 42.5t39 139.5q0 89 -39 138.5t-102 42.5q-26 -3 -49.5 -20t-33.5 -43
v-237q10 -26 33.5 -43t49.5 -20z" />
    <glyph glyph-name="q" unicode="q" horiz-adv-x="699" 
d="M673 -154v-13h-318v13h73v272q-27 -51 -78 -88t-115 -37q-92 0 -155.5 65.5t-63.5 197.5q0 133 76.5 208.5t174.5 75.5q94 0 170 -44l167 31h13v-681h56zM342 83q29 2 52.5 18t33.5 44v341q-38 24 -84 21q-62 -4 -97 -62t-35 -163q0 -99 34 -151t96 -48z" />
    <glyph glyph-name="r" unicode="r" horiz-adv-x="558" 
d="M445 540q28 0 54 -13.5t38 -30.5l-83 -157h-11q-15 40 -53 69t-77 10q-15 -7 -28.5 -33t-13.5 -61v-311h90v-13h-335v13h57v501h-57v13h245v-141q26 77 66.5 115.5t107.5 38.5z" />
    <glyph glyph-name="s" unicode="s" horiz-adv-x="511" 
d="M177 456q0 -11 2.5 -21t9 -19.5t12.5 -17t18.5 -16l20 -13.5t24 -13l23.5 -11.5t25.5 -12t23.5 -10.5q87 -39 119 -74t22 -111q-5 -34 -19 -59.5t-36.5 -40.5t-44.5 -24.5t-51 -13.5t-47.5 -5t-42.5 -1q-77 0 -210 36v181h12q65 -111 108.5 -156t80.5 -49q86 -10 91 65
q1 11 -1 20.5t-8 19t-11 16t-17 15l-18 13t-22 13l-22 11.5t-24.5 11.5t-23.5 10.5q-70 34 -107.5 75t-33.5 111q2 38 14.5 66.5t35 44.5t41 25.5t49.5 13t42 4t35 0.5q67 0 199 -36v-164h-12q-65 111 -105 150.5t-83 39.5q-29 0 -48.5 -20t-20.5 -54z" />
    <glyph glyph-name="t" unicode="t" horiz-adv-x="403" 
d="M375 89l12 -11q-59 -85 -168 -85q-75 0 -113.5 46t-38.5 125v350h-56v13h56l179 160h10v-160h114v-13h-114v-372q0 -48 16.5 -68t39.5 -20q33 0 63 35z" />
    <glyph glyph-name="u" unicode="u" horiz-adv-x="732" 
d="M644 13h57v-13h-245v140q-34 -71 -89 -109t-124 -38q-95 0 -135.5 53.5t-40.5 136.5v331h-56v13h245v-353q0 -52 25.5 -78t72.5 -20q40 5 71 37.5t31 70.5v330h-57v13h245v-514z" />
    <glyph glyph-name="v" unicode="v" horiz-adv-x="659" 
d="M420 527h233v-13q-41 -12 -74.5 -56.5t-70.5 -129.5l-144 -328h-72l-233 514h-63v13h343v-13h-67l148 -356q74 168 74 170q33 81 12 128.5t-86 57.5v13z" />
    <glyph glyph-name="w" unicode="w" horiz-adv-x="970" 
d="M731 527h233v-13q-40 -12 -71 -55.5t-66 -128.5l-134 -330h-73l-151 353l-121 -353h-73l-217 514h-62v13h351v-13h-68l121 -324l116 337h87l143 -363l67 164q31 81 7.5 128.5t-89.5 57.5v13z" />
    <glyph glyph-name="x" unicode="x" horiz-adv-x="684" 
d="M592 13h56v-13h-310v13h59l-130 194l-53 -74q-76 -105 16 -120v-13h-198v13q105 32 169 121l59 83l-199 296h-55v13h310v-13h-59l123 -184l48 67q37 51 31 81.5t-53 35.5v14h199v-14q-100 -28 -167 -121l-51 -72z" />
    <glyph glyph-name="y" unicode="y" horiz-adv-x="667" 
d="M426 527h235v-13q-41 -12 -74.5 -56.5t-71.5 -130.5l-140 -319l-137 -299l-136 124v13l226 99l-269 569h-63v13h334v-13h-67l157 -375l84 193q31 78 9 125t-87 57v13z" />
    <glyph glyph-name="z" unicode="z" horiz-adv-x="561" 
d="M525 527v-13l-294 -492h109q46 0 76.5 14t47.5 42.5t24.5 57t13.5 72.5h13v-208h-484v13l287 493h-84q-45 0 -78 -14.5t-52 -42t-29 -58t-15 -71.5h-14v207h479z" />
    <glyph glyph-name="braceleft" unicode="{" horiz-adv-x="296" 
d="M260 700q-36 -6 -56.5 -29.5t-16.5 -60.5q2 -16 11 -68t8 -85q-5 -104 -137 -119q132 -15 137 -119q1 -32 -8 -84.5t-11 -68.5q-4 -37 16.5 -60.5t56.5 -29.5v-9q-31 0 -54.5 3.5t-47 12.5t-37.5 26.5t-22.5 44t-6.5 67t14 93.5q12 51 -11.5 81.5t-68.5 36.5v12
q45 6 68.5 36.5t11.5 81.5q-12 53 -14 93.5t6.5 67t22.5 44t37.5 26.5t47 12.5t54.5 3.5v-9z" />
    <glyph glyph-name="bar" unicode="|" horiz-adv-x="128" 
d="M36 700h56v-779h-56v779z" />
    <glyph glyph-name="braceright" unicode="}" horiz-adv-x="297" 
d="M190 462q-12 -51 12 -81.5t69 -36.5v-12q-45 -6 -69 -36.5t-12 -81.5q13 -53 15 -93.5t-7 -67t-23 -44t-37.5 -26.5t-47 -12.5t-54.5 -3.5v9q36 6 57 29.5t17 60.5q-3 21 -8.5 50.5t-9 53.5t-2.5 49q5 103 137 119q-132 16 -137 119q-1 25 2.5 49.5t9 53.5t8.5 50
q4 37 -17 60.5t-57 29.5v9q31 0 54.5 -3.5t47 -12.5t37.5 -26.5t23 -44t7 -67t-15 -93.5z" />
    <glyph glyph-name="asciitilde" unicode="~" horiz-adv-x="443" 
d="M397 420h10q-3 -81 -28 -120.5t-80 -38.5q-17 0 -31.5 3t-29 9t-23.5 10.5t-26 15t-25 14.5q-49 24 -79.5 9.5t-38.5 -54.5h-10q4 97 33.5 136t88.5 34q32 -2 85 -31.5t63 -33.5q36 -13 60 1t31 46z" />
    <glyph glyph-name="exclamdown" unicode="&#xa1;" horiz-adv-x="287" 
d="M143 122q-42 0 -72.5 30t-30.5 73t30.5 73t72.5 30q43 0 73.5 -30t30.5 -73t-30.5 -73t-73.5 -30zM147 57q5 -5 12.5 -15t26.5 -42t33 -66t24 -85.5t7 -102.5q-4 -61 -33.5 -93t-73.5 -32q-43 0 -72.5 32t-33.5 93q-3 51 6.5 102t25 87t32 64.5t27.5 42.5l12 15h7z" />
    <glyph glyph-name="cent" unicode="&#xa2;" horiz-adv-x="588" 
d="M540 121l12 -10q-27 -43 -76.5 -77.5t-119.5 -39.5v-76h-21v75q-61 0 -116.5 16.5t-101.5 48.5t-73.5 86t-27.5 123q0 131 94 201t225 72v78h21v-79q72 -2 184 -45v-188h-12q-46 117 -85 169t-81 52h-6v-459q26 -8 51 -8q78 0 133 61zM335 77v446q-54 -15 -87 -84.5
t-24 -171.5q6 -66 36.5 -116t74.5 -74z" />
    <glyph glyph-name="sterling" unicode="&#xa3;" horiz-adv-x="634" 
d="M586 219h12v-219h-511v13l201 151q-140 82 -189 167h-88v22h77q-24 54 -24 116q0 117 78.5 175.5t221.5 58.5q79 0 224 -47v-202h-15q-52 120 -96.5 176.5t-102.5 56.5q-116 0 -118 -201q-1 -71 5 -133h215v-22h-213q11 -79 40 -167h283v55z" />
    <glyph glyph-name="currency" unicode="&#xa4;" horiz-adv-x="582" 
d="M518 264q0 -93 -62 -150l90 -90l-15 -15l-91 91q-60 -46 -149 -46q-88 0 -149 45l-91 -90l-15 15l90 89q-62 59 -62 151q0 93 62 150l-90 90l15 15l91 -91q59 45 149 45t149 -45l91 91l15 -15l-90 -90q62 -57 62 -150zM291 68q32 0 49.5 51t17.5 145q0 93 -17.5 144
t-49.5 51t-50 -51t-18 -144q0 -94 18 -145t50 -51z" />
    <glyph glyph-name="yen" unicode="&#xa5;" horiz-adv-x="756" 
d="M519 700h236v-13q-42 -12 -76.5 -49t-75.5 -116l-115 -224h111v-21h-112v-53h112v-22h-112v-189h65v-13h-335v13h65v189h-123v22h123v53h-123v21h110l-205 389h-63v13h351v-13h-67l191 -379l110 210q37 75 18 118t-85 51v13z" />
    <glyph glyph-name="brokenbar" unicode="&#xa6;" horiz-adv-x="128" 
d="M36 700h56v-284h-56v284zM36 -79v285h56v-285h-56z" />
    <glyph glyph-name="section" unicode="&#xa7;" horiz-adv-x="557" 
d="M215 627q1 -37 35 -66t80.5 -50l93 -44t77.5 -63t29 -93q-4 -124 -125 -157q75 -56 71 -141q-5 -84 -63.5 -127.5t-184.5 -43.5q-58 0 -169 37v150h10q45 -101 77 -137.5t86 -36.5q50 0 81 23t29 69q-1 38 -35 67t-81 50.5t-93.5 45t-77.5 63t-28 91.5q6 123 125 156
q-75 56 -70 141q4 84 62.5 127.5t184.5 43.5q55 0 169 -36v-151h-10q-45 102 -77 138.5t-86 36.5q-49 0 -80 -23.5t-30 -69.5zM168 355q-5 -27 3.5 -49t32 -39.5t46 -29.5t60 -29.5t58.5 -29.5q16 16 21 42q5 27 -4 49t-32.5 39.5t-45.5 29.5t-59 29t-58 29q-16 -16 -22 -41
z" />
    <glyph glyph-name="dieresis" unicode="&#xa8;" horiz-adv-x="459" 
d="M125 731q37 0 63.5 -26t26.5 -63q0 -38 -26.5 -64t-63.5 -26t-63 26.5t-26 63.5t26 63t63 26zM333 731q37 0 63.5 -26t26.5 -63q0 -38 -26.5 -64t-63.5 -26t-63 26.5t-26 63.5t26 63t63 26z" />
    <glyph glyph-name="copyright" unicode="&#xa9;" horiz-adv-x="842" 
d="M421 -88q-163 0 -279 116t-116 279t116 279t279 116t279 -116t116 -279t-116 -279t-279 -116zM421 685q-156 0 -267 -110.5t-111 -267.5t111 -267.5t267 -110.5q157 0 268 110.5t111 267.5t-111 267.5t-268 110.5zM593 197l9 -7q-55 -92 -168 -92q-99 0 -164.5 54
t-65.5 158q0 101 67.5 156.5t166.5 55.5q58 0 155 -35v-146h-8q-36 91 -66.5 131t-64.5 40q-51 0 -86.5 -56.5t-27.5 -145.5q7 -72 49 -116t101 -44q63 -1 103 47z" />
    <glyph glyph-name="guillemotleft" unicode="&#xab;" horiz-adv-x="409" 
d="M216 470l-70 -147l70 -146l-6 -6l-174 140v24l174 141zM373 470l-70 -147l70 -146l-6 -6l-174 140v24l174 141z" />
    <glyph glyph-name="registered" unicode="&#xae;" horiz-adv-x="842" 
d="M421 -88q-163 0 -279 116t-116 279t116 279t279 116t279 -116t116 -279t-116 -279t-279 -116zM421 685q-156 0 -267 -110.5t-111 -267.5t111 -267.5t267 -110.5q157 0 268 110.5t111 267.5t-111 267.5t-268 110.5zM599 210v-43q0 -26 17 -26q23 0 23 39h7q0 -80 -77 -80
q-44 0 -66 16.5t-22 60.5v43q0 44 -21 62t-62 18h-29v-189h37v-7h-194v7h37v392h-37v8h205q81 0 124 -23t43 -87q0 -93 -125 -93v-2q77 1 108.5 -20.5t31.5 -75.5zM392 308q40 0 60 21t20 72q0 97 -80 97h-23v-190h23z" />
    <glyph glyph-name="macron" unicode="&#xaf;" horiz-adv-x="393" 
d="M36 650h321v-57h-321v57z" />
    <glyph glyph-name="degree" unicode="&#xb0;" horiz-adv-x="346" 
d="M173 420q-56 0 -96.5 40.5t-40.5 96.5q0 57 40.5 97t96.5 40q57 0 97 -40t40 -97q0 -56 -40 -96.5t-97 -40.5zM173 636q-32 0 -55.5 -23t-23.5 -56q0 -32 23.5 -55.5t55.5 -23.5q33 0 56 23.5t23 55.5q0 33 -23 56t-56 23z" />
    <glyph glyph-name="plusminus" unicode="&#xb1;" horiz-adv-x="426" 
d="M241 473h149v-57h-149v-149h-57v149h-148v57h148v148h57v-148zM36 158v57h354v-57h-354z" />
    <glyph glyph-name="acute" unicode="&#xb4;" horiz-adv-x="252" 
d="M201 711q35 -37 -17 -90q-21 -21 -56 -39.5t-60 -27.5l-25 -8l-7 7q28 94 75 141q53 53 90 17z" />
    <glyph glyph-name="paragraph" unicode="&#xb6;" horiz-adv-x="461" 
d="M210 700h215v-700h-57v687h-101v-687h-57v369q-70 0 -122 49t-52 117t52 116.5t122 48.5z" />
    <glyph glyph-name="cedilla" unicode="&#xb8;" horiz-adv-x="333" 
d="M124 -42q80 14 131.5 -18.5t38.5 -99.5q-13 -61 -88.5 -87.5t-169.5 6.5l3 11q52 -6 93.5 23t52.5 68q11 42 -10.5 66t-66.5 19l15 54h13z" />
    <glyph glyph-name="guillemotright" unicode="&#xbb;" horiz-adv-x="409" 
d="M199 476l174 -141v-24l-174 -140l-7 6l70 146l-70 147zM216 335v-24l-174 -140l-6 6l69 146l-69 147l6 6z" />
    <glyph glyph-name="questiondown" unicode="&#xbf;" horiz-adv-x="530" 
d="M300 122q-43 0 -73 30t-30 73t30 73t73 30t73 -30t30 -73t-30 -73t-73 -30zM483 -124h11v-220q-136 -38 -192 -38q-120 0 -191 43.5t-74 126.5q-4 97 65.5 154.5t203.5 69.5v45h13v-57q-76 -36 -76 -201q0 -173 84 -166q36 3 68 57t88 186z" />
    <glyph glyph-name="Agrave" unicode="&#xc0;" horiz-adv-x="796" 
d="M731 13h64v-13h-355v13h57l-95 205h-242l-24 -60q-20 -56 -1 -96t65 -49v-13h-199v13q31 9 65.5 48.5t56.5 96.5l217 542h47zM165 231h231l-124 265zM367 894q21 -21 39.5 -56t27.5 -60l8 -25l-7 -7q-94 28 -141 75q-52 54 -16 90t89 -17z" />
    <glyph glyph-name="Aacute" unicode="&#xc1;" horiz-adv-x="796" 
d="M731 13h64v-13h-355v13h57l-95 205h-242l-24 -60q-20 -56 -1 -96t65 -49v-13h-199v13q31 9 65.5 48.5t56.5 96.5l217 542h47zM165 231h231l-124 265zM469 911q35 -37 -17 -90q-21 -21 -56 -39.5t-60 -27.5l-25 -8l-7 7q28 94 75 141q53 53 90 17z" />
    <glyph glyph-name="Acircumflex" unicode="&#xc2;" horiz-adv-x="796" 
d="M731 13h64v-13h-355v13h57l-95 205h-242l-24 -60q-20 -56 -1 -96t65 -49v-13h-199v13q31 9 65.5 48.5t56.5 96.5l217 542h47zM165 231h231l-124 265zM419 919l123 -147l-7 -7l-167 61l-168 -61l-7 7l124 147h102z" />
    <glyph glyph-name="Atilde" unicode="&#xc3;" horiz-adv-x="796" 
d="M731 13h64v-13h-355v13h57l-95 205h-242l-24 -60q-20 -56 -1 -96t65 -49v-13h-199v13q31 9 65.5 48.5t56.5 96.5l217 542h47zM165 231h231l-124 265zM429 776q-16 0 -32.5 5t-23.5 8t-26.5 14.5l-24.5 14.5q-39 19 -63 7t-31 -43h-7q3 76 26 107t70 28q26 -2 68 -25.5
t50 -26.5q28 -11 47 0.5t25 36.5h7q-2 -64 -22 -95.5t-63 -30.5z" />
    <glyph glyph-name="Adieresis" unicode="&#xc4;" horiz-adv-x="796" 
d="M731 13h64v-13h-355v13h57l-95 205h-242l-24 -60q-20 -56 -1 -96t65 -49v-13h-199v13q31 9 65.5 48.5t56.5 96.5l217 542h47zM165 231h231l-124 265zM263 931q37 0 63.5 -26t26.5 -63q0 -38 -26.5 -64t-63.5 -26t-63 26.5t-26 63.5t26 63t63 26zM471 931q37 0 63.5 -26
t26.5 -63q0 -38 -26.5 -64t-63.5 -26t-63 26.5t-26 63.5t26 63t63 26z" />
    <glyph glyph-name="Aring" unicode="&#xc5;" horiz-adv-x="796" 
d="M731 13h64v-13h-355v13h57l-95 205h-242l-24 -60q-20 -56 -1 -96t65 -49v-13h-199v13q31 9 65.5 48.5t56.5 96.5l217 542h47zM165 231h231l-124 265zM368 736q-44 0 -75 31t-31 75t31 75t75 31t75 -31t31 -75t-31 -75t-75 -31zM368 907q-27 0 -46 -19t-19 -46t19 -46
t46 -19q26 0 45 19t19 46t-19 46t-45 19z" />
    <glyph glyph-name="AE" unicode="&#xc6;" horiz-adv-x="1051" 
d="M1007 284h13v-284h-605v13h65v238h-255l-56 -93q-31 -51 -21.5 -94t53.5 -51v-13h-200v13q32 10 78.5 52t77.5 95l317 527h-59v13h588v-283h-13q-7 56 -20.5 98t-38.5 81.5t-69 61t-104 21.5h-73v-322h59q74 0 101 24t39 90h13v-241h-13q-12 67 -38.5 90.5t-101.5 23.5
h-59v-322h90q49 0 87 15t62 38.5t41.5 59t26.5 70.5t15 79zM233 264h247v412z" />
    <glyph glyph-name="Ccedilla" unicode="&#xc7;" horiz-adv-x="723" 
d="M411 -7q-11 0 -16 1l-10 -35q80 13 131.5 -19t37.5 -100q-12 -61 -87.5 -87.5t-169.5 7.5l3 11q53 -6 94 22.5t52 68.5q11 42 -10.5 66t-66.5 19l13 47q-155 8 -255.5 98t-100.5 256q0 114 56 196.5t143 120.5t193 38q102 0 259 -59v-244h-13q-60 152 -111.5 219.5
t-107.5 67.5q-85 0 -145 -95t-46 -244q11 -119 82 -193t169 -75q64 -1 102.5 20.5t70.5 57.5l14 -11q-37 -62 -106.5 -108t-174.5 -46z" />
    <glyph glyph-name="Egrave" unicode="&#xc8;" horiz-adv-x="671" 
d="M628 284h12v-284h-604v13h65v674h-65v13h588v-283h-13q-7 56 -20.5 98t-38.5 81.5t-69 61t-104 21.5h-73v-322h58q74 0 101.5 24t39.5 90h13v-241h-13q-12 66 -39 90t-102 24h-58v-322h90q60 0 103.5 21t69 60.5t38.5 82t21 98.5zM337 894q21 -21 39.5 -56t27.5 -60
l8 -25l-7 -7q-94 28 -141 75q-52 54 -16 90t89 -17z" />
    <glyph glyph-name="Eacute" unicode="&#xc9;" horiz-adv-x="671" 
d="M628 284h12v-284h-604v13h65v674h-65v13h588v-283h-13q-7 56 -20.5 98t-38.5 81.5t-69 61t-104 21.5h-73v-322h58q74 0 101.5 24t39.5 90h13v-241h-13q-12 66 -39 90t-102 24h-58v-322h90q60 0 103.5 21t69 60.5t38.5 82t21 98.5zM439 911q35 -37 -17 -90
q-21 -21 -56 -39.5t-60 -27.5l-25 -8l-7 7q28 94 75 141q53 53 90 17z" />
    <glyph glyph-name="Ecircumflex" unicode="&#xca;" horiz-adv-x="671" 
d="M628 284h12v-284h-604v13h65v674h-65v13h588v-283h-13q-7 56 -20.5 98t-38.5 81.5t-69 61t-104 21.5h-73v-322h58q74 0 101.5 24t39.5 90h13v-241h-13q-12 66 -39 90t-102 24h-58v-322h90q60 0 103.5 21t69 60.5t38.5 82t21 98.5zM409 919l123 -147l-7 -7l-167 61
l-168 -61l-7 7l124 147h102z" />
    <glyph glyph-name="Edieresis" unicode="&#xcb;" horiz-adv-x="671" 
d="M628 284h12v-284h-604v13h65v674h-65v13h588v-283h-13q-7 56 -20.5 98t-38.5 81.5t-69 61t-104 21.5h-73v-322h58q74 0 101.5 24t39.5 90h13v-241h-13q-12 66 -39 90t-102 24h-58v-322h90q60 0 103.5 21t69 60.5t38.5 82t21 98.5zM253 931q37 0 63.5 -26t26.5 -63
q0 -38 -26.5 -64t-63.5 -26t-63 26.5t-26 63.5t26 63t63 26zM461 931q37 0 63.5 -26t26.5 -63q0 -38 -26.5 -64t-63.5 -26t-63 26.5t-26 63.5t26 63t63 26z" />
    <glyph glyph-name="Igrave" unicode="&#xcc;" horiz-adv-x="406" 
d="M370 687h-64v-674h64v-13h-334v13h65v674h-65v13h334v-13zM212 894q21 -21 39.5 -56t26.5 -60l9 -25l-7 -7q-94 28 -141 75q-52 54 -16 90t89 -17z" />
    <glyph glyph-name="Iacute" unicode="&#xcd;" horiz-adv-x="406" 
d="M370 687h-64v-674h64v-13h-334v13h65v674h-65v13h334v-13zM284 911q35 -37 -17 -90q-21 -21 -56 -39.5t-60 -27.5l-25 -8l-7 7q28 94 75 141q53 53 90 17z" />
    <glyph glyph-name="Icircumflex" unicode="&#xce;" horiz-adv-x="406" 
d="M370 687h-64v-674h64v-13h-334v13h65v674h-65v13h334v-13zM255 919l123 -147l-7 -7l-167 61l-168 -61l-7 7l124 147h102z" />
    <glyph glyph-name="Idieresis" unicode="&#xcf;" horiz-adv-x="406" 
d="M370 687h-64v-674h64v-13h-334v13h65v674h-65v13h334v-13zM99 931q37 0 63.5 -26t26.5 -63q0 -38 -26.5 -64t-63.5 -26t-63 26.5t-26 63.5t26 63t63 26zM307 931q37 0 63.5 -26t26.5 -63q0 -38 -26.5 -64t-63.5 -26t-63 26.5t-26 63.5t26 63t63 26z" />
    <glyph glyph-name="Eth" unicode="&#xd0;" horiz-adv-x="826" 
d="M359 700q441 0 441 -350t-441 -350h-323v13h65v327h-65v21h65v326h-65v13h323zM379 22q203 0 203 328q0 329 -203 329h-73v-318h154v-21h-154v-318h73z" />
    <glyph glyph-name="Ntilde" unicode="&#xd1;" horiz-adv-x="834" 
d="M548 700h265v-13q-59 -11 -90.5 -75t-31.5 -148v-464h-68l-467 573v-337q0 -82 35 -147t96 -76v-13h-266v13q60 11 91 75t31 148v353l-79 98h-41v13h297l358 -449v213q0 82 -35 147t-95 76v13zM508 776q-16 0 -32.5 5t-23.5 8t-26.5 14.5l-24.5 14.5q-39 19 -63 7
t-31 -43h-7q3 76 26 107t70 28q26 -2 68 -25.5t50 -26.5q28 -11 47 0.5t25 36.5h7q-2 -64 -22 -95.5t-63 -30.5z" />
    <glyph glyph-name="Ograve" unicode="&#xd2;" horiz-adv-x="837" 
d="M418 704q176 0 284.5 -95t108.5 -261q0 -165 -108.5 -260t-284.5 -95t-284 95t-108 260q0 166 108 261t284 95zM418 5q167 0 168 343q-1 344 -168 344q-165 0 -168 -344q3 -343 168 -343zM407 894q21 -21 39.5 -56t27.5 -60l8 -25l-7 -7q-94 28 -141 75q-52 54 -16 90
t89 -17z" />
    <glyph glyph-name="Oacute" unicode="&#xd3;" horiz-adv-x="837" 
d="M418 704q176 0 284.5 -95t108.5 -261q0 -165 -108.5 -260t-284.5 -95t-284 95t-108 260q0 166 108 261t284 95zM418 5q167 0 168 343q-1 344 -168 344q-165 0 -168 -344q3 -343 168 -343zM519 911q35 -37 -17 -90q-21 -21 -56 -39.5t-60 -27.5l-25 -8l-7 7q28 94 75 141
q53 53 90 17z" />
    <glyph glyph-name="Ocircumflex" unicode="&#xd4;" horiz-adv-x="837" 
d="M418 704q176 0 284.5 -95t108.5 -261q0 -165 -108.5 -260t-284.5 -95t-284 95t-108 260q0 166 108 261t284 95zM418 5q167 0 168 343q-1 344 -168 344q-165 0 -168 -344q3 -343 168 -343zM470 919l123 -147l-7 -7l-167 61l-168 -61l-7 7l124 147h102z" />
    <glyph glyph-name="Otilde" unicode="&#xd5;" horiz-adv-x="837" 
d="M418 704q176 0 284.5 -95t108.5 -261q0 -165 -108.5 -260t-284.5 -95t-284 95t-108 260q0 166 108 261t284 95zM418 5q167 0 168 343q-1 344 -168 344q-165 0 -168 -344q3 -343 168 -343zM480 776q-16 0 -32.5 5t-23.5 8t-26.5 14.5l-24.5 14.5q-39 19 -63 7t-31 -43h-7
q3 76 26 107t70 28q26 -2 68 -25.5t50 -26.5q28 -11 47 0.5t25 36.5h7q-2 -64 -22 -95.5t-63 -30.5z" />
    <glyph glyph-name="Odieresis" unicode="&#xd6;" horiz-adv-x="837" 
d="M418 704q176 0 284.5 -95t108.5 -261q0 -165 -108.5 -260t-284.5 -95t-284 95t-108 260q0 166 108 261t284 95zM418 5q167 0 168 343q-1 344 -168 344q-165 0 -168 -344q3 -343 168 -343zM314 931q37 0 63.5 -26t26.5 -63q0 -38 -26 -64t-64 -26q-37 0 -63 26.5t-26 63.5
t26 63t63 26zM522 931q37 0 63.5 -26t26.5 -63q0 -38 -26 -64t-64 -26q-37 0 -63 26.5t-26 63.5t26 63t63 26z" />
    <glyph glyph-name="multiply" unicode="&#xd7;" horiz-adv-x="363" 
d="M327 434l-105 -105l105 -105l-41 -40l-105 104l-105 -104l-40 40l105 105l-105 105l40 40l105 -105l105 105z" />
    <glyph glyph-name="Oslash" unicode="&#xd8;" horiz-adv-x="838" 
d="M655 644q75 -45 116 -120.5t41 -175.5q0 -165 -108.5 -260t-284.5 -95q-128 0 -223 52l-34 -45h-22l41 54q-74 45 -114.5 120t-40.5 174q0 166 108.5 260.5t284.5 94.5q127 0 221 -50l36 47h22zM251 348q0 -107 17 -181l296 387q-39 138 -145 138q-167 0 -168 -344z
M419 5q167 0 168 343q0 111 -18 185l-296 -387q39 -141 146 -141z" />
    <glyph glyph-name="Ugrave" unicode="&#xd9;" horiz-adv-x="782" 
d="M593 700h163v-13q-38 -10 -56.5 -46.5t-18.5 -110.5v-231q0 -137 -71 -221.5t-213 -84.5q-139 0 -222.5 84.5t-83.5 221.5v388h-65v13h335v-13h-65v-388q0 -112 52 -172t137 -60q78 0 130.5 62t52.5 170v231q0 76 -17.5 111.5t-57.5 45.5v13zM460 894q21 -21 39.5 -56
t26.5 -60l9 -25l-7 -7q-94 28 -141 75q-52 54 -16 90t89 -17z" />
    <glyph glyph-name="Uacute" unicode="&#xda;" horiz-adv-x="782" 
d="M593 700h163v-13q-38 -10 -56.5 -46.5t-18.5 -110.5v-231q0 -137 -71 -221.5t-213 -84.5q-139 0 -222.5 84.5t-83.5 221.5v388h-65v13h335v-13h-65v-388q0 -112 52 -172t137 -60q78 0 130.5 62t52.5 170v231q0 76 -17.5 111.5t-57.5 45.5v13zM512 911q35 -37 -17 -90
q-21 -21 -56 -39.5t-60 -27.5l-25 -8l-7 7q28 94 75 141q53 53 90 17z" />
    <glyph glyph-name="Ucircumflex" unicode="&#xdb;" horiz-adv-x="782" 
d="M593 700h163v-13q-38 -10 -56.5 -46.5t-18.5 -110.5v-231q0 -137 -71 -221.5t-213 -84.5q-139 0 -222.5 84.5t-83.5 221.5v388h-65v13h335v-13h-65v-388q0 -112 52 -172t137 -60q78 0 130.5 62t52.5 170v231q0 76 -17.5 111.5t-57.5 45.5v13zM502 919l123 -147l-7 -7
l-167 61l-168 -61l-7 7l124 147h102z" />
    <glyph glyph-name="Udieresis" unicode="&#xdc;" horiz-adv-x="782" 
d="M593 700h163v-13q-38 -10 -56.5 -46.5t-18.5 -110.5v-231q0 -137 -71 -221.5t-213 -84.5q-139 0 -222.5 84.5t-83.5 221.5v388h-65v13h335v-13h-65v-388q0 -112 52 -172t137 -60q78 0 130.5 62t52.5 170v231q0 76 -17.5 111.5t-57.5 45.5v13zM366 931q37 0 63.5 -26
t26.5 -63q0 -38 -26 -64t-64 -26q-37 0 -63 26.5t-26 63.5t26 63t63 26zM574 931q37 0 63.5 -26t26.5 -63q0 -38 -26 -64t-64 -26q-37 0 -63 26.5t-26 63.5t26 63t63 26z" />
    <glyph glyph-name="Yacute" unicode="&#xdd;" horiz-adv-x="757" 
d="M519 700h237v-13q-43 -12 -77.5 -49t-75.5 -116l-115 -226v-283h64v-13h-334v13h64v260l-217 414h-64v13h351v-13h-66l191 -379l109 210q37 75 18.5 118t-85.5 51v13zM489 911q35 -37 -17 -90q-21 -21 -56 -39.5t-60 -27.5l-25 -8l-7 7q28 94 75 141q53 53 90 17z" />
    <glyph glyph-name="Thorn" unicode="&#xde;" horiz-adv-x="702" 
d="M388 573q288 0 288 -223q0 -222 -288 -222h-83v-115h65v-13h-334v13h64v674h-64v13h334v-13h-65v-114h83zM345 150q72 0 104.5 50.5t32.5 149.5q0 100 -32.5 150.5t-104.5 50.5h-40v-401h40z" />
    <glyph glyph-name="germandbls" unicode="&#xdf;" horiz-adv-x="822" 
d="M486 471q-29 -12 7 -31q14 -7 53 -24q133 -55 186 -103q64 -57 64 -127q0 -52 -21 -91.5t-54 -60.5t-67.5 -31t-67.5 -10q-97 0 -230 36v198h15q50 -109 107 -162t106 -61q40 -6 62.5 12t22.5 55q0 25 -21.5 54t-52 53.5t-64 56t-58 63t-32.5 73.5t11 88
q29 72 33.5 129.5t-18.5 92.5t-72 35q-48 0 -81 -33.5t-33 -107.5v-575h-245v13h56v501h-56v13h57q2 55 29 96t70 63t89.5 32.5t95.5 10.5q72 0 122.5 -20t70 -51t19 -66t-28 -68t-74.5 -53z" />
    <glyph glyph-name="agrave" unicode="&#xe0;" horiz-adv-x="623" 
d="M608 86l14 -9q-15 -31 -52 -57.5t-83 -26.5q-119 0 -133 93q-24 -37 -68 -65t-101 -28q-72 0 -120.5 41t-48.5 117q0 27 7 50.5t16.5 40t27.5 30.5t33 22.5t41 15.5t42.5 10t45.5 5.5t43 3l43 1.5t37 1v96q0 52 -15 76t-59 24q-36 0 -77.5 -40t-106.5 -148h-12v163
q120 38 207 38q55 0 96.5 -7t78.5 -24.5t57 -52t20 -84.5v-230q0 -48 9 -63.5t26 -15.5q16 0 32 23zM187 177q0 -61 26 -91.5t64 -26t76 39.5q-1 3 -1 11v209q-76 5 -120.5 -32t-44.5 -110zM308 744q21 -21 39.5 -56t26.5 -60l9 -25l-7 -7q-94 28 -141 75q-52 54 -16 90
t89 -17z" />
    <glyph glyph-name="aacute" unicode="&#xe1;" horiz-adv-x="623" 
d="M608 86l14 -9q-15 -31 -52 -57.5t-83 -26.5q-119 0 -133 93q-24 -37 -68 -65t-101 -28q-72 0 -120.5 41t-48.5 117q0 27 7 50.5t16.5 40t27.5 30.5t33 22.5t41 15.5t42.5 10t45.5 5.5t43 3l43 1.5t37 1v96q0 52 -15 76t-59 24q-36 0 -77.5 -40t-106.5 -148h-12v163
q120 38 207 38q55 0 96.5 -7t78.5 -24.5t57 -52t20 -84.5v-230q0 -48 9 -63.5t26 -15.5q16 0 32 23zM187 177q0 -61 26 -91.5t64 -26t76 39.5q-1 3 -1 11v209q-76 5 -120.5 -32t-44.5 -110zM420 761q35 -37 -17 -90q-21 -21 -56 -39.5t-60 -27.5l-25 -8l-7 7q28 94 75 141
q53 53 90 17z" />
    <glyph glyph-name="acircumflex" unicode="&#xe2;" horiz-adv-x="623" 
d="M608 86l14 -9q-15 -31 -52 -57.5t-83 -26.5q-119 0 -133 93q-24 -37 -68 -65t-101 -28q-72 0 -120.5 41t-48.5 117q0 27 7 50.5t16.5 40t27.5 30.5t33 22.5t41 15.5t42.5 10t45.5 5.5t43 3l43 1.5t37 1v96q0 52 -15 76t-59 24q-36 0 -77.5 -40t-106.5 -148h-12v163
q120 38 207 38q55 0 96.5 -7t78.5 -24.5t57 -52t20 -84.5v-230q0 -48 9 -63.5t26 -15.5q16 0 32 23zM187 177q0 -61 26 -91.5t64 -26t76 39.5q-1 3 -1 11v209q-76 5 -120.5 -32t-44.5 -110zM370 769l123 -147l-7 -7l-167 61l-168 -61l-7 7l124 147h102z" />
    <glyph glyph-name="atilde" unicode="&#xe3;" horiz-adv-x="623" 
d="M608 86l14 -9q-15 -31 -52 -57.5t-83 -26.5q-119 0 -133 93q-24 -37 -68 -65t-101 -28q-72 0 -120.5 41t-48.5 117q0 27 7 50.5t16.5 40t27.5 30.5t33 22.5t41 15.5t42.5 10t45.5 5.5t43 3l43 1.5t37 1v96q0 52 -15 76t-59 24q-36 0 -77.5 -40t-106.5 -148h-12v163
q120 38 207 38q55 0 96.5 -7t78.5 -24.5t57 -52t20 -84.5v-230q0 -48 9 -63.5t26 -15.5q16 0 32 23zM187 177q0 -61 26 -91.5t64 -26t76 39.5q-1 3 -1 11v209q-76 5 -120.5 -32t-44.5 -110zM380 626q-16 0 -32.5 5t-23.5 8t-26.5 14.5l-24.5 14.5q-39 19 -63 7t-31 -43h-7
q3 76 26 107t70 28q26 -2 68 -25.5t50 -26.5q28 -11 47 0.5t25 36.5h7q-2 -64 -22 -95.5t-63 -30.5z" />
    <glyph glyph-name="adieresis" unicode="&#xe4;" horiz-adv-x="623" 
d="M608 86l14 -9q-15 -31 -52 -57.5t-83 -26.5q-119 0 -133 93q-24 -37 -68 -65t-101 -28q-72 0 -120.5 41t-48.5 117q0 27 7 50.5t16.5 40t27.5 30.5t33 22.5t41 15.5t42.5 10t45.5 5.5t43 3l43 1.5t37 1v96q0 52 -15 76t-59 24q-36 0 -77.5 -40t-106.5 -148h-12v163
q120 38 207 38q55 0 96.5 -7t78.5 -24.5t57 -52t20 -84.5v-230q0 -48 9 -63.5t26 -15.5q16 0 32 23zM187 177q0 -61 26 -91.5t64 -26t76 39.5q-1 3 -1 11v209q-76 5 -120.5 -32t-44.5 -110zM214 781q37 0 63.5 -26t26.5 -63q0 -38 -26 -64t-64 -26q-37 0 -63 26.5t-26 63.5
t26 63t63 26zM422 781q37 0 63.5 -26t26.5 -63q0 -38 -26 -64t-64 -26q-37 0 -63 26.5t-26 63.5t26 63t63 26z" />
    <glyph glyph-name="aring" unicode="&#xe5;" horiz-adv-x="623" 
d="M608 86l14 -9q-15 -31 -52 -57.5t-83 -26.5q-119 0 -133 93q-24 -37 -68 -65t-101 -28q-72 0 -120.5 41t-48.5 117q0 27 7 50.5t16.5 40t27.5 30.5t33 22.5t41 15.5t42.5 10t45.5 5.5t43 3l43 1.5t37 1v96q0 52 -15 76t-59 24q-36 0 -77.5 -40t-106.5 -148h-12v163
q120 38 207 38q55 0 96.5 -7t78.5 -24.5t57 -52t20 -84.5v-230q0 -48 9 -63.5t26 -15.5q16 0 32 23zM187 177q0 -61 26 -91.5t64 -26t76 39.5q-1 3 -1 11v209q-76 5 -120.5 -32t-44.5 -110zM319 586q-44 0 -75 31t-31 75t31 75t75 31q43 0 74.5 -31t31.5 -75t-31 -75
t-75 -31zM319 757q-27 0 -46 -19t-19 -46t19 -46t46 -19q26 0 45 19t19 46t-19 46t-45 19z" />
    <glyph glyph-name="ae" unicode="&#xe6;" horiz-adv-x="933" 
d="M651 540q127 0 194.5 -68t60.5 -205h-347q9 -94 59.5 -150.5t124.5 -56.5q79 0 132 61l12 -10q-28 -47 -83 -82.5t-133 -35.5q-74 0 -139.5 23t-115 74.5t-60.5 125.5q-8 -108 -51.5 -165.5t-119.5 -57.5q-72 0 -120.5 41t-48.5 117q0 27 7 50.5t16.5 40t27.5 30.5
t33 22.5t41 15.5t42.5 10t45.5 5.5t43 3l43 1.5t37 1v96q0 52 -15 76t-59 24q-36 0 -77.5 -40t-106.5 -148h-12v163q120 38 207 38q127 0 189 -40q70 40 173 40zM352 267v52q-76 5 -120.5 -32t-44.5 -110q0 -62 41 -88q40 -24 76 11q48 45 48 167zM727 288
q2 106 -16.5 172.5t-59.5 66.5q-45 0 -71.5 -68t-21.5 -171h169z" />
    <glyph glyph-name="ccedilla" unicode="&#xe7;" horiz-adv-x="587" 
d="M335 -7q-10 0 -15 1l-9 -35q80 13 131.5 -19t37.5 -100q-13 -61 -88 -87.5t-169 7.5l3 11q53 -6 94 22.5t52 68.5q11 42 -10.5 66t-66.5 19l13 47q-121 7 -206.5 77t-85.5 195q0 91 48.5 154.5t120 91.5t156.5 28q77 0 199 -46v-188h-12q-47 118 -85.5 169.5t-81.5 51.5
q-64 0 -106 -72.5t-32 -188.5q9 -93 59.5 -149.5t124.5 -56.5q79 0 132 61l12 -10q-28 -47 -83 -82.5t-133 -35.5z" />
    <glyph glyph-name="egrave" unicode="&#xe8;" horiz-adv-x="597" 
d="M315 540q127 0 194.5 -68t60.5 -205h-346q8 -93 58.5 -150t124.5 -57q78 0 133 61l12 -10q-28 -47 -83 -82.5t-134 -35.5q-61 0 -116.5 16.5t-101.5 48.5t-73.5 86t-27.5 123q0 89 43.5 152.5t109.5 92t146 28.5zM391 288q3 106 -16 172.5t-60 66.5q-45 0 -71.5 -68
t-21.5 -171h169zM297 744q21 -21 39.5 -56t27.5 -60l8 -25l-7 -7q-94 28 -141 75q-52 54 -16 90t89 -17z" />
    <glyph glyph-name="eacute" unicode="&#xe9;" horiz-adv-x="597" 
d="M315 540q127 0 194.5 -68t60.5 -205h-346q8 -93 58.5 -150t124.5 -57q78 0 133 61l12 -10q-28 -47 -83 -82.5t-134 -35.5q-61 0 -116.5 16.5t-101.5 48.5t-73.5 86t-27.5 123q0 89 43.5 152.5t109.5 92t146 28.5zM391 288q3 106 -16 172.5t-60 66.5q-45 0 -71.5 -68
t-21.5 -171h169zM389 761q35 -37 -17 -90q-21 -21 -56 -39.5t-60 -27.5l-25 -8l-7 7q28 94 75 141q53 53 90 17z" />
    <glyph glyph-name="ecircumflex" unicode="&#xea;" horiz-adv-x="597" 
d="M315 540q127 0 194.5 -68t60.5 -205h-346q8 -93 58.5 -150t124.5 -57q78 0 133 61l12 -10q-28 -47 -83 -82.5t-134 -35.5q-61 0 -116.5 16.5t-101.5 48.5t-73.5 86t-27.5 123q0 89 43.5 152.5t109.5 92t146 28.5zM391 288q3 106 -16 172.5t-60 66.5q-45 0 -71.5 -68
t-21.5 -171h169zM370 769l123 -147l-7 -7l-167 61l-168 -61l-7 7l124 147h102z" />
    <glyph glyph-name="edieresis" unicode="&#xeb;" horiz-adv-x="597" 
d="M315 540q127 0 194.5 -68t60.5 -205h-346q8 -93 58.5 -150t124.5 -57q78 0 133 61l12 -10q-28 -47 -83 -82.5t-134 -35.5q-61 0 -116.5 16.5t-101.5 48.5t-73.5 86t-27.5 123q0 89 43.5 152.5t109.5 92t146 28.5zM391 288q3 106 -16 172.5t-60 66.5q-45 0 -71.5 -68
t-21.5 -171h169zM214 781q37 0 63.5 -26t26.5 -63q0 -38 -26 -64t-64 -26q-37 0 -63 26.5t-26 63.5t26 63t63 26zM422 781q37 0 63.5 -26t26.5 -63q0 -38 -26 -64t-64 -26q-37 0 -63 26.5t-26 63.5t26 63t63 26z" />
    <glyph glyph-name="igrave" unicode="&#xec;" 
d="M271 13h56v-13h-301v13h56v501h-56v13h245v-514zM175 744q21 -21 39.5 -56t27.5 -60l8 -25l-7 -7q-94 28 -141 75q-52 54 -16 90t89 -17z" />
    <glyph glyph-name="iacute" unicode="&#xed;" 
d="M271 13h56v-13h-301v13h56v501h-56v13h245v-514zM267 761q35 -37 -17 -90q-21 -21 -56 -39.5t-60 -27.5l-25 -8l-7 7q28 94 75 141q53 53 90 17z" />
    <glyph glyph-name="icircumflex" unicode="&#xee;" 
d="M274 13h56v-13h-301v13h56v501h-56v13h245v-514zM231 769l123 -147l-7 -7l-167 61l-168 -61l-7 7l124 147h102z" />
    <glyph glyph-name="idieresis" unicode="&#xef;" 
d="M273 13h56v-13h-301v13h56v501h-56v13h245v-514zM74 781q37 0 63.5 -26t26.5 -63q0 -38 -26 -64t-64 -26q-37 0 -63 26.5t-26 63.5t26 63t63 26zM282 781q37 0 63.5 -26t26.5 -63q0 -38 -26 -64t-64 -26q-37 0 -63 26.5t-26 63.5t26 63t63 26z" />
    <glyph glyph-name="eth" unicode="&#xf0;" horiz-adv-x="654" 
d="M426 679q92 -54 148.5 -146t52.5 -219q-5 -147 -92 -234t-213 -87q-129 0 -217.5 70t-88.5 204q0 68 25.5 122t68.5 86t97 48.5t115 16.5q33 0 71 -19q-3 67 -46 125l-126 -52l-7 16l121 50q-44 47 -103 69l5 12q89 -9 169 -52l116 49l7 -17zM322 5q55 0 81 72.5
t26 189.5q0 116 -26 188t-81 72q-54 0 -81 -71t-27 -189t27 -190t81 -72z" />
    <glyph glyph-name="ntilde" unicode="&#xf1;" horiz-adv-x="747" 
d="M660 13h56v-13h-302v13h57v346q0 52 -25.5 78t-72.5 20q-40 -5 -71 -37.5t-31 -70.5v-336h57v-13h-302v13h57v501h-57v13h245v-134q34 71 89 109t123 38q96 0 136.5 -53.5t40.5 -136.5v-337zM442 626q-16 0 -32.5 5t-23.5 8t-26.5 14.5l-24.5 14.5q-39 19 -63 7t-31 -43
h-7q3 76 26 107t70 28q26 -2 68 -25.5t50 -26.5q28 -11 47 0.5t25 36.5h7q-2 -64 -22 -95.5t-63 -30.5z" />
    <glyph glyph-name="ograve" unicode="&#xf2;" horiz-adv-x="653" 
d="M322 540q61 0 114.5 -16.5t96.5 -48.5t68.5 -86t25.5 -122q0 -134 -88.5 -204t-216.5 -70q-129 0 -217.5 70t-88.5 204q0 68 25.5 122t68.5 86t97 48.5t115 16.5zM322 5q54 0 80.5 72t26.5 190t-26.5 189t-80.5 71t-81 -71t-27 -189t27 -190t81 -72zM360 744
q21 -21 39.5 -56t26.5 -60l9 -25l-7 -7q-94 28 -141 75q-52 54 -16 90t89 -17z" />
    <glyph glyph-name="oacute" unicode="&#xf3;" horiz-adv-x="653" 
d="M322 540q61 0 114.5 -16.5t96.5 -48.5t68.5 -86t25.5 -122q0 -134 -88.5 -204t-216.5 -70q-129 0 -217.5 70t-88.5 204q0 68 25.5 122t68.5 86t97 48.5t115 16.5zM322 5q54 0 80.5 72t26.5 190t-26.5 189t-80.5 71t-81 -71t-27 -189t27 -190t81 -72zM392 761
q35 -37 -17 -90q-21 -21 -56 -39.5t-60 -27.5l-25 -8l-7 7q28 94 75 141q53 53 90 17z" />
    <glyph glyph-name="ocircumflex" unicode="&#xf4;" horiz-adv-x="653" 
d="M322 540q61 0 114.5 -16.5t96.5 -48.5t68.5 -86t25.5 -122q0 -134 -88.5 -204t-216.5 -70q-129 0 -217.5 70t-88.5 204q0 68 25.5 122t68.5 86t97 48.5t115 16.5zM322 5q54 0 80.5 72t26.5 190t-26.5 189t-80.5 71t-81 -71t-27 -189t27 -190t81 -72zM373 769l123 -147
l-7 -7l-167 61l-168 -61l-7 7l124 147h102z" />
    <glyph glyph-name="otilde" unicode="&#xf5;" horiz-adv-x="653" 
d="M322 540q61 0 114.5 -16.5t96.5 -48.5t68.5 -86t25.5 -122q0 -134 -88.5 -204t-216.5 -70q-129 0 -217.5 70t-88.5 204q0 68 25.5 122t68.5 86t97 48.5t115 16.5zM322 5q54 0 80.5 72t26.5 190t-26.5 189t-80.5 71t-81 -71t-27 -189t27 -190t81 -72zM383 626
q-16 0 -32.5 5t-23.5 8t-26.5 14.5l-24.5 14.5q-39 19 -63 7t-31 -43h-7q3 76 26 107t70 28q26 -2 68 -25.5t50 -26.5q28 -11 47 0.5t25 36.5h7q-2 -64 -22 -95.5t-63 -30.5z" />
    <glyph glyph-name="odieresis" unicode="&#xf6;" horiz-adv-x="653" 
d="M322 540q61 0 114.5 -16.5t96.5 -48.5t68.5 -86t25.5 -122q0 -134 -88.5 -204t-216.5 -70q-129 0 -217.5 70t-88.5 204q0 68 25.5 122t68.5 86t97 48.5t115 16.5zM322 5q54 0 80.5 72t26.5 190t-26.5 189t-80.5 71t-81 -71t-27 -189t27 -190t81 -72zM217 781
q37 0 63.5 -26t26.5 -63q0 -38 -26.5 -64t-63.5 -26t-63 26.5t-26 63.5t26 63t63 26zM425 781q37 0 63.5 -26t26.5 -63q0 -38 -26.5 -64t-63.5 -26t-63 26.5t-26 63.5t26 63t63 26z" />
    <glyph glyph-name="divide" unicode="&#xf7;" horiz-adv-x="425" 
d="M36 357h353v-57h-353v57zM213 253q43 0 73 -30t30 -73t-30 -73t-73 -30t-73 30t-30 73t30 73t73 30zM213 404q-43 0 -73 30t-30 73t30 73t73 30t73 -30t30 -73t-30 -73t-73 -30z" />
    <glyph glyph-name="oslash" unicode="&#xf8;" horiz-adv-x="653" 
d="M540 468q86 -73 86 -201q0 -134 -88.5 -204t-216.5 -70q-122 0 -204 60l-53 -53h-22l63 62q-89 74 -89 205q0 68 25.5 122t68.5 86t96.5 48.5t114.5 16.5q124 0 207 -62l50 49h22zM214 267q0 -58 5 -93l203 199q-22 154 -101 154q-54 0 -80.5 -71t-26.5 -189zM321 5
q54 0 80.5 72t26.5 190q0 51 -4 87l-203 -199q22 -150 100 -150z" />
    <glyph glyph-name="ugrave" unicode="&#xf9;" horiz-adv-x="732" 
d="M644 13h57v-13h-245v140q-34 -71 -89 -109t-124 -38q-95 0 -135.5 53.5t-40.5 136.5v331h-56v13h245v-353q0 -52 25.5 -78t72.5 -20q40 5 71 37.5t31 70.5v330h-57v13h245v-514zM375 744q21 -21 39.5 -56t27.5 -60l8 -25l-7 -7q-94 28 -141 75q-52 54 -16 90t89 -17z" />
    <glyph glyph-name="uacute" unicode="&#xfa;" horiz-adv-x="732" 
d="M644 13h57v-13h-245v140q-34 -71 -89 -109t-124 -38q-95 0 -135.5 53.5t-40.5 136.5v331h-56v13h245v-353q0 -52 25.5 -78t72.5 -20q40 5 71 37.5t31 70.5v330h-57v13h245v-514zM437 761q35 -37 -17 -90q-21 -21 -56 -39.5t-60 -27.5l-25 -8l-7 7q28 94 75 141
q53 53 90 17z" />
    <glyph glyph-name="ucircumflex" unicode="&#xfb;" horiz-adv-x="732" 
d="M644 13h57v-13h-245v140q-34 -71 -89 -109t-124 -38q-95 0 -135.5 53.5t-40.5 136.5v331h-56v13h245v-353q0 -52 25.5 -78t72.5 -20q40 5 71 37.5t31 70.5v330h-57v13h245v-514zM407 769l123 -147l-7 -7l-167 61l-168 -61l-7 7l124 147h102z" />
    <glyph glyph-name="udieresis" unicode="&#xfc;" horiz-adv-x="732" 
d="M644 13h57v-13h-245v140q-34 -71 -89 -109t-124 -38q-95 0 -135.5 53.5t-40.5 136.5v331h-56v13h245v-353q0 -52 25.5 -78t72.5 -20q40 5 71 37.5t31 70.5v330h-57v13h245v-514zM251 781q37 0 63.5 -26t26.5 -63q0 -38 -26.5 -64t-63.5 -26t-63 26.5t-26 63.5t26 63
t63 26zM459 781q37 0 63.5 -26t26.5 -63q0 -38 -26.5 -64t-63.5 -26t-63 26.5t-26 63.5t26 63t63 26z" />
    <glyph glyph-name="yacute" unicode="&#xfd;" horiz-adv-x="667" 
d="M426 527h235v-13q-41 -12 -74.5 -56.5t-71.5 -130.5l-140 -319l-137 -299l-136 124v13l226 99l-269 569h-63v13h334v-13h-67l157 -375l84 193q31 78 9 125t-87 57v13zM449 761q35 -37 -17 -90q-21 -21 -56 -39.5t-60 -27.5l-25 -8l-7 7q28 94 75 141q53 53 90 17z" />
    <glyph glyph-name="thorn" unicode="&#xfe;" horiz-adv-x="716" 
d="M456 540q91 0 162.5 -72t71.5 -201t-71.5 -201.5t-162.5 -72.5q-65 0 -115 37.5t-70 90.5v-275h80v-13h-325v13h56v841h-56v13h245v-288q20 53 70 90.5t115 37.5zM354 85q63 -7 102 42.5t39 139.5q0 89 -39 138.5t-102 42.5q-26 -3 -49.5 -20t-33.5 -43v-237
q10 -26 33.5 -43t49.5 -20z" />
    <glyph glyph-name="ydieresis" unicode="&#xff;" horiz-adv-x="667" 
d="M426 527h235v-13q-41 -12 -74.5 -56.5t-71.5 -130.5l-140 -319l-137 -299l-136 124v13l226 99l-269 569h-63v13h334v-13h-67l157 -375l84 193q31 78 9 125t-87 57v13zM274 781q37 0 63.5 -26t26.5 -63q0 -38 -26 -64t-64 -26q-37 0 -63 26.5t-26 63.5t26 63t63 26z
M482 781q37 0 63.5 -26t26.5 -63q0 -38 -26 -64t-64 -26q-37 0 -63 26.5t-26 63.5t26 63t63 26z" />
    <glyph glyph-name="Amacron" unicode="&#x100;" horiz-adv-x="796" 
d="M731 13h64v-13h-355v13h57l-95 205h-242l-24 -60q-20 -56 -1 -96t65 -49v-13h-199v13q31 9 65.5 48.5t56.5 96.5l217 542h47zM165 231h231l-124 265zM207 850h321v-57h-321v57z" />
    <glyph glyph-name="amacron" unicode="&#x101;" horiz-adv-x="623" 
d="M608 86l14 -9q-15 -31 -52 -57.5t-83 -26.5q-119 0 -133 93q-24 -37 -68 -65t-101 -28q-72 0 -120.5 41t-48.5 117q0 27 7 50.5t16.5 40t27.5 30.5t33 22.5t41 15.5t42.5 10t45.5 5.5t43 3l43 1.5t37 1v96q0 52 -15 76t-59 24q-36 0 -77.5 -40t-106.5 -148h-12v163
q120 38 207 38q55 0 96.5 -7t78.5 -24.5t57 -52t20 -84.5v-230q0 -48 9 -63.5t26 -15.5q16 0 32 23zM187 177q0 -61 26 -91.5t64 -26t76 39.5q-1 3 -1 11v209q-76 5 -120.5 -32t-44.5 -110zM148 700h321v-57h-321v57z" />
    <glyph glyph-name="Abreve" unicode="&#x102;" horiz-adv-x="796" 
d="M731 13h64v-13h-355v13h57l-95 205h-242l-24 -60q-20 -56 -1 -96t65 -49v-13h-199v13q31 9 65.5 48.5t56.5 96.5l217 542h47zM165 231h231l-124 265zM496 919h11q0 -73 -37 -114t-103 -41t-102.5 40.5t-36.5 114.5h11q8 -32 43.5 -51t84.5 -19t84.5 19t44.5 51z" />
    <glyph glyph-name="abreve" unicode="&#x103;" horiz-adv-x="623" 
d="M608 86l14 -9q-15 -31 -52 -57.5t-83 -26.5q-119 0 -133 93q-24 -37 -68 -65t-101 -28q-72 0 -120.5 41t-48.5 117q0 27 7 50.5t16.5 40t27.5 30.5t33 22.5t41 15.5t42.5 10t45.5 5.5t43 3l43 1.5t37 1v96q0 52 -15 76t-59 24q-36 0 -77.5 -40t-106.5 -148h-12v163
q120 38 207 38q55 0 96.5 -7t78.5 -24.5t57 -52t20 -84.5v-230q0 -48 9 -63.5t26 -15.5q16 0 32 23zM187 177q0 -61 26 -91.5t64 -26t76 39.5q-1 3 -1 11v209q-76 5 -120.5 -32t-44.5 -110zM447 769h11q0 -73 -37 -114t-103 -41t-102.5 40.5t-36.5 114.5h11q8 -32 43.5 -51
t84.5 -19t84.5 19t44.5 51z" />
    <glyph glyph-name="Aogonek" unicode="&#x104;" horiz-adv-x="796" 
d="M788 -166l7 -7q-28 -45 -75 -67t-90.5 -15.5t-64.5 38.5q-31 46 2.5 114.5t81.5 102.5h-209v13h57l-95 205h-242l-23 -60q-21 -56 -2 -96t65 -49v-13h-199v13q31 9 65.5 48.5t56.5 96.5l217 542h47l344 -687h64v-13h-131q-49 -104 -13 -153q20 -27 59.5 -31t77.5 18z
M166 231h230l-124 265z" />
    <glyph glyph-name="aogonek" unicode="&#x105;" horiz-adv-x="623" 
d="M615 -166l7 -7q-28 -45 -75 -67t-90.5 -15.5t-64.5 38.5q-30 44 -0.5 108.5t76.5 102.5q-100 8 -114 92q-24 -37 -67.5 -65t-100.5 -28q-73 0 -121.5 41t-48.5 117q0 27 7 50.5t16.5 40t27.5 30.5t33 22.5t41 15.5t42.5 10t45.5 5.5t43 3l43 1.5t37 1v96q0 52 -15 76
t-59 24q-36 0 -77.5 -40t-106.5 -148h-12v163q120 38 207 38q55 0 96.5 -7t78.5 -24.5t57 -52t20 -84.5v-230q0 -48 9 -63.5t26 -15.5q16 0 32 23l14 -9q-15 -31 -52 -57.5t-83 -26.5q-43 -98 -9 -146q20 -27 59 -31t78 18zM187 176q0 -60 26 -90.5t64 -26t76 39.5
q-1 3 -1 11v209q-76 5 -120.5 -32t-44.5 -111z" />
    <glyph glyph-name="Cacute" unicode="&#x106;" horiz-adv-x="723" 
d="M678 158l14 -11q-37 -62 -106.5 -108t-174.5 -46q-78 0 -146.5 21.5t-122.5 63.5t-85 111.5t-31 158.5q0 86 32 155t87 112t124.5 65.5t148.5 22.5q102 0 259 -59v-244h-13q-60 151 -112 219t-107 68q-85 0 -145 -95t-46 -244q11 -119 82 -193t169 -75q64 -1 102.5 20.5
t70.5 57.5zM470 911q35 -37 -17 -90q-21 -21 -56 -39.5t-60 -27.5l-25 -8l-7 7q28 94 75 141q53 53 90 17z" />
    <glyph glyph-name="cacute" unicode="&#x107;" horiz-adv-x="587" 
d="M539 121l12 -10q-28 -47 -83 -82.5t-133 -35.5q-61 0 -116.5 16.5t-101.5 48.5t-73.5 86t-27.5 123q0 68 27.5 122t74.5 86t103.5 48.5t118.5 16.5q78 0 200 -46v-187h-13q-46 116 -85 168t-81 52q-64 0 -106 -72.5t-32 -187.5q9 -94 59.5 -150.5t124.5 -56.5
q79 0 132 61zM399 761q35 -37 -17 -90q-21 -21 -56 -39.5t-60 -27.5l-25 -8l-7 7q28 94 75 141q53 53 90 17z" />
    <glyph glyph-name="Ccircumflex" unicode="&#x108;" horiz-adv-x="723" 
d="M678 158l14 -11q-37 -62 -106.5 -108t-174.5 -46q-78 0 -146.5 21.5t-122.5 63.5t-85 111.5t-31 158.5q0 86 32 155t87 112t124.5 65.5t148.5 22.5q102 0 259 -59v-244h-13q-60 151 -112 219t-107 68q-85 0 -145 -95t-46 -244q11 -119 82 -193t169 -75q64 -1 102.5 20.5
t70.5 57.5zM460 919l123 -147l-7 -7l-167 61l-168 -61l-7 7l124 147h102z" />
    <glyph glyph-name="ccircumflex" unicode="&#x109;" horiz-adv-x="587" 
d="M539 121l12 -10q-28 -47 -83 -82.5t-133 -35.5q-61 0 -116.5 16.5t-101.5 48.5t-73.5 86t-27.5 123q0 68 27.5 122t74.5 86t103.5 48.5t118.5 16.5q78 0 200 -46v-187h-13q-46 116 -85 168t-81 52q-64 0 -106 -72.5t-32 -187.5q9 -94 59.5 -150.5t124.5 -56.5
q79 0 132 61zM370 769l123 -147l-7 -7l-167 61l-168 -61l-7 7l124 147h102z" />
    <glyph glyph-name="Cdotaccent" unicode="&#x10a;" horiz-adv-x="723" 
d="M678 158l14 -11q-37 -62 -106.5 -108t-174.5 -46q-78 0 -146.5 21.5t-122.5 63.5t-85 111.5t-31 158.5q0 86 32 155t87 112t124.5 65.5t148.5 22.5q102 0 259 -59v-244h-13q-60 151 -112 219t-107 68q-85 0 -145 -95t-46 -244q11 -119 82 -193t169 -75q64 -1 102.5 20.5
t70.5 57.5zM419 931q37 0 63 -26t26 -63t-26 -63.5t-63 -26.5t-63.5 26t-26.5 64q0 37 26.5 63t63.5 26z" />
    <glyph glyph-name="cdotaccent" unicode="&#x10b;" horiz-adv-x="587" 
d="M539 121l12 -10q-28 -47 -83 -82.5t-133 -35.5q-61 0 -116.5 16.5t-101.5 48.5t-73.5 86t-27.5 123q0 68 27.5 122t74.5 86t103.5 48.5t118.5 16.5q78 0 200 -46v-187h-13q-46 116 -85 168t-81 52q-64 0 -106 -72.5t-32 -187.5q9 -94 59.5 -150.5t124.5 -56.5
q79 0 132 61zM339 781q37 0 63 -26t26 -63t-26 -63.5t-63 -26.5t-63.5 26t-26.5 64q0 37 26.5 63t63.5 26z" />
    <glyph glyph-name="Ccaron" unicode="&#x10c;" horiz-adv-x="723" 
d="M678 158l14 -11q-37 -62 -106.5 -108t-174.5 -46q-78 0 -146.5 21.5t-122.5 63.5t-85 111.5t-31 158.5q0 86 32 155t87 112t124.5 65.5t148.5 22.5q102 0 259 -59v-244h-13q-60 151 -112 219t-107 68q-85 0 -145 -95t-46 -244q11 -119 82 -193t169 -75q64 -1 102.5 20.5
t70.5 57.5zM586 919l7 -6l-123 -148h-102l-123 148l7 6l167 -60z" />
    <glyph glyph-name="ccaron" unicode="&#x10d;" horiz-adv-x="587" 
d="M539 121l12 -10q-28 -47 -83 -82.5t-133 -35.5q-61 0 -116.5 16.5t-101.5 48.5t-73.5 86t-27.5 123q0 68 27.5 122t74.5 86t103.5 48.5t118.5 16.5q78 0 200 -46v-187h-13q-46 116 -85 168t-81 52q-64 0 -106 -72.5t-32 -187.5q9 -94 59.5 -150.5t124.5 -56.5
q79 0 132 61zM495 769l7 -6l-123 -148h-102l-123 148l7 6l167 -60z" />
    <glyph glyph-name="Dcaron" unicode="&#x10e;" horiz-adv-x="826" 
d="M800 350q0 -347 -441 -350h-323v13h65v674h-65v13h323q441 -3 441 -350zM379 22q203 0 203 328q0 329 -203 329h-73v-657h73zM565 919l7 -6l-123 -148h-102l-123 148l7 6l167 -60z" />
    <glyph glyph-name="dcaron" unicode="&#x10f;" horiz-adv-x="919" 
d="M623 13h57v-13h-245v121q-20 -53 -70 -90.5t-115 -37.5q-91 0 -162.5 72.5t-71.5 201.5t71.5 201t162.5 72q65 0 115 -37.5t70 -90.5v275h-57v13h245v-687zM435 148v237q-11 27 -35 44t-49 19q-63 7 -102 -42.5t-39 -138.5q0 -90 39 -139.5t102 -42.5q26 3 49.5 20
t34.5 43zM888 600q0 -68 -51.5 -135t-101.5 -99l-7 11q30 22 59 62.5t39 66.5q-18 -9 -42 -9q-42 0 -72.5 30t-30.5 73t30.5 73t72.5 30q43 0 73.5 -30t30.5 -73z" />
    <glyph glyph-name="Dcroat" unicode="&#x110;" horiz-adv-x="826" 
d="M359 700q441 0 441 -350t-441 -350h-323v13h65v327h-65v21h65v326h-65v13h323zM379 22q203 0 203 328q0 329 -203 329h-73v-318h154v-21h-154v-318h73z" />
    <glyph glyph-name="dcroat" unicode="&#x111;" horiz-adv-x="711" 
d="M680 600h-56v-587h56v-13h-245v121q-20 -53 -70 -90.5t-114 -37.5q-92 0 -163.5 72.5t-71.5 201.5q0 66 21 119.5t55.5 86t75.5 50t83 17.5q64 0 114 -37.5t70 -90.5v188h-157v22h157v65h-56v13h245v-78h56v-22zM435 148v237q-10 26 -33.5 43t-49.5 20q-63 7 -102 -42.5
t-39 -138.5q0 -90 39 -139.5t102 -42.5q26 3 49.5 20t33.5 43z" />
    <glyph glyph-name="Emacron" unicode="&#x112;" horiz-adv-x="671" 
d="M628 284h12v-284h-604v13h65v674h-65v13h588v-283h-13q-7 56 -20.5 98t-38.5 81.5t-69 61t-104 21.5h-73v-322h58q74 0 101.5 24t39.5 90h13v-241h-13q-12 66 -39 90t-102 24h-58v-322h90q60 0 103.5 21t69 60.5t38.5 82t21 98.5zM197 850h321v-57h-321v57z" />
    <glyph glyph-name="emacron" unicode="&#x113;" horiz-adv-x="597" 
d="M315 540q127 0 194.5 -68t60.5 -205h-346q8 -93 58.5 -150t124.5 -57q78 0 133 61l12 -10q-28 -47 -83 -82.5t-134 -35.5q-61 0 -116.5 16.5t-101.5 48.5t-73.5 86t-27.5 123q0 89 43.5 152.5t109.5 92t146 28.5zM391 288q3 106 -16 172.5t-60 66.5q-45 0 -71.5 -68
t-21.5 -171h169zM158 700h321v-57h-321v57z" />
    <glyph glyph-name="Ebreve" unicode="&#x114;" horiz-adv-x="671" 
d="M628 284h12v-284h-604v13h65v674h-65v13h588v-283h-13q-7 56 -20.5 98t-38.5 81.5t-69 61t-104 21.5h-73v-322h58q74 0 101.5 24t39.5 90h13v-241h-13q-12 66 -39 90t-102 24h-58v-322h90q60 0 103.5 21t69 60.5t38.5 82t21 98.5zM486 919h11q0 -73 -37 -114t-103 -41
t-102.5 40.5t-36.5 114.5h11q8 -32 43.5 -51t84.5 -19t84.5 19t44.5 51z" />
    <glyph glyph-name="ebreve" unicode="&#x115;" horiz-adv-x="597" 
d="M315 540q127 0 194.5 -68t60.5 -205h-346q8 -93 58.5 -150t124.5 -57q78 0 133 61l12 -10q-28 -47 -83 -82.5t-134 -35.5q-61 0 -116.5 16.5t-101.5 48.5t-73.5 86t-27.5 123q0 89 43.5 152.5t109.5 92t146 28.5zM391 288q3 106 -16 172.5t-60 66.5q-45 0 -71.5 -68
t-21.5 -171h169zM447 769h11q0 -73 -37 -114t-103 -41t-102.5 40.5t-36.5 114.5h11q8 -32 43.5 -51t84.5 -19t84.5 19t44.5 51z" />
    <glyph glyph-name="Edotaccent" unicode="&#x116;" horiz-adv-x="671" 
d="M628 284h12v-284h-604v13h65v674h-65v13h588v-283h-13q-7 56 -20.5 98t-38.5 81.5t-69 61t-104 21.5h-73v-322h58q74 0 101.5 24t39.5 90h13v-241h-13q-12 66 -39 90t-102 24h-58v-322h90q60 0 103.5 21t69 60.5t38.5 82t21 98.5zM358 931q37 0 63 -26t26 -63t-26 -63.5
t-63 -26.5q-38 0 -64 26t-26 64q0 37 26.5 63t63.5 26z" />
    <glyph glyph-name="edotaccent" unicode="&#x117;" horiz-adv-x="597" 
d="M315 540q127 0 194.5 -68t60.5 -205h-346q8 -93 58.5 -150t124.5 -57q78 0 133 61l12 -10q-28 -47 -83 -82.5t-134 -35.5q-61 0 -116.5 16.5t-101.5 48.5t-73.5 86t-27.5 123q0 89 43.5 152.5t109.5 92t146 28.5zM391 288q3 106 -16 172.5t-60 66.5q-45 0 -71.5 -68
t-21.5 -171h169zM319 781q37 0 63 -26t26 -63t-26 -63.5t-63 -26.5t-63.5 26t-26.5 64q0 37 26.5 63t63.5 26z" />
    <glyph glyph-name="Eogonek" unicode="&#x118;" horiz-adv-x="671" 
d="M640 0h-131q-49 -104 -13 -153q20 -27 59.5 -31t78.5 18l6 -7q-28 -45 -75 -67t-90.5 -15.5t-64.5 38.5q-31 46 2.5 114.5t81.5 102.5h-458v13h64v674h-64v13h588v-283h-13q-6 44 -15 79t-26.5 70.5t-41.5 59t-62 38.5t-87 15h-74v-322h59q74 0 101 24t40 90h13v-241h-13
q-13 67 -40 90.5t-101 23.5h-59v-322h90q60 0 104 21t69 60.5t38.5 82t20.5 98.5h13v-284z" />
    <glyph glyph-name="eogonek" unicode="&#x119;" horiz-adv-x="597" 
d="M570 266h-347q9 -93 59.5 -149.5t124.5 -56.5q79 0 132 61l12 -10q-18 -31 -51.5 -60t-80.5 -44q-51 -109 -15 -160q20 -27 59 -31t78 18l7 -7q-28 -45 -75 -67t-90.5 -15.5t-64.5 38.5q-32 48 3 117.5t84 101.5q-38 -9 -70 -9q-61 0 -116.5 16.5t-101.5 48.5t-73.5 86
t-27.5 122q0 90 43 153.5t109 92t147 28.5q127 0 194.5 -68.5t60.5 -205.5zM222 288h169q2 106 -16.5 172.5t-59.5 66.5q-45 0 -71.5 -68t-21.5 -171z" />
    <glyph glyph-name="Ecaron" unicode="&#x11a;" horiz-adv-x="671" 
d="M628 284h12v-284h-604v13h65v674h-65v13h588v-283h-13q-7 56 -20.5 98t-38.5 81.5t-69 61t-104 21.5h-73v-322h58q74 0 101.5 24t39.5 90h13v-241h-13q-12 66 -39 90t-102 24h-58v-322h90q60 0 103.5 21t69 60.5t38.5 82t21 98.5zM525 919l7 -6l-123 -148h-102l-123 148
l7 6l167 -60z" />
    <glyph glyph-name="ecaron" unicode="&#x11b;" horiz-adv-x="597" 
d="M315 540q127 0 194.5 -68t60.5 -205h-346q8 -93 58.5 -150t124.5 -57q78 0 133 61l12 -10q-28 -47 -83 -82.5t-134 -35.5q-61 0 -116.5 16.5t-101.5 48.5t-73.5 86t-27.5 123q0 89 43.5 152.5t109.5 92t146 28.5zM391 288q3 106 -16 172.5t-60 66.5q-45 0 -71.5 -68
t-21.5 -171h169zM485 769l7 -6l-123 -148h-102l-123 148l7 6l167 -60z" />
    <glyph glyph-name="Gcircumflex" unicode="&#x11c;" horiz-adv-x="771" 
d="M760 313v-13h-56v-300h-13v58q-46 -22 -70 -32.5t-71.5 -21.5t-97.5 -11q-123 0 -217 37t-151.5 118.5t-57.5 199.5q0 172 116.5 263.5t309.5 91.5q104 0 226 -46v-213h-12l-38.5 86.5t-34.5 65.5t-39.5 52.5t-44 28t-57.5 11.5q-83 0 -146 -91.5t-63 -248.5t62 -240
t157 -91q32 -3 61 2v281h-64v13h301zM484 919l123 -147l-7 -7l-167 61l-168 -61l-7 7l124 147h102z" />
    <glyph glyph-name="gcircumflex" unicode="&#x11d;" horiz-adv-x="643" 
d="M357 152q128 0 189 -28t61 -106q0 -89 -83 -151t-223 -62q-152 0 -218.5 18t-66.5 70q0 68 150 107q-81 12 -113 43.5t-25 82.5q12 75 102 120q-79 44 -79 128q0 79 69.5 122.5t181.5 43.5q68 0 119 -16l172 143h10v-151h-158q108 -42 108 -142q0 -79 -69.5 -122.5
t-181.5 -43.5q-92 0 -156 29q-7 -19 -7 -38q1 -31 45 -39t173 -8zM302 525q-40 0 -61.5 -41.5t-21.5 -109.5t21.5 -109.5t61.5 -41.5q41 0 62 41.5t21 109.5t-21 109.5t-62 41.5zM463 -93q2 41 -33 62.5t-128 21.5q-50 0 -89 3q-34 -14 -58 -40.5t-25 -56.5
q0 -36 46.5 -54.5t125.5 -18.5q156 0 161 83zM353 769l123 -147l-7 -7l-167 61l-168 -61l-7 7l124 147h102z" />
    <glyph glyph-name="Gbreve" unicode="&#x11e;" horiz-adv-x="771" 
d="M760 313v-13h-56v-300h-13v58q-46 -22 -70 -32.5t-71.5 -21.5t-97.5 -11q-123 0 -217 37t-151.5 118.5t-57.5 199.5q0 172 116.5 263.5t309.5 91.5q104 0 226 -46v-213h-12l-38.5 86.5t-34.5 65.5t-39.5 52.5t-44 28t-57.5 11.5q-83 0 -146 -91.5t-63 -248.5t62 -240
t157 -91q32 -3 61 2v281h-64v13h301zM561 919h11q0 -73 -37 -114t-103 -41t-102.5 40.5t-36.5 114.5h11q8 -32 43.5 -51t84.5 -19t84.5 19t44.5 51z" />
    <glyph glyph-name="gbreve" unicode="&#x11f;" horiz-adv-x="643" 
d="M357 152q128 0 189 -28t61 -106q0 -89 -83 -151t-223 -62q-152 0 -218.5 18t-66.5 70q0 68 150 107q-81 12 -113 43.5t-25 82.5q12 75 102 120q-79 44 -79 128q0 79 69.5 122.5t181.5 43.5q68 0 119 -16l172 143h10v-151h-158q108 -42 108 -142q0 -79 -69.5 -122.5
t-181.5 -43.5q-92 0 -156 29q-7 -19 -7 -38q1 -31 45 -39t173 -8zM302 525q-40 0 -61.5 -41.5t-21.5 -109.5t21.5 -109.5t61.5 -41.5q41 0 62 41.5t21 109.5t-21 109.5t-62 41.5zM463 -93q2 41 -33 62.5t-128 21.5q-50 0 -89 3q-34 -14 -58 -40.5t-25 -56.5
q0 -36 46.5 -54.5t125.5 -18.5q156 0 161 83zM430 769h11q0 -73 -37 -114t-103 -41t-102.5 40.5t-36.5 114.5h11q8 -32 43.5 -51t84.5 -19t84.5 19t44.5 51z" />
    <glyph glyph-name="Gdotaccent" unicode="&#x120;" horiz-adv-x="771" 
d="M760 313v-13h-56v-300h-13v58q-46 -22 -70 -32.5t-71.5 -21.5t-97.5 -11q-123 0 -217 37t-151.5 118.5t-57.5 199.5q0 172 116.5 263.5t309.5 91.5q104 0 226 -46v-213h-12l-38.5 86.5t-34.5 65.5t-39.5 52.5t-44 28t-57.5 11.5q-83 0 -146 -91.5t-63 -248.5t62 -240
t157 -91q32 -3 61 2v281h-64v13h301zM443 931q37 0 63 -26t26 -63t-26 -63.5t-63 -26.5t-63.5 26t-26.5 64q0 37 26.5 63t63.5 26z" />
    <glyph glyph-name="gdotaccent" unicode="&#x121;" horiz-adv-x="643" 
d="M357 152q128 0 189 -28t61 -106q0 -89 -83 -151t-223 -62q-152 0 -218.5 18t-66.5 70q0 68 150 107q-81 12 -113 43.5t-25 82.5q12 75 102 120q-79 44 -79 128q0 79 69.5 122.5t181.5 43.5q68 0 119 -16l172 143h10v-151h-158q108 -42 108 -142q0 -79 -69.5 -122.5
t-181.5 -43.5q-92 0 -156 29q-7 -19 -7 -38q1 -31 45 -39t173 -8zM302 525q-40 0 -61.5 -41.5t-21.5 -109.5t21.5 -109.5t61.5 -41.5q41 0 62 41.5t21 109.5t-21 109.5t-62 41.5zM463 -93q2 41 -33 62.5t-128 21.5q-50 0 -89 3q-34 -14 -58 -40.5t-25 -56.5
q0 -36 46.5 -54.5t125.5 -18.5q156 0 161 83zM302 781q37 0 63 -26t26 -63t-26 -63.5t-63 -26.5q-38 0 -64 26t-26 64q0 37 26.5 63t63.5 26z" />
    <glyph glyph-name="Gcommaaccent" unicode="&#x122;" horiz-adv-x="771" 
d="M760 313v-13h-56v-300h-13v58q-46 -22 -70 -32.5t-71.5 -21.5t-97.5 -11q-123 0 -217 37t-151.5 118.5t-57.5 199.5q0 172 116.5 263.5t309.5 91.5q104 0 226 -46v-213h-12l-38.5 86.5t-34.5 65.5t-39.5 52.5t-44 28t-57.5 11.5q-83 0 -146 -91.5t-63 -248.5t62 -240
t157 -91q32 -3 61 2v281h-64v13h301zM556 -149q0 -69 -51.5 -136t-101.5 -98l-6 11q30 22 59 62.5t39 66.5q-23 -9 -42 -9q-43 0 -73 30t-30 73t30 73t73 30t73 -30t30 -73z" />
    <glyph glyph-name="gcommaaccent" unicode="&#x123;" horiz-adv-x="643" 
d="M357 152q128 0 189 -28t61 -106q0 -89 -83 -151t-223 -62q-152 0 -218.5 18t-66.5 70q0 68 150 107q-81 12 -113 43.5t-25 82.5q12 75 102 120q-79 44 -79 128q0 79 69.5 122.5t181.5 43.5q68 0 119 -16l172 143h10v-151h-158q108 -42 108 -142q0 -79 -69.5 -122.5
t-181.5 -43.5q-92 0 -156 29q-7 -19 -7 -38q1 -31 45 -39t173 -8zM302 525q-40 0 -61.5 -41.5t-21.5 -109.5t21.5 -109.5t61.5 -41.5q41 0 62 41.5t21 109.5t-21 109.5t-62 41.5zM463 -93q2 41 -33 62.5t-128 21.5q-50 0 -89 3q-34 -14 -58 -40.5t-25 -56.5
q0 -36 46.5 -54.5t125.5 -18.5q156 0 161 83zM301 813q43 0 73 -30t30 -73t-30 -73t-73 -30t-73 30t-30 73q0 69 51.5 136t101.5 98l6 -11q-30 -22 -59 -62.5t-39 -66.5q22 9 42 9z" />
    <glyph glyph-name="Hcircumflex" unicode="&#x124;" horiz-adv-x="849" 
d="M813 687h-64v-674h64v-13h-334v13h64v323h-237v-323h65v-13h-335v13h65v674h-65v13h335v-13h-65v-330h237v330h-64v13h334v-13zM476 919l123 -147l-7 -7l-167 61l-168 -61l-7 7l124 147h102z" />
    <glyph glyph-name="hcircumflex" unicode="&#x125;" horiz-adv-x="747" 
d="M660 13h56v-13h-301v13h56v346q0 52 -25.5 78t-72.5 20q-40 -5 -70.5 -37.5t-30.5 -70.5v-336h56v-13h-302v13h57v674h-57v13h246v-307q33 71 88 109t124 38q95 0 135.5 -53.5t40.5 -136.5v-337zM258 904l123 -147l-7 -7l-167 61l-168 -61l-7 7l124 147h102z" />
    <glyph glyph-name="Hbar" unicode="&#x126;" horiz-adv-x="849" 
d="M814 687h-65v-162h65v-22h-65v-490h65v-13h-335v13h65v323h-238v-323h65v-13h-335v13h65v490h-65v22h65v162h-65v13h335v-13h-65v-162h238v162h-65v13h335v-13zM544 357v146h-238v-146h238z" />
    <glyph glyph-name="hbar" unicode="&#x127;" horiz-adv-x="747" 
d="M659 13h56v-13h-301v13h56v346q0 52 -25.5 78t-72.5 20q-39 -5 -70 -37.5t-31 -70.5v-336h56v-13h-301v13h56v587h-56v22h56v65h-56v13h245v-78h149v-22h-149v-207q33 71 88 109t124 38q95 0 135.5 -53.5t40.5 -136.5v-337z" />
    <glyph glyph-name="Itilde" unicode="&#x128;" horiz-adv-x="406" 
d="M370 687h-64v-674h64v-13h-334v13h65v674h-65v13h334v-13zM264 776q-16 0 -32.5 5t-23.5 8t-26.5 14.5l-24.5 14.5q-39 19 -63 7t-31 -43h-7q3 76 26 107t70 28q26 -2 68 -25.5t50 -26.5q28 -11 47 0.5t25 36.5h7q-2 -64 -22 -95.5t-63 -30.5z" />
    <glyph glyph-name="itilde" unicode="&#x129;" 
d="M271 13h56v-13h-301v13h56v501h-56v13h245v-514zM238 626q-16 0 -32.5 5t-23.5 8t-26.5 14.5l-24.5 14.5q-39 19 -63 7t-31 -43h-7q3 76 26 107t70 28q26 -2 68 -25.5t50 -26.5q28 -11 47 0.5t25 36.5h7q-2 -64 -22 -95.5t-63 -30.5z" />
    <glyph glyph-name="Imacron" unicode="&#x12a;" horiz-adv-x="406" 
d="M370 687h-64v-674h64v-13h-334v13h65v674h-65v13h334v-13zM42 850h321v-57h-321v57z" />
    <glyph glyph-name="imacron" unicode="&#x12b;" 
d="M284 13h56v-13h-301v13h56v501h-56v13h245v-514zM19 700h321v-57h-321v57z" />
    <glyph glyph-name="Ibreve" unicode="&#x12c;" horiz-adv-x="406" 
d="M370 687h-64v-674h64v-13h-334v13h65v674h-65v13h334v-13zM331 919h11q0 -73 -37 -114t-103 -41t-102.5 40.5t-36.5 114.5h11q8 -32 43.5 -51t84.5 -19t84.5 19t44.5 51z" />
    <glyph glyph-name="ibreve" unicode="&#x12d;" 
d="M274 13h56v-13h-301v13h56v501h-56v13h245v-514zM308 769h11q0 -73 -37 -114t-103 -41t-102.5 40.5t-36.5 114.5h11q8 -32 43.5 -51t84.5 -19t84.5 19t44.5 51z" />
    <glyph glyph-name="Iogonek" unicode="&#x12e;" horiz-adv-x="406" 
d="M370 687h-64v-674h64v-13h-176q-49 -104 -13 -153q20 -27 59.5 -31t77.5 18l7 -7q-28 -45 -75 -67t-90.5 -15.5t-64.5 38.5q-31 46 2.5 114.5t81.5 102.5h-143v13h64v674h-64v13h334v-13z" />
    <glyph glyph-name="iogonek" unicode="&#x12f;" 
d="M330 0h-160q-47 -105 -12 -153q20 -27 59 -31t78 18l7 -7q-28 -45 -75 -67t-90.5 -15.5t-64.5 38.5q-31 46 2 115t82 102h-127v13h56v501h-56v13h245v-514h56v-13zM180 567q-41 0 -70.5 29t-29.5 70t29.5 70.5t70.5 29.5t70 -29.5t29 -70.5t-29 -70t-70 -29z" />
    <glyph glyph-name="Idotaccent" unicode="&#x130;" horiz-adv-x="406" 
d="M370 687h-64v-674h64v-13h-334v13h65v674h-65v13h334v-13zM203 931q37 0 63 -26t26 -63t-26 -63.5t-63 -26.5t-63.5 26t-26.5 64q0 37 26.5 63t63.5 26z" />
    <glyph glyph-name="dotlessi" unicode="&#x131;" 
d="M271 13h56v-13h-301v13h56v501h-56v13h245v-514z" />
    <glyph glyph-name="IJ" unicode="&#x132;" horiz-adv-x="970" 
d="M370 687h-64v-674h64v-13h-334v13h65v674h-65v13h334v-13zM949 700v-13h-65v-401q0 -163 -67 -228t-233 -65q-48 0 -89 10.5t-105 35.5v229h10q70 -161 101 -205q39 -55 83 -55q95 0 95 187v492h-97v13h367z" />
    <glyph glyph-name="ij" unicode="&#x133;" horiz-adv-x="693" 
d="M271 13h56v-13h-301v13h56v501h-56v13h245v-514zM177 567q-41 0 -70.5 29t-29.5 70t29.5 70.5t70.5 29.5t70 -29.5t29 -70.5t-29 -70t-70 -29zM345 527h267v-362q0 -95 -11 -155.5t-41 -105.5t-84 -64.5t-139 -19.5v15q86 0 86 198v481h-78v13zM517 567q-41 0 -70 29
t-29 70t29 70.5t70 29.5t70.5 -29.5t29.5 -70.5t-29.5 -70t-70.5 -29z" />
    <glyph glyph-name="Jcircumflex" unicode="&#x134;" horiz-adv-x="591" 
d="M570 700v-13h-65v-401q0 -163 -67 -228t-233 -65q-48 0 -89 10.5t-105 35.5v229h10q70 -161 101 -205q39 -55 83 -55q95 0 95 187v492h-97v13h367zM438 919l123 -147l-7 -7l-167 61l-168 -61l-7 7l124 147h102z" />
    <glyph glyph-name="jcircumflex" unicode="&#x135;" horiz-adv-x="355" 
d="M7 527h267v-362q0 -95 -11 -155.5t-41 -105.5t-84 -64.5t-139 -19.5v15q86 0 86 198v481h-78v13zM201 719l123 -147l-7 -7l-167 61l-168 -61l-7 7l124 147h102z" />
    <glyph glyph-name="Kcommaaccent" unicode="&#x136;" horiz-adv-x="863" 
d="M789 13h73v-13h-367v13h56l-193 307l-53 -53v-254h65v-13h-334v13h64v674h-64v13h334v-13h-65v-399l213 216q53 61 65.5 102t-9 59.5t-69.5 21.5v13h277v-13q-23 -6 -45 -16.5t-37.5 -20t-39 -30t-36 -33l-42 -42l-44.5 -43.5l-37 -37zM522 -149q0 -69 -51.5 -136
t-101.5 -98l-6 11q30 22 59 62.5t39 66.5q-22 -9 -42 -9q-43 0 -73 30t-30 73t30 73t73 30t73 -30t30 -73z" />
    <glyph glyph-name="kcommaaccent" unicode="&#x137;" horiz-adv-x="707" 
d="M645 13h61v-13h-318v13h52l-119 227l-50 -53v-174h56v-13h-301v13h56v674h-56v13h245v-497l167 177q45 56 39.5 92.5t-54.5 41.5v13h227v-13q-92 -23 -197 -134q-1 -1 -4.5 -5t-5.5 -6zM459 -149q0 -69 -51.5 -136t-101.5 -98l-6 11q30 22 59 62.5t39 66.5q-22 -9 -42 -9
q-43 0 -73 30t-30 73t30 73t73 30t73 -30t30 -73z" />
    <glyph glyph-name="kgreenlandic" unicode="&#x138;" horiz-adv-x="707" 
d="M645 13h61v-13h-318v13h52l-119 227l-50 -53v-174h56v-13h-301v13h56v501h-56v13h301v-13h-56v-311l167 177q45 56 39.5 92.5t-54.5 41.5v13h227v-13q-92 -23 -197 -134q-1 -1 -4.5 -5t-5.5 -6z" />
    <glyph glyph-name="Lacute" unicode="&#x139;" horiz-adv-x="683" 
d="M644 284h13v-284h-621v13h64v674h-64v13h334v-13h-64v-665h106q59 0 102 21.5t69 60.5t40 82t21 98zM297 911q35 -37 -17 -90q-21 -21 -56 -39.5t-60 -27.5l-25 -8l-7 7q28 94 75 141q53 53 90 17z" />
    <glyph glyph-name="lacute" unicode="&#x13a;" 
d="M271 13h56v-13h-301v13h56v674h-56v13h245v-687zM267 929q35 -37 -17 -90q-21 -21 -56 -39.5t-60 -27.5l-25 -8l-7 7q28 94 75 141q53 53 90 17z" />
    <glyph glyph-name="Lcommaaccent" unicode="&#x13b;" horiz-adv-x="683" 
d="M644 284h13v-284h-621v13h64v674h-64v13h334v-13h-64v-665h106q59 0 102 21.5t69 60.5t40 82t21 98zM479 -149q0 -69 -51.5 -136t-101.5 -98l-6 11q30 22 59 62.5t39 66.5q-22 -9 -42 -9q-43 0 -73 30t-30 73t30 73t73 30t73 -30t30 -73z" />
    <glyph glyph-name="lcommaaccent" unicode="&#x13c;" 
d="M271 13h56v-13h-301v13h56v674h-56v13h245v-687zM279 -129q0 -69 -51.5 -136t-101.5 -98l-6 11q30 22 59 62.5t39 66.5q-22 -9 -42 -9q-43 0 -73 30t-30 73t30 73t73 30t73 -30t30 -73z" />
    <glyph glyph-name="Lcaron" unicode="&#x13d;" horiz-adv-x="683" 
d="M644 284h13v-284h-621v13h64v674h-64v13h334v-13h-64v-665h106q59 0 102 21.5t69 60.5t40 82t21 98zM643 600q0 -68 -51.5 -135t-101.5 -99l-7 11q30 22 59 62.5t39 66.5q-18 -9 -42 -9q-42 0 -72.5 30t-30.5 73t30.5 73t72.5 30q43 0 73.5 -30t30.5 -73z" />
    <glyph glyph-name="lcaron" unicode="&#x13e;" horiz-adv-x="565" 
d="M271 13h56v-13h-301v13h56v674h-56v13h245v-687zM544 600q0 -68 -51.5 -135t-101.5 -99l-7 11q30 22 59 62.5t39 66.5q-18 -9 -42 -9q-42 0 -72.5 30t-30.5 73t30.5 73t72.5 30q43 0 73.5 -30t30.5 -73z" />
    <glyph glyph-name="Ldot" unicode="&#x13f;" horiz-adv-x="683" 
d="M644 284h13v-284h-621v13h64v674h-64v13h334v-13h-64v-665h106q59 0 102 21.5t69 60.5t40 82t21 98zM479 391q37 0 63 -26t26 -63t-26 -63.5t-63 -26.5t-63.5 26t-26.5 64q0 37 26.5 63t63.5 26z" />
    <glyph glyph-name="ldot" unicode="&#x140;" horiz-adv-x="521" 
d="M271 13h56v-13h-301v13h56v674h-56v13h245v-687zM411 393q37 0 63 -26t26 -63t-26 -63.5t-63 -26.5t-63.5 26t-26.5 64q0 37 26.5 63t63.5 26z" />
    <glyph glyph-name="Lslash" unicode="&#x141;" horiz-adv-x="683" 
d="M644 284h13v-284h-621v13h64v216l-64 -28v21l64 28v437h-64v13h334v-13h-64v-348l160 69v-22l-160 -69v-295h106q59 0 102 21.5t69 60.5t40 82t21 98z" />
    <glyph glyph-name="lslash" unicode="&#x142;" horiz-adv-x="359" 
d="M328 337l-57 -24v-300h57v-13h-302v13h57v219l-57 -25v22l57 24v434h-57v13h245v-366l57 25v-22z" />
    <glyph glyph-name="Nacute" unicode="&#x143;" horiz-adv-x="834" 
d="M548 700h265v-13q-59 -11 -90.5 -75t-31.5 -148v-464h-68l-467 573v-337q0 -82 35 -147t96 -76v-13h-266v13q60 11 91 75t31 148v353l-79 98h-41v13h297l358 -449v213q0 82 -35 147t-95 76v13zM508 911q35 -37 -17 -90q-21 -21 -56 -39.5t-60 -27.5l-25 -8l-7 7
q28 94 75 141q53 53 90 17z" />
    <glyph glyph-name="nacute" unicode="&#x144;" horiz-adv-x="747" 
d="M660 13h56v-13h-302v13h57v346q0 52 -25.5 78t-72.5 20q-40 -5 -71 -37.5t-31 -70.5v-336h57v-13h-302v13h57v501h-57v13h245v-134q34 71 89 109t123 38q96 0 136.5 -53.5t40.5 -136.5v-337zM452 761q35 -37 -17 -90q-21 -21 -56 -39.5t-60 -27.5l-25 -8l-7 7
q28 94 75 141q53 53 90 17z" />
    <glyph glyph-name="Ncommaaccent" unicode="&#x145;" horiz-adv-x="834" 
d="M548 700h265v-13q-59 -11 -90.5 -75t-31.5 -148v-464h-68l-467 573v-337q0 -82 35 -147t96 -76v-13h-266v13q60 11 91 75t31 148v353l-79 98h-41v13h297l358 -449v213q0 82 -35 147t-95 76v13zM540 -149q0 -69 -51.5 -136t-101.5 -98l-6 11q30 22 59 62.5t39 66.5
q-23 -9 -42 -9q-43 0 -73 30t-30 73t30 73t73 30t73 -30t30 -73z" />
    <glyph glyph-name="ncommaaccent" unicode="&#x146;" horiz-adv-x="747" 
d="M660 13h56v-13h-302v13h57v346q0 52 -25.5 78t-72.5 20q-40 -5 -71 -37.5t-31 -70.5v-336h57v-13h-302v13h57v501h-57v13h245v-134q34 71 89 109t123 38q96 0 136.5 -53.5t40.5 -136.5v-337zM474 -149q0 -69 -51.5 -136t-101.5 -98l-6 11q30 22 59 62.5t39 66.5
q-22 -9 -42 -9q-43 0 -73 30t-30 73t30 73t73 30t73 -30t30 -73z" />
    <glyph glyph-name="Ncaron" unicode="&#x147;" horiz-adv-x="834" 
d="M548 700h265v-13q-59 -11 -90.5 -75t-31.5 -148v-464h-68l-467 573v-337q0 -82 35 -147t96 -76v-13h-266v13q60 11 91 75t31 148v353l-79 98h-41v13h297l358 -449v213q0 82 -35 147t-95 76v13zM604 919l7 -6l-123 -148h-102l-123 148l7 6l167 -60z" />
    <glyph glyph-name="ncaron" unicode="&#x148;" horiz-adv-x="747" 
d="M660 13h56v-13h-302v13h57v346q0 52 -25.5 78t-72.5 20q-40 -5 -71 -37.5t-31 -70.5v-336h57v-13h-302v13h57v501h-57v13h245v-134q34 71 89 109t123 38q96 0 136.5 -53.5t40.5 -136.5v-337zM538 769l7 -6l-123 -148h-102l-123 148l7 6l167 -60z" />
    <glyph glyph-name="napostrophe" unicode="&#x149;" horiz-adv-x="978" 
d="M891 13h56v-13h-302v13h57v346q0 52 -25.5 78t-72.5 20q-40 -5 -71 -37.5t-31 -70.5v-336h57v-13h-302v13h57v501h-57v13h245v-134q34 71 89 109t123 38q96 0 136.5 -53.5t40.5 -136.5v-337zM222 427q0 -69 -51.5 -136t-101.5 -98l-6 11q30 22 59 62.5t39 66.5
q-23 -9 -42 -9q-43 0 -73 30t-30 73t30 73t73 30t73 -30t30 -73z" />
    <glyph glyph-name="Eng" unicode="&#x14a;" horiz-adv-x="834" 
d="M547 700h266v-13q-60 -11 -91 -75t-31 -148v-557q0 -83 -37.5 -120.5t-98.5 -37.5q-41 0 -107.5 17t-107.5 37v210h12q45 -130 85.5 -186t103.5 -63q60 -6 98.5 28t38.5 119v89h-56l-466 573v-337q0 -82 35 -147t95 -76v-13h-265v13q59 11 90.5 75t31.5 148v353l-80 98
h-41v13h298l358 -449v213q0 82 -35 147t-96 76v13z" />
    <glyph glyph-name="eng" unicode="&#x14b;" horiz-adv-x="741" 
d="M484 540q95 0 135.5 -53.5t40.5 -136.5v-267q0 -58 -3.5 -98t-18.5 -88.5t-42 -78t-77 -49.5t-121 -20q-35 0 -96 13.5t-98 28.5v175h13q38 -117 74.5 -160t82.5 -42q18 0 32 6.5t24 22t17.5 30t11.5 41.5l7 46t4 53.5t1 53.5v57v9v276q0 52 -25.5 78t-72.5 20
q-40 -5 -71 -37.5t-31 -70.5v-336h57v-13h-302v13h57v501h-57v13h245v-134q34 71 89 109t124 38z" />
    <glyph glyph-name="Omacron" unicode="&#x14c;" horiz-adv-x="837" 
d="M418 704q176 0 284.5 -95t108.5 -261q0 -165 -108.5 -260t-284.5 -95t-284 95t-108 260q0 166 108 261t284 95zM418 5q167 0 168 343q-1 344 -168 344q-165 0 -168 -344q3 -343 168 -343zM258 850h321v-57h-321v57z" />
    <glyph glyph-name="omacron" unicode="&#x14d;" horiz-adv-x="653" 
d="M322 540q61 0 114.5 -16.5t96.5 -48.5t68.5 -86t25.5 -122q0 -134 -88.5 -204t-216.5 -70q-129 0 -217.5 70t-88.5 204q0 68 25.5 122t68.5 86t97 48.5t115 16.5zM322 5q54 0 80.5 72t26.5 190t-26.5 189t-80.5 71t-81 -71t-27 -189t27 -190t81 -72zM161 700h321v-57
h-321v57z" />
    <glyph glyph-name="Obreve" unicode="&#x14e;" horiz-adv-x="837" 
d="M418 704q176 0 284.5 -95t108.5 -261q0 -165 -108.5 -260t-284.5 -95t-284 95t-108 260q0 166 108 261t284 95zM418 5q167 0 168 343q-1 344 -168 344q-165 0 -168 -344q3 -343 168 -343zM547 919h11q0 -73 -37 -114t-103 -41t-102.5 40.5t-36.5 114.5h11q8 -32 43.5 -51
t84.5 -19t84.5 19t44.5 51z" />
    <glyph glyph-name="obreve" unicode="&#x14f;" horiz-adv-x="653" 
d="M322 540q61 0 114.5 -16.5t96.5 -48.5t68.5 -86t25.5 -122q0 -134 -88.5 -204t-216.5 -70q-129 0 -217.5 70t-88.5 204q0 68 25.5 122t68.5 86t97 48.5t115 16.5zM322 5q54 0 80.5 72t26.5 190t-26.5 189t-80.5 71t-81 -71t-27 -189t27 -190t81 -72zM450 769h11
q0 -73 -37 -114t-103 -41t-102.5 40.5t-36.5 114.5h11q8 -32 43.5 -51t84.5 -19t84.5 19t44.5 51z" />
    <glyph glyph-name="Ohungarumlaut" unicode="&#x150;" horiz-adv-x="837" 
d="M418 704q176 0 284.5 -95t108.5 -261q0 -165 -108.5 -260t-284.5 -95t-284 95t-108 260q0 166 108 261t284 95zM418 5q167 0 168 343q-1 344 -168 344q-165 0 -168 -344q3 -343 168 -343zM349 894q52 54 89 17q36 -37 -17 -90q-21 -21 -56 -39.5t-60 -27.5l-25 -8l-7 7
q28 94 76 141zM620 911q36 -36 -16 -90q-21 -21 -56.5 -39.5t-60.5 -27.5l-25 -8l-6 7q28 94 75 141q52 54 89 17z" />
    <glyph glyph-name="ohungarumlaut" unicode="&#x151;" horiz-adv-x="653" 
d="M322 540q61 0 114.5 -16.5t96.5 -48.5t68.5 -86t25.5 -122q0 -134 -88.5 -204t-216.5 -70q-129 0 -217.5 70t-88.5 204q0 68 25.5 122t68.5 86t97 48.5t115 16.5zM322 5q54 0 80.5 72t26.5 190t-26.5 189t-80.5 71t-81 -71t-27 -189t27 -190t81 -72zM262 744q52 54 89 17
q36 -37 -17 -90q-21 -21 -56 -39.5t-60 -27.5l-25 -8l-7 7q28 94 76 141zM533 761q36 -36 -16 -90q-21 -21 -56.5 -39.5t-60.5 -27.5l-25 -8l-6 7q28 94 75 141q52 54 89 17z" />
    <glyph glyph-name="OE" unicode="&#x152;" horiz-adv-x="1091" 
d="M1047 284h13v-284h-605q-204 0 -316.5 86t-112.5 264q0 179 112 264.5t317 85.5h588v-283h-13q-7 56 -20.5 98t-38.5 81.5t-69 61t-104 21.5h-73v-322h59q74 0 101 24t39 90h13v-114v-13v-114h-13q-12 67 -38.5 90.5t-101.5 23.5h-59v-322h90q49 0 87 15t62 38.5t41.5 59
t26.5 70.5t15 79zM447 679q-203 0 -203 -329q0 -328 203 -328h73v657h-73z" />
    <glyph glyph-name="oe" unicode="&#x153;" horiz-adv-x="1009" 
d="M727 540q128 0 195.5 -68t59.5 -205h-10h-169h-167q9 -94 59.5 -150.5t124.5 -56.5q79 0 132 61l12 -10q-28 -47 -83 -82.5t-133 -35.5q-135 0 -219 63q-82 -63 -207 -63q-129 0 -217.5 70t-88.5 204q0 68 25.5 122t68.5 86t97 48.5t115 16.5q120 0 203 -59q77 59 202 59
zM322 5q54 0 80.5 72t26.5 190t-26.5 189t-80.5 71t-80.5 -71t-26.5 -189t26.5 -190t80.5 -72zM804 288q2 107 -17 173t-60 66q-44 0 -70.5 -68t-21.5 -171h169z" />
    <glyph glyph-name="Racute" unicode="&#x154;" horiz-adv-x="783" 
d="M701 183v-73q0 -46 30 -46q18 0 28.5 18t10.5 49h12q0 -73 -37 -105.5t-96 -32.5q-75 0 -112.5 29t-37.5 105v73q0 75 -35.5 106.5t-106.5 31.5h-51v-325h64v-13h-334v13h65v674h-65v13h353q67 0 115 -7.5t89 -27t62 -58t21 -96.5q0 -78 -54.5 -118.5t-160.5 -40.5v-3
q133 1 186.5 -36t53.5 -130zM345 351q68 0 103 36.5t35 123.5q0 168 -138 168h-39v-328h39zM460 911q35 -37 -17 -90q-21 -21 -56 -39.5t-60 -27.5l-25 -8l-7 7q28 94 75 141q53 53 90 17z" />
    <glyph glyph-name="racute" unicode="&#x155;" horiz-adv-x="568" 
d="M445 540q28 0 54 -13.5t38 -30.5l-83 -157h-11q-15 40 -53 69t-77 10q-15 -7 -28.5 -33t-13.5 -61v-311h90v-13h-335v13h57v501h-57v13h245v-141q26 77 66.5 115.5t107.5 38.5zM382 761q35 -37 -17 -90q-21 -21 -56 -39.5t-60 -27.5l-25 -8l-7 7q28 94 75 141
q53 53 90 17z" />
    <glyph glyph-name="Rcommaaccent" unicode="&#x156;" horiz-adv-x="783" 
d="M701 183v-73q0 -46 30 -46q18 0 28.5 18t10.5 49h12q0 -73 -37 -105.5t-96 -32.5q-75 0 -112.5 29t-37.5 105v73q0 75 -35.5 106.5t-106.5 31.5h-51v-325h64v-13h-334v13h65v674h-65v13h353q67 0 115 -7.5t89 -27t62 -58t21 -96.5q0 -78 -54.5 -118.5t-160.5 -40.5v-3
q133 1 186.5 -36t53.5 -130zM345 351q68 0 103 36.5t35 123.5q0 168 -138 168h-39v-328h39zM532 -149q0 -69 -51.5 -136t-101.5 -98l-6 11q30 22 59 62.5t39 66.5q-22 -9 -42 -9q-43 0 -73 30t-30 73t30 73t73 30t73 -30t30 -73z" />
    <glyph glyph-name="rcommaaccent" unicode="&#x157;" horiz-adv-x="568" 
d="M445 540q28 0 54 -13.5t38 -30.5l-83 -157h-11q-15 40 -53 69t-77 10q-15 -7 -28.5 -33t-13.5 -61v-311h90v-13h-335v13h57v501h-57v13h245v-141q26 77 66.5 115.5t107.5 38.5zM279 -149q0 -69 -51.5 -136t-101.5 -98l-6 11q30 22 59 62.5t39 66.5q-22 -9 -42 -9
q-43 0 -73 30t-30 73t30 73t73 30t73 -30t30 -73z" />
    <glyph glyph-name="Rcaron" unicode="&#x158;" horiz-adv-x="783" 
d="M701 183v-73q0 -46 30 -46q18 0 28.5 18t10.5 49h12q0 -73 -37 -105.5t-96 -32.5q-75 0 -112.5 29t-37.5 105v73q0 75 -35.5 106.5t-106.5 31.5h-51v-325h64v-13h-334v13h65v674h-65v13h353q67 0 115 -7.5t89 -27t62 -58t21 -96.5q0 -78 -54.5 -118.5t-160.5 -40.5v-3
q133 1 186.5 -36t53.5 -130zM345 351q68 0 103 36.5t35 123.5q0 168 -138 168h-39v-328h39zM536 919l7 -6l-123 -148h-102l-123 148l7 6l167 -60z" />
    <glyph glyph-name="rcaron" unicode="&#x159;" horiz-adv-x="568" 
d="M445 540q28 0 54 -13.5t38 -30.5l-83 -157h-11q-15 40 -53 69t-77 10q-15 -7 -28.5 -33t-13.5 -61v-311h90v-13h-335v13h57v501h-57v13h245v-141q26 77 66.5 115.5t107.5 38.5zM458 769l7 -6l-123 -148h-102l-123 148l7 6l167 -60z" />
    <glyph glyph-name="Sacute" unicode="&#x15a;" horiz-adv-x="603" 
d="M188 577q1 -38 31.5 -68.5t75 -49.5t95.5 -43.5t93.5 -49.5t69.5 -68.5t23 -100.5q-12 -204 -294 -204q-114 0 -253 44v198h13q57 -123 108 -175t126 -52q105 0 120 80q7 40 -10 70.5t-50 51.5t-74.5 40t-84 40.5t-77 47.5t-55.5 67t-18 93q5 101 75.5 153t222.5 52
q74 0 202 -44v-180h-12q-54 122 -92 165.5t-103 43.5q-59 0 -96.5 -27.5t-35.5 -83.5zM392 911q35 -37 -17 -90q-21 -21 -56 -39.5t-60 -27.5l-25 -8l-7 7q28 94 75 141q53 53 90 17z" />
    <glyph glyph-name="sacute" unicode="&#x15b;" horiz-adv-x="511" 
d="M177 456q0 -11 2.5 -21t9 -19.5t12.5 -17t18.5 -16l20 -13.5t24 -13l23.5 -11.5t25.5 -12t23.5 -10.5q87 -39 119 -74t22 -111q-5 -34 -19 -59.5t-36.5 -40.5t-44.5 -24.5t-51 -13.5t-47.5 -5t-42.5 -1q-77 0 -210 36v181h12q65 -111 108.5 -156t80.5 -49q86 -10 91 65
q1 11 -1 20.5t-8 19t-11 16t-17 15l-18 13t-22 13l-22 11.5t-24.5 11.5t-23.5 10.5q-70 34 -107.5 75t-33.5 111q2 38 14.5 66.5t35 44.5t41 25.5t49.5 13t42 4t35 0.5q67 0 199 -36v-164h-12q-65 111 -105 150.5t-83 39.5q-29 0 -48.5 -20t-20.5 -54zM324 761
q35 -37 -17 -90q-21 -21 -56 -39.5t-60 -27.5l-25 -8l-7 7q28 94 75 141q53 53 90 17z" />
    <glyph glyph-name="Scircumflex" unicode="&#x15c;" horiz-adv-x="603" 
d="M188 577q1 -38 31.5 -68.5t75 -49.5t95.5 -43.5t93.5 -49.5t69.5 -68.5t23 -100.5q-12 -204 -294 -204q-114 0 -253 44v198h13q57 -123 108 -175t126 -52q105 0 120 80q7 40 -10 70.5t-50 51.5t-74.5 40t-84 40.5t-77 47.5t-55.5 67t-18 93q5 101 75.5 153t222.5 52
q74 0 202 -44v-180h-12q-54 122 -92 165.5t-103 43.5q-59 0 -96.5 -27.5t-35.5 -83.5zM363 919l123 -147l-7 -7l-167 61l-168 -61l-7 7l124 147h102z" />
    <glyph glyph-name="scircumflex" unicode="&#x15d;" horiz-adv-x="511" 
d="M177 456q0 -11 2.5 -21t9 -19.5t12.5 -17t18.5 -16l20 -13.5t24 -13l23.5 -11.5t25.5 -12t23.5 -10.5q87 -39 119 -74t22 -111q-5 -34 -19 -59.5t-36.5 -40.5t-44.5 -24.5t-51 -13.5t-47.5 -5t-42.5 -1q-77 0 -210 36v181h12q65 -111 108.5 -156t80.5 -49q86 -10 91 65
q1 11 -1 20.5t-8 19t-11 16t-17 15l-18 13t-22 13l-22 11.5t-24.5 11.5t-23.5 10.5q-70 34 -107.5 75t-33.5 111q2 38 14.5 66.5t35 44.5t41 25.5t49.5 13t42 4t35 0.5q67 0 199 -36v-164h-12q-65 111 -105 150.5t-83 39.5q-29 0 -48.5 -20t-20.5 -54zM304 769l123 -147
l-7 -7l-167 61l-168 -61l-7 7l124 147h102z" />
    <glyph glyph-name="Scedilla" unicode="&#x15e;" horiz-adv-x="603" 
d="M188 577q1 -38 31.5 -68.5t75 -49.5t95 -43.5t93.5 -49.5t69.5 -68.5t23.5 -100.5q-13 -204 -294 -204h-13l-9 -34q80 13 131.5 -19t37.5 -100q-13 -61 -88 -87.5t-169 7.5l3 11q53 -6 94 22.5t51 68.5q11 42 -10 66t-66 19l13 47q-102 4 -228 43v198h12
q58 -123 109 -175t125 -52q106 0 121 80q7 40 -10 70.5t-50 51.5t-74.5 40t-84 40.5t-77.5 47.5t-55.5 67t-17.5 93q5 101 75.5 153t222.5 52q72 0 202 -44v-181h-12q-54 123 -92 166.5t-103 43.5q-60 0 -97.5 -27.5t-34.5 -83.5z" />
    <glyph glyph-name="scedilla" unicode="&#x15f;" horiz-adv-x="511" 
d="M336 322q87 -39 119 -74t22 -111q-5 -40 -26 -68.5t-45 -43t-60 -22t-58 -9t-52 -1.5q-7 0 -10 1l-9 -35q80 13 131.5 -19t37.5 -100q-13 -61 -88 -87.5t-169 7.5l3 11q53 -6 94 22.5t51 68.5q11 42 -10 66t-66 19l13 47q-73 4 -188 35v181h12q65 -111 108.5 -156.5
t80.5 -49.5q86 -10 91 66q1 11 -1 20.5t-8 19t-11 16t-17 15l-18 13t-22 13l-22 11.5t-24.5 11.5t-23.5 10.5q-70 34 -107.5 75t-33.5 111q2 38 14.5 66.5t35 44.5t41 25.5t49.5 13t42 4t35 0.5q67 0 199 -36v-164h-12q-65 110 -105 149.5t-83 39.5q-29 0 -48.5 -19.5
t-20.5 -53.5q0 -11 2.5 -21t9 -19.5t12.5 -17t18.5 -16l20 -13.5t24 -13l23.5 -11.5t25.5 -12t23.5 -10.5z" />
    <glyph glyph-name="Scaron" unicode="&#x160;" horiz-adv-x="603" 
d="M188 577q1 -38 31.5 -68.5t75 -49.5t95.5 -43.5t93.5 -49.5t69.5 -68.5t23 -100.5q-12 -204 -294 -204q-114 0 -253 44v198h13q57 -123 108 -175t126 -52q105 0 120 80q7 40 -10 70.5t-50 51.5t-74.5 40t-84 40.5t-77 47.5t-55.5 67t-18 93q5 101 75.5 153t222.5 52
q74 0 202 -44v-180h-12q-54 122 -92 165.5t-103 43.5q-59 0 -96.5 -27.5t-35.5 -83.5zM478 919l7 -6l-123 -148h-102l-123 148l7 6l167 -60z" />
    <glyph glyph-name="scaron" unicode="&#x161;" horiz-adv-x="511" 
d="M177 456q0 -11 2.5 -21t9 -19.5t12.5 -17t18.5 -16l20 -13.5t24 -13l23.5 -11.5t25.5 -12t23.5 -10.5q87 -39 119 -74t22 -111q-5 -34 -19 -59.5t-36.5 -40.5t-44.5 -24.5t-51 -13.5t-47.5 -5t-42.5 -1q-77 0 -210 36v181h12q65 -111 108.5 -156t80.5 -49q86 -10 91 65
q1 11 -1 20.5t-8 19t-11 16t-17 15l-18 13t-22 13l-22 11.5t-24.5 11.5t-23.5 10.5q-70 34 -107.5 75t-33.5 111q2 38 14.5 66.5t35 44.5t41 25.5t49.5 13t42 4t35 0.5q67 0 199 -36v-164h-12q-65 111 -105 150.5t-83 39.5q-29 0 -48.5 -20t-20.5 -54zM420 769l7 -6
l-123 -148h-102l-123 148l7 6l167 -60z" />
    <glyph glyph-name="Tcommaaccent" unicode="&#x162;" horiz-adv-x="709" 
d="M21 700h667v-275h-13q-5 38 -9 62t-17.5 64.5t-32.5 65t-54 43.5t-81 19h-24v-666h65v-13h-334v13h64v666h-24q-39 0 -69.5 -11.5t-50.5 -35.5t-33 -45.5t-21.5 -57.5t-11.5 -53t-8 -51h-13v275zM457 -129q0 -69 -51.5 -136t-101.5 -98l-6 11q30 22 59 62.5t39 66.5
q-22 -9 -42 -9q-43 0 -73 30t-30 73t30 73t73 30t73 -30t30 -73z" />
    <glyph glyph-name="tcommaaccent" unicode="&#x163;" horiz-adv-x="403" 
d="M375 89l12 -11q-59 -85 -168 -85q-75 0 -113.5 46t-38.5 125v350h-56v13h56l179 160h10v-160h114v-13h-114v-372q0 -48 16.5 -68t39.5 -20q33 0 63 35zM302 -149q0 -69 -51.5 -136t-101.5 -98l-6 11q30 22 59 62.5t39 66.5q-23 -9 -42 -9q-43 0 -73 30t-30 73t30 73
t73 30t73 -30t30 -73z" />
    <glyph glyph-name="Tcaron" unicode="&#x164;" horiz-adv-x="709" 
d="M21 700h667v-275h-13q-5 38 -9 62t-17.5 64.5t-32.5 65t-54 43.5t-81 19h-24v-666h65v-13h-334v13h64v666h-24q-39 0 -69.5 -11.5t-50.5 -35.5t-33 -45.5t-21.5 -57.5t-11.5 -53t-8 -51h-13v275zM521 919l7 -6l-123 -148h-102l-123 148l7 6l167 -60z" />
    <glyph glyph-name="tcaron" unicode="&#x165;" horiz-adv-x="625" 
d="M375 89l12 -11q-59 -85 -168 -85q-75 0 -113.5 46t-38.5 125v350h-56v13h56l179 160h10v-160h114v-13h-114v-372q0 -48 16.5 -68t39.5 -20q33 0 63 35zM604 600q0 -68 -51.5 -135t-101.5 -99l-7 11q30 22 59 62.5t39 66.5q-18 -9 -42 -9q-42 0 -72.5 30t-30.5 73t30.5 73
t72.5 30q43 0 73.5 -30t30.5 -73z" />
    <glyph glyph-name="Tbar" unicode="&#x166;" horiz-adv-x="709" 
d="M21 700h667v-275h-13l-6 43.5t-9 45.5t-15 49.5t-23 43t-33.5 38.5t-46.5 24t-61 10h-24v-318h117v-21h-117v-327h64v-13h-334v13h65v327h-118v21h118v318h-24q-39 0 -69.5 -11.5t-50.5 -35t-33.5 -46t-21.5 -57t-11.5 -54t-7.5 -50.5h-13v275z" />
    <glyph glyph-name="tbar" unicode="&#x167;" horiz-adv-x="403" 
d="M375 89l12 -11q-59 -85 -167 -85q-76 0 -114 46t-38 125v166h-57v21h57v163h-57v13h57l178 160h10v-160h114v-13h-114v-163h91v-21h-91v-188q0 -48 16.5 -68t39.5 -20q33 0 63 35z" />
    <glyph glyph-name="Utilde" unicode="&#x168;" horiz-adv-x="782" 
d="M593 700h163v-13q-38 -10 -56.5 -46.5t-18.5 -110.5v-231q0 -137 -71 -221.5t-213 -84.5q-139 0 -222.5 84.5t-83.5 221.5v388h-65v13h335v-13h-65v-388q0 -112 52 -172t137 -60q78 0 130.5 62t52.5 170v231q0 76 -17.5 111.5t-57.5 45.5v13zM532 776q-16 0 -32.5 5
t-23.5 8t-26.5 14.5l-24.5 14.5q-39 19 -63 7t-31 -43h-7q3 76 26 107t70 28q26 -2 68 -25.5t50 -26.5q28 -11 47 0.5t25 36.5h7q-2 -64 -22 -95.5t-63 -30.5z" />
    <glyph glyph-name="utilde" unicode="&#x169;" horiz-adv-x="732" 
d="M644 13h57v-13h-245v140q-34 -71 -89 -109t-124 -38q-95 0 -135.5 53.5t-40.5 136.5v331h-56v13h245v-353q0 -52 25.5 -78t72.5 -20q40 5 71 37.5t31 70.5v330h-57v13h245v-514zM417 626q-16 0 -32.5 5t-23.5 8t-26.5 14.5l-24.5 14.5q-39 19 -63 7t-31 -43h-7
q3 76 26 107t70 28q26 -2 68 -25.5t50 -26.5q28 -11 47 0.5t25 36.5h7q-2 -64 -22 -95.5t-63 -30.5z" />
    <glyph glyph-name="Umacron" unicode="&#x16a;" horiz-adv-x="782" 
d="M593 700h163v-13q-38 -10 -56.5 -46.5t-18.5 -110.5v-231q0 -137 -71 -221.5t-213 -84.5q-139 0 -222.5 84.5t-83.5 221.5v388h-65v13h335v-13h-65v-388q0 -112 52 -172t137 -60q78 0 130.5 62t52.5 170v231q0 76 -17.5 111.5t-57.5 45.5v13zM310 850h321v-57h-321v57z
" />
    <glyph glyph-name="umacron" unicode="&#x16b;" horiz-adv-x="732" 
d="M644 13h57v-13h-245v140q-34 -71 -89 -109t-124 -38q-95 0 -135.5 53.5t-40.5 136.5v331h-56v13h245v-353q0 -52 25.5 -78t72.5 -20q40 5 71 37.5t31 70.5v330h-57v13h245v-514zM185 700h321v-57h-321v57z" />
    <glyph glyph-name="Ubreve" unicode="&#x16c;" horiz-adv-x="782" 
d="M593 700h163v-13q-38 -10 -56.5 -46.5t-18.5 -110.5v-231q0 -137 -71 -221.5t-213 -84.5q-139 0 -222.5 84.5t-83.5 221.5v388h-65v13h335v-13h-65v-388q0 -112 52 -172t137 -60q78 0 130.5 62t52.5 170v231q0 76 -17.5 111.5t-57.5 45.5v13zM579 919h11q0 -73 -37 -114
t-103 -41t-102.5 40.5t-36.5 114.5h11q8 -32 43.5 -51t84.5 -19t84.5 19t44.5 51z" />
    <glyph glyph-name="ubreve" unicode="&#x16d;" horiz-adv-x="732" 
d="M644 13h57v-13h-245v140q-34 -71 -89 -109t-124 -38q-95 0 -135.5 53.5t-40.5 136.5v331h-56v13h245v-353q0 -52 25.5 -78t72.5 -20q40 5 71 37.5t31 70.5v330h-57v13h245v-514zM474 769h11q0 -73 -37 -114t-103 -41t-102.5 40.5t-36.5 114.5h11q8 -32 43.5 -51t84.5 -19
t84.5 19t44.5 51z" />
    <glyph glyph-name="Uring" unicode="&#x16e;" horiz-adv-x="782" 
d="M593 700h163v-13q-38 -10 -56.5 -46.5t-18.5 -110.5v-231q0 -137 -71 -221.5t-213 -84.5q-139 0 -222.5 84.5t-83.5 221.5v388h-65v13h335v-13h-65v-388q0 -112 52 -172t137 -60q78 0 130.5 62t52.5 170v231q0 76 -17.5 111.5t-57.5 45.5v13zM471 736q-44 0 -75 31
t-31 75t31 75t75 31q43 0 74.5 -31t31.5 -75t-31 -75t-75 -31zM471 907q-27 0 -46 -19t-19 -46t19 -46t46 -19q26 0 45 19t19 46t-19 46t-45 19z" />
    <glyph glyph-name="uring" unicode="&#x16f;" horiz-adv-x="732" 
d="M644 13h57v-13h-245v140q-34 -71 -89 -109t-124 -38q-95 0 -135.5 53.5t-40.5 136.5v331h-56v13h245v-353q0 -52 25.5 -78t72.5 -20q40 5 71 37.5t31 70.5v330h-57v13h245v-514zM356 586q-44 0 -75 31t-31 75t31 75t75 31t75 -31t31 -75t-31 -75t-75 -31zM356 757
q-27 0 -46 -19t-19 -46t19 -46t46 -19q26 0 45 19t19 46t-19 46t-45 19z" />
    <glyph glyph-name="Uhungarumlaut" unicode="&#x170;" horiz-adv-x="782" 
d="M593 700h163v-13q-38 -10 -56.5 -46.5t-18.5 -110.5v-231q0 -137 -71 -221.5t-213 -84.5q-139 0 -222.5 84.5t-83.5 221.5v388h-65v13h335v-13h-65v-388q0 -112 52 -172t137 -60q78 0 130.5 62t52.5 170v231q0 76 -17.5 111.5t-57.5 45.5v13zM411 894q52 54 89 17
q36 -37 -17 -90q-21 -21 -56 -39.5t-60 -27.5l-25 -8l-7 7q28 94 76 141zM682 911q36 -36 -16 -90q-21 -21 -56.5 -39.5t-60.5 -27.5l-25 -8l-6 7q28 94 75 141q52 54 89 17z" />
    <glyph glyph-name="uhungarumlaut" unicode="&#x171;" horiz-adv-x="732" 
d="M644 13h57v-13h-245v140q-34 -71 -89 -109t-124 -38q-95 0 -135.5 53.5t-40.5 136.5v331h-56v13h245v-353q0 -52 25.5 -78t72.5 -20q40 5 71 37.5t31 70.5v330h-57v13h245v-514zM306 744q52 54 89 17q36 -37 -17 -90q-21 -21 -56 -39.5t-60 -27.5l-25 -8l-7 7
q28 94 76 141zM577 761q36 -36 -16 -90q-21 -21 -56.5 -39.5t-60.5 -27.5l-25 -8l-6 7q28 94 75 141q52 54 89 17z" />
    <glyph glyph-name="Uogonek" unicode="&#x172;" horiz-adv-x="782" 
d="M593 700h163v-13q-38 -10 -56.5 -46t-18.5 -111v-231q0 -109 -46 -187t-139 -105q-51 -109 -15 -160q20 -27 59 -31t78 18l7 -7q-28 -45 -75 -67t-90.5 -15.5t-64.5 38.5q-33 48 3.5 118.5t85.5 101.5q-45 -10 -87 -10q-139 0 -223 84.5t-84 221.5v388h-64v13h334v-13
h-65v-388q0 -111 52 -171.5t137 -60.5q79 0 131.5 62t52.5 170v231q0 76 -18 111.5t-57 45.5v13z" />
    <glyph glyph-name="uogonek" unicode="&#x173;" horiz-adv-x="732" 
d="M701 0h-165q-47 -105 -12 -153q20 -27 59 -31t78 18l7 -7q-28 -45 -75 -67t-90.5 -15.5t-64.5 38.5q-31 46 2 115t82 102h-67v140q-33 -71 -88 -109t-124 -38q-95 0 -135.5 53.5t-40.5 136.5v331h-56v13h245v-353q0 -52 25.5 -78t72.5 -20q40 5 70.5 37.5t30.5 70.5v330
h-56v13h245v-514h57v-13z" />
    <glyph glyph-name="Wcircumflex" unicode="&#x174;" horiz-adv-x="1119" 
d="M871 700h247v-13q-90 -25 -147 -189l-169 -498h-65l-191 511l-161 -511h-64l-259 687h-61v13h334v-13h-60l163 -467l153 480h96l175 -484q97 283 97 284q26 80 1.5 129t-89.5 58v13zM692 919l123 -147l-7 -7l-167 61l-168 -61l-7 7l124 147h102z" />
    <glyph glyph-name="wcircumflex" unicode="&#x175;" horiz-adv-x="970" 
d="M731 527h233v-13q-40 -12 -71 -55.5t-66 -128.5l-134 -330h-73l-151 353l-121 -353h-73l-217 514h-62v13h351v-13h-68l121 -324l116 337h87l143 -363l67 164q31 81 7.5 128.5t-89.5 57.5v13zM611 769l123 -147l-7 -7l-167 61l-168 -61l-7 7l124 147h102z" />
    <glyph glyph-name="Ycircumflex" unicode="&#x176;" horiz-adv-x="757" 
d="M519 700h237v-13q-43 -12 -77.5 -49t-75.5 -116l-115 -226v-283h64v-13h-334v13h64v260l-217 414h-64v13h351v-13h-66l191 -379l109 210q37 75 18.5 118t-85.5 51v13zM470 919l123 -147l-7 -7l-167 61l-168 -61l-7 7l124 147h102z" />
    <glyph glyph-name="ycircumflex" unicode="&#x177;" horiz-adv-x="667" 
d="M426 527h235v-13q-41 -12 -74.5 -56.5t-71.5 -130.5l-140 -319l-137 -299l-136 124v13l226 99l-269 569h-63v13h334v-13h-67l157 -375l84 193q31 78 9 125t-87 57v13zM430 769l123 -147l-7 -7l-167 61l-168 -61l-7 7l124 147h102z" />
    <glyph glyph-name="Ydieresis" unicode="&#x178;" horiz-adv-x="757" 
d="M519 700h237v-13q-43 -12 -77.5 -49t-75.5 -116l-115 -226v-283h64v-13h-334v13h64v260l-217 414h-64v13h351v-13h-66l191 -379l109 210q37 75 18.5 118t-85.5 51v13zM324 931q37 0 63.5 -26t26.5 -63q0 -38 -26 -64t-64 -26q-37 0 -63 26.5t-26 63.5t26 63t63 26z
M532 931q37 0 63.5 -26t26.5 -63q0 -38 -26 -64t-64 -26q-37 0 -63 26.5t-26 63.5t26 63t63 26z" />
    <glyph glyph-name="Zacute" unicode="&#x179;" horiz-adv-x="679" 
d="M648 700v-13l-399 -665h149q60 0 101.5 18.5t64.5 55.5t34 75.5t18 95.5h13v-267h-598v13l391 666h-116q-61 0 -105 -19t-69.5 -54.5t-39.5 -76.5t-21 -96h-13v267h590zM460 911q35 -37 -17 -90q-21 -21 -56 -39.5t-60 -27.5l-25 -8l-7 7q28 94 75 141q53 53 90 17z" />
    <glyph glyph-name="zacute" unicode="&#x17a;" horiz-adv-x="561" 
d="M525 527v-13l-294 -492h109q46 0 76.5 14t47.5 42.5t24.5 57t13.5 72.5h13v-208h-484v13l287 493h-84q-45 0 -78 -14.5t-52 -42t-29 -58t-15 -71.5h-14v207h479zM389 761q35 -37 -17 -90q-21 -21 -56 -39.5t-60 -27.5l-25 -8l-7 7q28 94 75 141q53 53 90 17z" />
    <glyph glyph-name="Zdotaccent" unicode="&#x17b;" horiz-adv-x="679" 
d="M648 700v-13l-399 -665h149q60 0 101.5 18.5t64.5 55.5t34 75.5t18 95.5h13v-267h-598v13l391 666h-116q-61 0 -105 -19t-69.5 -54.5t-39.5 -76.5t-21 -96h-13v267h590zM390 931q37 0 63 -26t26 -63t-26 -63.5t-63 -26.5q-38 0 -64 26t-26 64q0 37 26.5 63t63.5 26z" />
    <glyph glyph-name="zdotaccent" unicode="&#x17c;" horiz-adv-x="561" 
d="M525 527v-13l-294 -492h109q46 0 76.5 14t47.5 42.5t24.5 57t13.5 72.5h13v-208h-484v13l287 493h-84q-45 0 -78 -14.5t-52 -42t-29 -58t-15 -71.5h-14v207h479zM308 781q37 0 63 -26t26 -63t-26 -63.5t-63 -26.5q-38 0 -64 26t-26 64q0 37 26.5 63t63.5 26z" />
    <glyph glyph-name="Zcaron" unicode="&#x17d;" horiz-adv-x="679" 
d="M648 700v-13l-399 -665h149q60 0 101.5 18.5t64.5 55.5t34 75.5t18 95.5h13v-267h-598v13l391 666h-116q-61 0 -105 -19t-69.5 -54.5t-39.5 -76.5t-21 -96h-13v267h590zM556 919l7 -6l-123 -148h-102l-123 148l7 6l167 -60z" />
    <glyph glyph-name="zcaron" unicode="&#x17e;" horiz-adv-x="561" 
d="M525 527v-13l-294 -492h109q46 0 76.5 14t47.5 42.5t24.5 57t13.5 72.5h13v-208h-484v13l287 493h-84q-45 0 -78 -14.5t-52 -42t-29 -58t-15 -71.5h-14v207h479zM475 769l7 -6l-123 -148h-102l-123 148l7 6l167 -60z" />
    <glyph glyph-name="longs" unicode="&#x17f;" horiz-adv-x="445" 
d="M293 729q53 0 141 -20v-147h-11q-58 101 -79.5 129t-45.5 25q-16 -1 -21.5 -29.5t-5.5 -111.5v-562h98v-13h-343v13h56v501h-56v13h57q3 202 210 202z" />
    <glyph glyph-name="AEacute" unicode="&#x1fc;" horiz-adv-x="1051" 
d="M1007 284h13v-284h-605v13h65v238h-255l-56 -93q-31 -51 -21.5 -94t53.5 -51v-13h-200v13q32 10 78.5 52t77.5 95l317 527h-59v13h588v-283h-13q-7 56 -20.5 98t-38.5 81.5t-69 61t-104 21.5h-73v-322h59q74 0 101 24t39 90h13v-241h-13q-12 67 -38.5 90.5t-101.5 23.5
h-59v-322h90q49 0 87 15t62 38.5t41.5 59t26.5 70.5t15 79zM233 264h247v412zM761 911q35 -37 -17 -90q-21 -21 -56 -39.5t-60 -27.5l-25 -8l-7 7q28 94 75 141q53 53 90 17z" />
    <glyph glyph-name="aeacute" unicode="&#x1fd;" horiz-adv-x="933" 
d="M651 540q127 0 194.5 -68t60.5 -205h-347q9 -94 59.5 -150.5t124.5 -56.5q79 0 132 61l12 -10q-28 -47 -83 -82.5t-133 -35.5q-74 0 -139.5 23t-115 74.5t-60.5 125.5q-8 -108 -51.5 -165.5t-119.5 -57.5q-72 0 -120.5 41t-48.5 117q0 27 7 50.5t16.5 40t27.5 30.5
t33 22.5t41 15.5t42.5 10t45.5 5.5t43 3l43 1.5t37 1v96q0 52 -15 76t-59 24q-36 0 -77.5 -40t-106.5 -148h-12v163q120 38 207 38q127 0 189 -40q70 40 173 40zM352 267v52q-76 5 -120.5 -32t-44.5 -110q0 -62 41 -88q40 -24 76 11q48 45 48 167zM727 288
q2 106 -16.5 172.5t-59.5 66.5q-45 0 -71.5 -68t-21.5 -171h169zM607 761q35 -37 -17 -90q-21 -21 -56 -39.5t-60 -27.5l-25 -8l-7 7q28 94 75 141q53 53 90 17z" />
    <glyph glyph-name="Oslashacute" unicode="&#x1fe;" horiz-adv-x="838" 
d="M655 644q75 -45 116 -120.5t41 -175.5q0 -165 -108.5 -260t-284.5 -95q-128 0 -223 52l-34 -45h-22l41 54q-74 45 -114.5 120t-40.5 174q0 166 108.5 260.5t284.5 94.5q127 0 221 -50l36 47h22zM251 348q0 -107 17 -181l296 387q-39 138 -145 138q-167 0 -168 -344z
M419 5q167 0 168 343q0 111 -18 185l-296 -387q39 -141 146 -141zM519 911q35 -37 -17 -90q-21 -21 -56 -39.5t-60 -27.5l-25 -8l-7 7q28 94 75 141q53 53 90 17z" />
    <glyph glyph-name="oslashacute" unicode="&#x1ff;" horiz-adv-x="653" 
d="M540 468q86 -73 86 -201q0 -134 -88.5 -204t-216.5 -70q-122 0 -204 60l-53 -53h-22l63 62q-89 74 -89 205q0 68 25.5 122t68.5 86t96.5 48.5t114.5 16.5q124 0 207 -62l50 49h22zM214 267q0 -58 5 -93l203 199q-22 154 -101 154q-54 0 -80.5 -71t-26.5 -189zM321 5
q54 0 80.5 72t26.5 190q0 51 -4 87l-203 -199q22 -150 100 -150zM392 761q35 -37 -17 -90q-21 -21 -56 -39.5t-60 -27.5l-25 -8l-7 7q28 94 75 141q53 53 90 17z" />
    <glyph glyph-name="Scommaaccent" unicode="&#x218;" horiz-adv-x="603" 
d="M188 577q1 -38 31.5 -68.5t75 -49.5t95.5 -43.5t93.5 -49.5t69.5 -68.5t23 -100.5q-12 -204 -294 -204q-114 0 -253 44v198h13q57 -123 108 -175t126 -52q105 0 120 80q7 40 -10 70.5t-50 51.5t-74.5 40t-84 40.5t-77 47.5t-55.5 67t-18 93q5 101 75.5 153t222.5 52
q74 0 202 -44v-180h-12q-54 122 -92 165.5t-103 43.5q-59 0 -96.5 -27.5t-35.5 -83.5zM392 -149q0 -69 -51.5 -136t-101.5 -98l-6 11q30 22 59 62.5t39 66.5q-22 -9 -42 -9q-43 0 -73 30t-30 73t30 73t73 30t73 -30t30 -73z" />
    <glyph glyph-name="scommaaccent" unicode="&#x219;" horiz-adv-x="511" 
d="M177 456q0 -11 2.5 -21t9 -19.5t12.5 -17t18.5 -16l20 -13.5t24 -13l23.5 -11.5t25.5 -12t23.5 -10.5q87 -39 119 -74t22 -111q-5 -34 -19 -59.5t-36.5 -40.5t-44.5 -24.5t-51 -13.5t-47.5 -5t-42.5 -1q-77 0 -210 36v181h12q65 -111 108.5 -156t80.5 -49q86 -10 91 65
q1 11 -1 20.5t-8 19t-11 16t-17 15l-18 13t-22 13l-22 11.5t-24.5 11.5t-23.5 10.5q-70 34 -107.5 75t-33.5 111q2 38 14.5 66.5t35 44.5t41 25.5t49.5 13t42 4t35 0.5q67 0 199 -36v-164h-12q-65 111 -105 150.5t-83 39.5q-29 0 -48.5 -20t-20.5 -54zM356 -149
q0 -69 -51.5 -136t-101.5 -98l-6 11q30 22 59 62.5t39 66.5q-23 -9 -42 -9q-43 0 -73 30t-30 73t30 73t73 30t73 -30t30 -73z" />
    <glyph glyph-name="circumflex" unicode="&#x2c6;" horiz-adv-x="421" 
d="M262 719l123 -147l-7 -7l-167 61l-168 -61l-7 7l124 147h102z" />
    <glyph glyph-name="caron" unicode="&#x2c7;" horiz-adv-x="420" 
d="M377 719l7 -6l-123 -148h-102l-123 148l7 6l167 -60z" />
    <glyph glyph-name="breve" unicode="&#x2d8;" horiz-adv-x="351" 
d="M304 719h11q0 -73 -37 -114t-103 -41t-102.5 40.5t-36.5 114.5h11q8 -32 43.5 -51t84.5 -19t84.5 19t44.5 51z" />
    <glyph glyph-name="dotaccent" unicode="&#x2d9;" horiz-adv-x="251" 
d="M126 731q37 0 63 -26t26 -63t-26 -63.5t-63 -26.5q-38 0 -64 26t-26 64q0 37 26.5 63t63.5 26z" />
    <glyph glyph-name="ring" unicode="&#x2da;" horiz-adv-x="284" 
d="M142 536q-44 0 -75 31t-31 75t31 75t75 31t75 -31t31 -75t-31 -75t-75 -31zM142 707q-27 0 -46 -19t-19 -46t19 -46t46 -19q26 0 45 19t19 46t-19 46t-45 19z" />
    <glyph glyph-name="ogonek" unicode="&#x2db;" horiz-adv-x="317" 
d="M153 6q-53 -109 -15 -160q19 -27 58.5 -30.5t78.5 17.5l6 -6q-28 -45 -75 -67t-90.5 -15.5t-64.5 37.5q-33 49 6.5 123t88.5 101h7z" />
    <glyph glyph-name="tilde" unicode="&#x2dc;" horiz-adv-x="365" 
d="M244 576q-16 0 -32.5 5t-23.5 8t-26.5 14.5l-24.5 14.5q-39 19 -63 7t-31 -43h-7q3 76 26 107t70 28q26 -2 68 -25.5t50 -26.5q28 -11 47 0.5t25 36.5h7q-2 -64 -22 -95.5t-63 -30.5z" />
    <glyph glyph-name="hungarumlaut" unicode="&#x2dd;" horiz-adv-x="434" 
d="M112 694q52 54 89 17q36 -37 -17 -90q-21 -21 -56 -39.5t-60 -27.5l-25 -8l-7 7q28 94 76 141zM383 711q36 -36 -16 -90q-21 -21 -56.5 -39.5t-60.5 -27.5l-25 -8l-6 7q28 94 75 141q52 54 89 17z" />
    <glyph glyph-name="Wgrave" unicode="&#x1e80;" horiz-adv-x="1119" 
d="M871 700h247v-13q-90 -25 -147 -189l-169 -498h-65l-191 511l-161 -511h-64l-259 687h-61v13h334v-13h-60l163 -467l153 480h96l175 -484q97 283 97 284q26 80 1.5 129t-89.5 58v13zM650 894q21 -21 39.5 -56t26.5 -60l9 -25l-7 -7q-94 28 -141 75q-52 54 -16 90t89 -17z
" />
    <glyph glyph-name="wgrave" unicode="&#x1e81;" horiz-adv-x="970" 
d="M731 527h233v-13q-40 -12 -71 -55.5t-66 -128.5l-134 -330h-73l-151 353l-121 -353h-73l-217 514h-62v13h351v-13h-68l121 -324l116 337h87l143 -363l67 164q31 81 7.5 128.5t-89.5 57.5v13zM539 744q21 -21 39.5 -56t27.5 -60l8 -25l-7 -7q-94 28 -141 75q-52 54 -16 90
t89 -17z" />
    <glyph glyph-name="Wacute" unicode="&#x1e82;" horiz-adv-x="1119" 
d="M871 700h247v-13q-90 -25 -147 -189l-169 -498h-65l-191 511l-161 -511h-64l-259 687h-61v13h334v-13h-60l163 -467l153 480h96l175 -484q97 283 97 284q26 80 1.5 129t-89.5 58v13zM712 911q35 -37 -17 -90q-21 -21 -56 -39.5t-60 -27.5l-25 -8l-7 7q28 94 75 141
q53 53 90 17z" />
    <glyph glyph-name="wacute" unicode="&#x1e83;" horiz-adv-x="970" 
d="M731 527h233v-13q-40 -12 -71 -55.5t-66 -128.5l-134 -330h-73l-151 353l-121 -353h-73l-217 514h-62v13h351v-13h-68l121 -324l116 337h87l143 -363l67 164q31 81 7.5 128.5t-89.5 57.5v13zM671 761q35 -37 -17 -90q-21 -21 -56 -39.5t-60 -27.5l-25 -8l-7 7
q28 94 75 141q53 53 90 17z" />
    <glyph glyph-name="Wdieresis" unicode="&#x1e84;" horiz-adv-x="1119" 
d="M871 700h247v-13q-90 -25 -147 -189l-169 -498h-65l-191 511l-161 -511h-64l-259 687h-61v13h334v-13h-60l163 -467l153 480h96l175 -484q97 283 97 284q26 80 1.5 129t-89.5 58v13zM536 931q37 0 63.5 -26t26.5 -63q0 -38 -26 -64t-64 -26q-37 0 -63 26.5t-26 63.5
t26 63t63 26zM744 931q37 0 63.5 -26t26.5 -63q0 -38 -26 -64t-64 -26q-37 0 -63 26.5t-26 63.5t26 63t63 26z" />
    <glyph glyph-name="wdieresis" unicode="&#x1e85;" horiz-adv-x="970" 
d="M731 527h233v-13q-40 -12 -71 -55.5t-66 -128.5l-134 -330h-73l-151 353l-121 -353h-73l-217 514h-62v13h351v-13h-68l121 -324l116 337h87l143 -363l67 164q31 81 7.5 128.5t-89.5 57.5v13zM455 781q37 0 63.5 -26t26.5 -63q0 -38 -26.5 -64t-63.5 -26t-63 26.5
t-26 63.5t26 63t63 26zM663 781q37 0 63.5 -26t26.5 -63q0 -38 -26.5 -64t-63.5 -26t-63 26.5t-26 63.5t26 63t63 26z" />
    <glyph glyph-name="Ygrave" unicode="&#x1ef2;" horiz-adv-x="757" 
d="M519 700h237v-13q-43 -12 -77.5 -49t-75.5 -116l-115 -226v-283h64v-13h-334v13h64v260l-217 414h-64v13h351v-13h-66l191 -379l109 210q37 75 18.5 118t-85.5 51v13zM417 894q21 -21 39.5 -56t27.5 -60l8 -25l-7 -7q-94 28 -141 75q-52 54 -16 90t89 -17z" />
    <glyph glyph-name="ygrave" unicode="&#x1ef3;" horiz-adv-x="667" 
d="M426 527h235v-13q-41 -12 -74.5 -56.5t-71.5 -130.5l-140 -319l-137 -299l-136 124v13l226 99l-269 569h-63v13h334v-13h-67l157 -375l84 193q31 78 9 125t-87 57v13zM337 744q21 -21 39.5 -56t27.5 -60l8 -25l-7 -7q-94 28 -141 75q-52 54 -16 90t89 -17z" />
    <glyph glyph-name="endash" unicode="&#x2013;" horiz-adv-x="467" 
d="M36 357h395v-57h-395v57z" />
    <glyph glyph-name="emdash" unicode="&#x2014;" horiz-adv-x="508" 
d="M36 357h436v-57h-436v57z" />
    <glyph glyph-name="quoteleft" unicode="&#x2018;" horiz-adv-x="278" 
d="M139 693q43 0 73 -30t30 -73t-30 -73t-73 -30t-73 30t-30 73q0 69 51.5 136t101.5 98l6 -11q-30 -22 -59 -62.5t-39 -66.5q22 9 42 9z" />
    <glyph glyph-name="quoteright" unicode="&#x2019;" horiz-adv-x="279" 
d="M243 600q0 -68 -51.5 -135t-101.5 -99l-7 11q30 22 59 62.5t39 66.5q-18 -9 -42 -9q-42 0 -72.5 30t-30.5 73t30.5 73t72.5 30q43 0 73.5 -30t30.5 -73z" />
    <glyph glyph-name="quotesinglbase" unicode="&#x201a;" horiz-adv-x="278" 
d="M242 96q0 -69 -51.5 -136.5t-101.5 -98.5l-6 12q30 22 59 62.5t39 66.5q-18 -9 -42 -9q-43 0 -73 30t-30 73t30 73t73 30t73 -30t30 -73z" />
    <glyph glyph-name="quotedblleft" unicode="&#x201c;" horiz-adv-x="525" 
d="M139 693q43 0 73 -30t30 -73t-30 -73t-73 -30t-73 30t-30 73q0 69 51.5 136t101.5 98l6 -11q-30 -22 -59 -62.5t-39 -66.5q22 9 42 9zM386 693q43 0 73 -30t30 -73t-30 -73t-73 -30t-73 30t-30 73q0 69 51.5 136t101.5 98l6 -11q-29 -22 -58 -62.5t-40 -66.5q22 9 42 9z
" />
    <glyph glyph-name="quotedblright" unicode="&#x201d;" horiz-adv-x="526" 
d="M139 703q43 0 73 -30t30 -73q0 -69 -51.5 -136t-101.5 -98l-6 11q30 22 59 62.5t39 66.5q-18 -9 -42 -9q-43 0 -73 30t-30 73t30 73t73 30zM387 703q43 0 73 -30t30 -73q0 -69 -51.5 -136t-101.5 -98l-6 11q29 22 58 62.5t40 66.5q-18 -9 -42 -9q-43 0 -73 30t-30 73
t30 73t73 30z" />
    <glyph glyph-name="quotedblbase" unicode="&#x201e;" horiz-adv-x="526" 
d="M139 199q43 0 73 -30t30 -73q0 -69 -51.5 -136.5t-101.5 -98.5l-6 12q30 22 59 62.5t39 66.5q-18 -9 -42 -9q-43 0 -73 30t-30 73t30 73t73 30zM386 199q43 0 73.5 -30t30.5 -73q0 -69 -51.5 -136.5t-101.5 -98.5l-7 12q30 22 59 62.5t39 66.5q-18 -9 -42 -9
q-42 0 -72.5 30t-30.5 73t30.5 73t72.5 30z" />
    <glyph glyph-name="dagger" unicode="&#x2020;" horiz-adv-x="380" 
d="M329 523h15v-81h-15l-138 39l39 -216l-37 -142h-6l-38 142l39 216l-138 -39h-14v81h14l138 -39l-39 138v14h81v-14l-39 -138z" />
    <glyph glyph-name="daggerdbl" unicode="&#x2021;" horiz-adv-x="380" 
d="M329 531h15v-80h-15l-136 38l37 -151l-37 -150l136 38h15v-81h-15l-135 38l36 -129v-14h-80v14l36 129l-135 -38h-15v81h15l135 -38l-36 150l36 151l-135 -38h-15v80h15l135 -38l-36 129v14h80v-14l-36 -129z" />
    <glyph glyph-name="bullet" unicode="&#x2022;" horiz-adv-x="278" 
d="M139 549q43 0 73 -30t30 -73t-30 -73t-73 -30t-73 30t-30 73t30 73t73 30z" />
    <glyph glyph-name="ellipsis" unicode="&#x2026;" horiz-adv-x="890" 
d="M139 199q43 0 73 -30t30 -73t-30 -73t-73 -30t-73 30t-30 73t30 73t73 30zM445 199q43 0 73 -30t30 -73t-30 -73t-73 -30t-73 30t-30 73t30 73t73 30zM751 199q43 0 73 -30t30 -73t-30 -73t-73 -30t-73 30t-30 73t30 73t73 30z" />
    <glyph glyph-name="perthousand" unicode="&#x2030;" horiz-adv-x="1282" 
d="M410 531q0 -76 -51 -124t-136 -48t-136 48t-51 124t51 124t136 48t136 -48t51 -124zM168 531q0 -161 55 -161q26 0 41 42t15 119t-15 119t-41 42q-55 0 -55 -161zM637 338q85 0 136 -48t51 -124t-51.5 -124.5t-135.5 -48.5t-135.5 48.5t-51.5 124.5t51 124t136 48zM637 5
q26 0 41 42t15 119t-15 119t-41 42q-55 0 -55 -161t55 -161zM683 700h22l-536 -700h-21zM1059 338q85 0 136 -48t51 -124t-51.5 -124.5t-135.5 -48.5t-135.5 48.5t-51.5 124.5t51 124t136 48zM1059 5q26 0 41 42t15 119t-15 119t-41 42q-55 0 -55 -161t55 -161z" />
    <glyph glyph-name="guilsinglleft" unicode="&#x2039;" horiz-adv-x="252" 
d="M216 470l-70 -147l70 -146l-6 -6l-174 140v24l174 141z" />
    <glyph glyph-name="guilsinglright" unicode="&#x203a;" horiz-adv-x="252" 
d="M42 476l174 -141v-24l-174 -140l-6 6l70 146l-70 147z" />
    <glyph glyph-name="fraction" unicode="&#x2044;" horiz-adv-x="376" 
d="M283 700h57l-248 -779h-56z" />
    <glyph glyph-name="Euro" unicode="&#x20ac;" horiz-adv-x="791" 
d="M746 158l14 -11q-37 -62 -106.5 -108t-174.5 -46q-95 0 -173.5 29.5t-135.5 96t-71 162.5h-98l8 22h87q-2 28 -2 45q0 26 3 49h-96l8 22h91q24 137 132 210.5t254 73.5q102 0 259 -59v-244h-13q-60 152 -111.5 219.5t-107.5 67.5q-73 0 -130 -74t-62 -194h289l-8 -22
h-282q0 -15 2 -49q4 -33 7 -45h248l-8 -22h-234q25 -92 90.5 -146.5t147.5 -54.5q64 -1 102.5 20.5t70.5 57.5z" />
    <glyph glyph-name="Ruble" unicode="&#x20bd;" horiz-adv-x="702" 
d="M388 256h-83v-71h191v-21h-191v-151h98v-13h-367v13h64v151h-64v21h64v71h-64v13h64v418h-64v13h352q288 0 288 -222t-288 -222zM305 679v-410h40q72 0 104.5 52t32.5 157q0 100 -32.5 150.5t-104.5 50.5h-40z" />
    <glyph glyph-name="Bitcoin" unicode="&#x20bf;" horiz-adv-x="752" 
d="M726 189q0 -55 -21.5 -93t-63.5 -58t-89.5 -28.5t-111.5 -9.5v-82h-21v82h-80v-82h-21v82h-282v13h65v674h-65v13h282v83h21v-83h25q37 0 55 -1v84h21v-85q228 -19 228 -170q0 -71 -65 -111t-152 -41v-4q122 6 198.5 -40.5t76.5 -142.5zM306 679v-305h31q129 0 129 154
q0 151 -129 151h-31zM379 22q145 0 145 167q0 88 -38.5 129.5t-106.5 41.5h-73v-338h73z" />
    <glyph glyph-name="afii61352" unicode="&#x2116;" horiz-adv-x="1278" 
d="M813 700v-13q-59 -11 -90.5 -75t-31.5 -148v-464h-68l-467 573v-337q0 -82 35 -147t96 -76v-13h-266v13q60 11 91 75t31 148v353l-80 98h-41v13h298l358 -449v213q0 82 -35 147t-95 76v13h265zM806 301h456v-22h-456v22zM1034 359q-85 0 -136 48t-51 124t51 124t136 48
t136 -48t51 -124t-51 -124t-136 -48zM1034 692q-26 0 -41 -42t-15 -119t15 -119t41 -42q55 0 55 161t-55 161z" />
    <glyph glyph-name="minus" unicode="&#x2212;" horiz-adv-x="426" 
d="M36 357h354v-57h-354v57z" />
    <glyph glyph-name="approxequal" unicode="&#x2248;" horiz-adv-x="467" 
d="M188 413q-49 23 -79 8.5t-39 -54.5h-10q4 97 33.5 136t88.5 34q32 -2 85 -31.5t63 -33.5q37 -13 60.5 1t30.5 46h10q-3 -81 -28 -120.5t-80 -38.5q-16 0 -30.5 2.5t-30 9.5l-23 10.5t-27 15.5zM306 274q36 -13 59.5 1t31.5 46h9q-2 -81 -27.5 -120.5t-80.5 -38.5
q-20 0 -40.5 6t-29.5 10t-34 18.5t-31 17.5q-49 24 -79 9.5t-39 -54.5h-9q4 97 33 136t88 34q32 -2 85.5 -31.5t63.5 -33.5z" />
    <glyph glyph-name="notequal" unicode="&#x2260;" horiz-adv-x="426" 
d="M390 360h-143l-49 -63h192v-57h-236l-68 -89l-13 10l62 79h-99v57h143l49 63h-192v57h235l69 89l12 -10l-61 -79h99v-57z" />
    <glyph glyph-name="lessequal" unicode="&#x2264;" horiz-adv-x="426" 
d="M36 158v57h354v-57h-354zM390 586v-56l-282 -106l282 -105v-57l-354 132v60z" />
    <glyph glyph-name="greaterequal" unicode="&#x2265;" horiz-adv-x="426" 
d="M36 158v57h354v-57h-354zM36 586l354 -132v-60l-354 -132v57l282 105l-282 106v56z" />
    <glyph glyph-name="commaaccent" unicode="&#xf6c3;" horiz-adv-x="278" 
d="M242 -129q0 -69 -51.5 -136t-101.5 -98l-6 11q30 22 59 62.5t39 66.5q-23 -9 -42 -9q-43 0 -73 30t-30 73t30 73t73 30t73 -30t30 -73z" />
    </font>
</defs>
</svg>
